{"glyphs":{"0":{"ha":760,"x_min":18,"x_max":747,"o":"m 318 1092 q 332 1085 325 1088 q 346 1086 339 1083 q 368 1090 357 1089 q 390 1089 379 1092 q 406 1089 399 1088 q 421 1085 414 1090 q 437 1081 428 1079 q 453 1078 446 1082 q 474 1070 464 1074 q 493 1060 483 1067 q 510 1047 503 1054 q 526 1038 517 1040 q 563 1021 546 1032 q 596 997 579 1010 q 625 966 611 982 q 654 935 639 950 q 673 908 665 924 q 690 879 681 893 q 707 839 703 861 q 710 817 710 828 q 717 796 711 806 q 719 776 719 786 q 722 757 719 767 q 728 693 726 725 q 738 629 731 661 q 740 599 740 614 q 742 569 739 585 q 745 544 743 557 q 744 518 747 532 q 742 478 740 499 q 739 438 744 457 q 737 408 736 422 q 735 381 738 394 q 731 364 732 372 q 728 347 729 356 q 726 332 726 340 q 725 317 726 324 q 717 287 722 301 q 707 257 711 272 q 701 233 704 244 q 692 211 699 221 q 677 185 683 199 q 661 161 671 172 q 650 147 653 153 q 624 122 639 129 q 593 103 608 114 q 547 78 569 92 q 501 54 525 64 q 481 52 492 53 q 463 44 471 51 q 438 38 451 33 q 413 42 425 43 q 386 38 399 39 q 360 39 374 36 q 344 38 349 39 q 316 31 329 32 q 288 29 303 31 q 260 36 272 28 q 235 47 249 44 q 220 52 228 50 q 206 57 213 54 q 192 68 197 60 q 181 82 188 76 q 163 101 171 90 q 144 121 156 113 q 128 140 135 129 q 114 160 122 151 q 99 184 104 171 q 82 206 93 197 q 65 238 68 218 q 53 272 63 257 q 49 295 50 283 q 44 319 47 307 q 42 335 42 326 q 43 353 43 344 q 36 384 40 368 q 33 415 32 400 q 31 428 32 422 q 31 440 29 433 q 28 455 31 447 q 24 471 25 463 q 21 498 22 485 q 18 526 19 511 q 24 547 21 538 q 25 569 28 557 q 25 603 28 586 q 24 638 22 621 q 25 660 24 649 q 26 683 26 672 q 28 719 25 701 q 35 753 32 736 q 42 782 36 768 q 53 811 49 796 q 62 833 58 822 q 71 854 65 843 q 84 876 78 865 q 94 899 90 886 q 105 917 97 910 q 118 935 113 924 q 144 972 128 957 q 172 1006 161 986 q 194 1026 183 1017 q 217 1043 204 1036 q 229 1056 224 1049 q 244 1067 235 1064 q 262 1073 253 1069 q 281 1079 271 1076 q 295 1082 288 1083 q 310 1088 303 1081 q 314 1091 313 1089 q 318 1092 315 1093 z "},"1":{"ha":425,"x_min":11,"x_max":401,"o":"m 279 1075 q 310 1081 294 1075 q 342 1079 326 1088 q 366 1076 353 1072 q 392 1076 379 1079 q 400 1061 399 1071 q 397 1044 401 1051 q 392 1023 392 1033 q 392 1001 393 1013 q 390 979 390 990 q 388 957 390 968 q 383 924 383 940 q 381 890 383 907 q 382 862 378 875 q 385 833 386 849 q 384 803 382 818 q 385 774 386 789 q 385 756 383 765 q 385 739 388 747 q 384 725 382 732 q 385 711 386 718 q 383 699 385 704 q 381 688 381 694 q 381 647 383 668 q 383 607 379 626 q 385 571 388 589 q 386 533 383 553 q 389 492 388 513 q 392 451 390 471 q 388 423 389 436 q 389 394 386 410 q 390 361 393 378 q 390 328 388 344 q 390 310 392 318 q 392 293 389 301 q 396 243 397 268 q 399 186 399 215 q 393 129 400 157 q 394 107 393 114 q 394 82 397 94 q 396 58 392 69 q 397 43 399 51 q 389 32 396 35 q 371 33 379 29 q 354 33 363 38 q 331 33 343 33 q 308 31 319 33 q 283 29 296 25 q 257 28 269 33 q 249 24 253 25 q 242 21 246 24 q 213 30 228 28 q 183 26 197 32 q 169 42 174 32 q 168 64 164 53 q 179 110 181 85 q 179 158 178 135 q 180 188 179 174 q 182 218 181 203 q 179 219 181 218 q 175 222 178 221 q 181 251 181 233 q 185 285 183 268 q 186 321 186 303 q 189 350 189 336 q 189 379 189 364 q 189 415 190 397 q 188 451 188 433 q 184 472 186 463 q 185 493 182 482 q 185 516 186 504 q 183 539 183 528 q 188 587 186 563 q 189 635 189 611 q 160 649 175 643 q 131 651 146 654 q 95 651 113 654 q 60 647 78 647 q 44 642 51 644 q 29 636 36 639 q 16 646 19 638 q 11 663 13 654 q 16 694 13 678 q 19 725 19 710 q 24 753 22 739 q 31 781 26 767 q 35 828 39 804 q 44 847 33 842 q 61 863 54 853 q 81 885 71 875 q 101 908 92 896 l 139 954 q 153 976 147 965 q 169 996 160 988 q 186 1015 179 1004 q 203 1033 193 1025 q 209 1039 206 1036 q 215 1046 213 1042 q 215 1060 215 1053 q 224 1071 215 1068 q 251 1072 238 1071 q 279 1075 264 1074 z "},"2":{"ha":633,"x_min":13,"x_max":614,"o":"m 279 1088 q 300 1090 290 1088 q 321 1089 310 1092 q 344 1086 332 1086 q 369 1083 357 1086 q 399 1076 385 1081 q 429 1068 414 1071 q 467 1046 450 1060 q 504 1019 485 1032 q 535 987 521 1004 q 557 947 549 969 q 572 921 565 935 q 581 892 579 907 q 583 878 581 885 q 588 865 585 872 q 596 810 590 836 q 600 774 601 792 q 603 739 599 756 q 603 722 606 731 q 601 706 600 714 q 601 683 601 694 q 599 661 601 672 q 596 647 597 654 q 590 635 594 640 q 571 605 581 619 q 551 575 561 590 q 533 556 540 567 q 517 535 525 546 q 504 522 511 528 q 492 510 497 517 q 471 489 482 499 q 450 468 460 479 q 424 442 436 456 q 396 417 411 428 q 360 380 376 399 q 324 346 343 361 q 307 331 315 339 q 289 315 299 322 q 278 305 282 311 q 269 292 275 299 q 256 275 263 282 q 244 257 249 268 q 299 261 272 257 q 354 267 326 265 q 383 265 369 269 q 411 267 397 261 q 428 263 419 267 q 444 258 436 260 q 469 259 457 258 q 493 263 481 260 q 549 264 521 264 q 604 261 576 264 q 613 245 611 256 q 610 226 614 235 q 603 199 603 213 q 601 169 604 185 q 597 134 599 151 q 592 100 594 117 q 590 82 592 90 q 589 64 588 74 q 589 17 592 40 q 584 6 588 11 q 575 4 581 1 q 551 6 563 7 q 526 7 539 6 q 498 14 513 13 q 468 14 483 15 q 441 18 454 11 q 414 21 428 25 q 389 15 401 18 q 364 17 376 11 q 340 19 353 21 q 315 21 328 18 q 279 24 297 24 q 243 31 261 25 q 188 29 214 38 q 157 25 172 24 q 126 22 142 26 q 103 21 115 19 q 79 19 90 22 q 69 15 74 18 q 60 10 65 13 q 51 19 57 15 q 46 31 46 24 q 38 58 44 47 q 33 85 32 69 q 35 110 32 97 q 35 135 38 122 q 26 238 32 186 q 27 247 24 239 q 28 256 31 254 q 31 273 31 263 q 42 285 31 283 q 63 292 54 282 q 82 308 71 301 q 143 361 113 336 q 203 414 174 386 q 226 442 214 429 q 244 472 238 454 q 260 490 251 482 q 275 508 268 499 q 301 542 290 524 q 328 578 313 561 q 344 602 338 589 q 358 626 350 615 q 369 647 365 636 q 379 667 372 657 q 394 699 386 683 q 407 735 403 715 q 417 792 414 763 q 410 849 421 821 q 399 867 407 860 q 385 883 392 874 q 371 890 382 888 q 346 900 358 894 q 319 903 333 906 q 293 900 306 904 q 268 892 281 896 q 247 879 257 888 q 228 863 238 871 q 208 842 217 853 q 193 817 199 831 q 189 785 186 801 q 196 753 192 768 q 203 733 197 742 q 207 713 208 724 q 215 678 206 697 q 197 671 207 671 q 178 668 188 671 q 146 669 163 669 q 113 671 129 668 q 65 669 89 671 q 18 671 42 668 q 13 685 13 676 q 14 700 14 693 q 16 728 17 714 q 15 757 15 742 q 14 799 15 778 q 18 842 13 821 q 26 873 24 857 q 35 904 28 889 q 51 940 42 922 q 75 972 61 957 q 81 984 79 978 q 88 994 82 990 q 126 1035 111 1015 q 169 1067 147 1057 q 197 1076 182 1076 q 228 1081 213 1076 q 253 1085 240 1085 q 279 1088 267 1085 z "},"3":{"ha":622,"x_min":6,"x_max":611,"o":"m 251 1074 q 276 1076 264 1076 q 303 1076 289 1075 q 324 1071 314 1074 q 344 1065 333 1068 q 373 1056 360 1061 q 401 1046 386 1050 q 423 1040 413 1042 q 443 1031 433 1038 q 461 1019 451 1024 q 478 1007 471 1015 q 506 977 493 992 q 529 943 519 963 q 540 922 533 932 q 549 901 546 913 q 558 858 553 879 q 564 815 564 838 q 565 782 565 799 q 564 750 564 765 q 559 726 561 738 q 556 701 557 714 q 540 658 549 679 q 529 615 532 638 q 524 598 528 606 q 515 582 519 590 q 511 560 513 571 q 515 539 510 550 q 522 526 518 532 q 525 513 525 519 q 536 480 528 496 q 553 449 544 464 q 572 418 563 433 q 585 386 581 403 q 592 361 590 374 q 599 336 594 349 q 600 317 601 326 q 600 299 599 308 q 603 274 601 286 q 607 247 606 261 q 603 206 611 228 q 597 164 596 183 q 587 140 594 150 q 574 115 579 129 q 558 94 569 101 q 540 75 547 86 q 513 63 529 64 q 485 51 497 61 q 471 46 478 49 q 457 40 464 43 q 422 33 439 39 q 389 24 406 26 q 367 23 378 24 q 346 21 357 22 q 327 26 336 24 q 307 26 318 28 q 292 33 300 29 q 276 36 285 36 q 260 35 268 38 q 246 35 253 32 q 232 37 239 38 q 218 40 225 36 q 192 51 207 49 q 165 63 176 53 q 150 72 158 69 q 135 81 142 74 q 124 89 129 85 q 113 96 119 93 q 85 131 97 113 q 67 172 72 150 q 59 211 64 192 q 51 250 54 231 q 46 301 44 275 q 43 351 47 326 q 46 401 47 376 q 50 451 44 426 q 69 460 57 463 q 99 460 85 457 q 129 467 114 464 q 141 466 136 467 q 151 468 146 465 q 161 463 157 465 q 171 464 165 461 q 184 465 178 467 q 197 463 190 464 q 202 430 206 447 q 206 397 199 413 q 217 367 211 382 q 233 340 222 353 q 247 319 242 331 q 260 297 251 307 q 276 285 267 289 q 294 274 286 281 q 315 265 304 267 q 336 263 325 264 q 366 267 351 261 q 392 283 381 274 q 407 292 399 289 q 421 303 415 294 q 431 312 425 308 q 440 322 438 315 q 443 332 443 326 q 444 343 443 338 q 447 369 447 356 q 442 396 447 383 q 433 424 436 410 q 425 451 431 438 q 398 475 414 465 q 363 482 382 485 q 338 483 350 481 q 314 486 326 486 q 296 485 304 486 q 278 486 288 485 q 263 525 267 504 q 258 565 258 546 q 255 586 256 576 q 249 606 254 596 q 247 619 244 613 q 253 632 249 626 q 265 631 260 635 q 276 625 271 628 q 286 622 281 621 q 297 625 292 624 q 327 635 313 628 q 354 651 342 642 q 374 663 363 660 q 394 674 386 665 q 408 688 401 681 q 414 707 414 696 q 415 737 415 722 q 411 767 415 751 q 407 785 408 776 q 403 803 406 794 q 368 828 386 824 q 338 834 353 831 q 308 833 324 838 q 292 839 301 839 q 276 844 283 840 q 261 846 268 847 q 247 842 254 843 q 232 839 239 842 q 220 828 225 835 q 211 814 215 821 q 208 807 208 811 q 208 799 208 803 q 206 774 206 785 q 201 753 206 764 q 196 747 201 746 q 188 749 190 749 q 168 751 174 751 q 149 754 163 751 q 111 757 133 760 q 70 749 90 753 q 29 746 50 746 q 20 748 25 747 q 13 753 15 749 q 8 779 6 765 q 11 806 10 793 q 15 846 11 826 q 15 876 14 861 q 18 906 17 890 q 24 922 21 914 q 29 939 26 931 q 53 978 39 960 q 82 1011 67 996 q 97 1024 89 1019 q 113 1036 106 1028 q 126 1047 118 1044 q 142 1054 135 1050 q 194 1074 165 1069 q 251 1074 224 1079 z "},"4":{"ha":643,"x_min":7,"x_max":642,"o":"m 364 1061 q 396 1072 379 1068 q 428 1086 413 1075 q 435 1078 432 1082 q 443 1071 439 1074 q 442 1056 443 1064 q 439 1042 442 1049 q 438 1010 432 1026 q 444 979 443 994 q 454 908 447 943 q 460 836 461 872 q 464 775 460 806 q 463 747 464 760 q 463 718 463 733 q 464 694 465 707 q 464 671 463 682 q 465 658 465 663 q 465 650 465 653 q 465 642 465 647 q 467 629 465 638 q 467 608 468 618 q 474 588 465 597 q 515 585 494 576 q 550 590 532 592 q 586 593 568 589 q 600 601 593 596 q 615 603 607 607 q 632 581 626 592 q 630 569 633 574 q 625 560 626 565 q 626 522 622 544 q 631 483 631 499 q 636 452 631 468 q 640 421 642 436 q 635 418 638 419 q 631 415 633 417 q 617 421 624 417 q 604 425 611 425 q 575 428 589 426 q 546 429 561 429 q 532 426 535 428 q 528 422 529 424 q 524 419 528 421 q 511 415 521 417 q 457 417 488 410 q 458 404 458 410 q 461 392 458 399 q 464 365 465 382 q 465 338 463 349 q 472 261 476 297 q 468 228 468 244 q 474 169 476 199 q 471 111 471 140 q 470 74 468 92 q 475 36 472 56 q 467 17 476 26 q 450 24 460 24 q 432 25 440 24 q 416 26 424 28 q 400 24 408 24 q 358 24 379 25 q 333 19 346 22 q 308 15 321 17 q 239 0 275 11 q 230 -2 235 -1 q 221 0 225 -3 q 212 15 214 6 q 214 32 210 25 q 224 54 221 43 q 231 76 226 65 q 233 108 233 92 q 236 139 232 124 q 238 174 239 157 q 239 207 236 190 q 237 231 238 219 q 239 256 236 243 q 243 299 243 276 q 247 343 243 321 q 252 388 247 367 q 251 433 257 410 q 207 432 225 436 q 183 430 199 431 q 151 428 168 429 q 118 424 133 426 q 96 419 103 422 q 83 418 89 417 q 69 418 76 419 q 49 415 58 417 q 31 414 40 413 q 19 431 25 422 q 14 449 13 439 q 18 494 14 471 q 18 530 24 513 q 17 565 13 547 q 18 587 19 576 q 17 608 17 597 q 13 626 18 618 q 8 643 7 633 q 17 657 8 649 q 41 682 36 668 q 54 707 46 696 q 65 727 61 717 q 76 746 69 738 q 86 763 82 754 q 97 779 90 772 q 119 817 110 797 q 139 854 128 836 q 147 872 143 863 q 157 890 150 882 q 165 904 161 897 q 171 921 169 911 q 185 946 179 928 q 197 974 190 964 q 209 996 204 985 q 224 1015 214 1007 q 234 1026 228 1021 q 242 1039 240 1031 q 244 1044 243 1042 q 247 1050 244 1047 q 279 1051 263 1051 q 311 1058 296 1051 q 338 1061 326 1064 q 364 1061 349 1058 z "},"5":{"ha":657,"x_min":18,"x_max":633,"o":"m 551 1079 q 560 1083 557 1081 q 569 1088 564 1086 q 586 1068 583 1082 l 578 1047 q 577 1029 576 1038 q 578 1013 578 1021 q 578 961 581 986 q 578 910 576 936 q 583 888 581 899 q 575 868 585 876 q 552 873 564 871 q 528 871 540 875 q 496 871 513 869 q 464 865 479 872 q 445 865 454 860 q 428 865 436 869 q 400 860 413 858 q 383 858 390 863 q 365 854 375 854 q 329 846 346 853 q 293 840 313 839 q 278 838 286 842 q 264 833 271 835 q 248 828 256 832 q 232 821 240 824 q 224 819 229 819 q 219 813 219 818 q 219 795 219 804 q 218 776 219 786 q 219 753 217 765 q 222 729 221 742 q 224 696 221 713 q 226 663 226 679 q 260 664 244 660 q 281 663 271 663 q 301 663 290 664 q 322 655 311 658 q 343 651 332 651 q 381 649 363 650 q 418 650 399 647 q 449 647 433 653 q 478 635 464 642 q 514 618 497 631 q 534 606 524 611 q 553 590 544 600 q 567 576 560 583 q 579 558 575 568 q 599 522 589 540 q 613 483 610 504 q 617 465 615 474 q 621 446 619 456 q 623 401 619 422 q 628 356 626 379 q 632 308 631 332 q 625 261 633 283 q 619 244 622 251 q 611 228 615 236 q 598 194 604 211 q 583 163 592 178 q 560 124 572 143 q 532 88 547 104 q 515 74 524 81 q 496 61 506 68 q 477 51 488 53 q 456 44 467 49 q 439 37 447 42 q 421 33 431 32 q 372 29 397 35 q 354 30 363 26 q 338 36 346 33 q 324 36 331 39 q 311 36 318 33 q 283 42 296 40 q 256 51 269 44 q 232 58 244 57 q 208 63 219 58 q 194 63 201 65 q 181 68 186 61 q 142 94 161 82 q 104 119 124 106 q 57 183 78 147 q 49 205 54 194 q 43 228 44 215 q 38 265 38 246 q 36 301 39 283 q 41 349 40 325 q 43 396 42 372 q 48 403 46 400 q 53 410 50 407 q 87 401 69 403 q 121 396 104 399 q 144 389 132 392 q 167 389 156 386 q 183 388 175 392 q 200 385 192 385 l 208 397 q 219 393 214 394 q 228 385 225 392 q 222 357 231 368 q 210 335 214 347 q 208 311 206 324 q 211 289 210 300 q 217 267 213 278 q 223 256 219 261 q 229 244 226 250 q 285 214 256 222 q 301 213 293 214 q 318 213 310 213 q 343 223 331 218 q 367 235 356 228 q 381 245 375 238 q 393 257 386 253 q 405 272 400 264 q 415 288 410 279 q 427 306 421 297 q 438 325 433 314 q 447 360 443 343 q 450 397 451 378 q 418 468 439 432 q 395 488 407 478 q 368 497 383 497 q 340 497 353 493 q 322 497 331 501 q 303 494 313 492 q 281 494 292 494 q 260 489 271 493 q 242 487 251 485 q 225 485 233 489 q 213 485 218 482 q 201 488 208 488 q 191 489 196 490 q 181 488 186 488 q 170 491 175 489 q 158 492 165 493 q 144 491 151 490 q 129 489 136 492 q 104 489 117 488 q 79 490 92 490 q 65 494 72 490 q 51 494 58 497 q 31 494 40 490 q 25 512 24 503 q 29 531 26 521 q 28 563 26 547 q 29 596 29 579 q 32 613 32 604 q 31 632 32 622 q 36 674 36 653 q 40 715 36 694 q 36 735 39 725 q 36 754 33 744 q 36 791 39 774 q 35 828 33 808 q 32 840 35 835 q 31 851 29 844 q 31 872 31 863 q 29 893 32 882 q 32 921 28 906 q 26 934 31 928 q 24 949 22 940 q 26 988 26 968 q 26 1026 26 1007 q 23 1048 28 1038 q 19 1069 18 1058 q 25 1077 22 1074 q 31 1085 28 1081 q 47 1074 43 1081 q 128 1065 86 1061 q 183 1067 156 1065 q 236 1076 210 1069 q 273 1078 256 1078 q 310 1082 290 1079 q 343 1082 326 1079 q 359 1081 351 1085 q 376 1079 367 1078 q 406 1079 392 1076 q 436 1079 421 1082 q 453 1078 444 1078 q 468 1081 461 1079 q 490 1080 479 1081 q 513 1079 501 1079 q 533 1078 524 1079 q 551 1079 542 1076 z "},"6":{"ha":710,"x_min":44,"x_max":647,"o":"m 303 1085 q 325 1090 314 1089 q 347 1092 336 1090 q 381 1089 364 1089 q 414 1082 399 1089 q 431 1076 422 1078 q 449 1071 440 1074 q 465 1063 457 1068 q 481 1054 472 1058 q 497 1040 489 1047 q 514 1028 504 1033 q 526 1017 521 1024 q 538 1007 531 1011 q 573 973 557 992 q 601 932 589 954 q 609 916 607 925 q 614 897 611 907 q 621 874 619 886 q 626 851 622 863 q 632 824 631 838 q 636 796 633 811 q 640 753 643 775 q 644 708 638 731 q 644 694 647 701 q 635 683 642 686 q 590 694 613 693 q 544 699 568 694 q 510 698 526 701 q 475 696 493 694 q 459 694 467 699 q 444 688 451 690 q 435 689 439 688 q 426 690 431 690 q 426 707 426 699 q 429 724 426 715 q 431 750 432 738 q 426 775 429 763 q 417 795 422 786 q 408 815 413 804 q 398 833 406 825 q 379 840 390 840 q 356 834 367 838 q 335 824 344 831 q 310 810 324 815 q 288 794 297 806 q 268 775 278 785 q 256 750 258 765 q 248 713 251 732 q 249 676 244 694 q 251 645 249 661 q 263 615 254 629 q 274 632 271 626 q 305 644 290 636 q 336 657 319 651 q 366 660 351 657 q 396 664 381 664 q 415 661 406 661 q 432 660 424 661 q 456 652 444 657 q 481 644 468 647 q 528 598 506 622 q 571 547 550 574 q 600 497 590 524 q 619 442 610 469 q 621 419 621 431 q 624 397 621 408 q 626 378 626 388 q 625 360 626 369 q 624 315 624 338 q 617 272 624 293 q 612 251 613 261 q 604 231 611 240 q 597 212 599 222 q 589 193 594 201 q 574 167 582 179 q 557 143 567 154 q 532 117 546 128 q 506 93 518 106 q 490 82 499 86 q 474 71 481 78 q 399 28 442 43 q 381 24 389 24 q 363 24 372 24 q 338 27 350 22 q 315 33 326 32 q 294 40 304 35 q 274 49 285 46 q 259 55 267 51 q 244 61 251 58 q 220 71 233 68 q 196 81 207 74 q 175 95 185 86 q 154 113 165 104 q 128 142 139 125 q 111 178 118 158 q 103 198 106 188 q 96 217 101 208 q 77 265 82 240 q 63 315 72 290 q 57 339 58 326 q 53 364 56 351 q 48 397 47 379 q 49 431 49 414 q 47 444 49 438 q 46 457 44 450 q 46 494 47 476 q 47 532 44 513 q 49 551 49 542 q 51 569 49 561 q 56 603 56 586 q 60 635 56 619 q 65 668 65 651 q 65 687 64 678 q 69 706 67 696 q 72 737 72 721 q 79 768 72 753 q 80 784 81 776 q 81 799 79 792 q 88 822 85 810 q 99 844 92 833 q 109 873 107 857 q 126 896 111 889 q 131 910 126 904 q 139 924 135 917 q 155 953 147 939 q 174 981 163 968 q 207 1011 192 994 q 238 1043 222 1028 q 265 1064 251 1057 q 283 1076 275 1069 q 303 1085 292 1082 z "},"7":{"ha":676,"x_min":29,"x_max":668,"o":"m 50 1107 q 63 1104 57 1110 q 75 1096 68 1099 q 88 1089 81 1090 q 103 1086 96 1088 q 124 1083 114 1085 q 143 1081 133 1081 q 172 1081 158 1081 q 196 1081 185 1082 q 221 1078 208 1076 q 244 1079 233 1079 q 288 1081 267 1083 q 331 1079 308 1078 q 356 1076 343 1079 q 381 1075 368 1072 q 428 1074 404 1072 q 475 1072 451 1075 q 497 1073 486 1072 q 518 1071 508 1074 q 548 1072 533 1068 q 578 1072 563 1076 q 624 1081 600 1067 q 638 1082 631 1083 q 647 1071 646 1081 q 644 996 642 1035 q 643 918 646 957 q 644 904 642 911 q 647 890 647 897 q 651 850 650 871 q 664 813 653 829 q 657 789 668 797 q 639 769 646 781 q 617 734 628 751 q 594 699 607 717 q 581 676 588 688 q 567 654 574 665 q 547 617 556 635 q 531 582 539 600 q 522 567 524 571 q 519 560 519 563 q 517 557 518 558 q 515 550 517 556 q 504 509 508 531 q 494 465 500 488 q 490 444 492 454 q 486 422 489 433 q 482 400 483 411 q 478 379 481 389 q 471 351 476 369 q 459 314 465 333 q 448 277 453 294 q 442 250 443 260 q 440 219 439 235 q 439 188 440 203 q 437 165 436 176 q 435 142 438 153 q 435 106 432 124 q 438 71 439 89 q 437 58 436 64 q 438 44 438 51 q 417 41 426 44 q 400 35 408 38 q 373 33 386 32 q 347 31 360 35 q 316 35 332 33 q 283 38 300 36 q 238 35 261 46 q 228 36 231 32 q 222 46 225 40 q 216 92 215 69 q 217 138 217 114 q 216 175 217 157 q 219 213 215 193 q 223 251 224 232 q 226 290 222 271 l 240 342 l 253 385 q 257 395 254 390 q 257 404 260 400 q 261 424 260 418 q 268 460 265 444 q 274 488 271 475 q 281 519 278 504 q 292 553 285 533 q 297 572 294 561 q 301 592 299 582 q 314 609 311 604 q 317 618 317 614 q 319 628 318 622 q 325 649 319 635 q 328 662 326 656 q 333 675 329 668 q 340 690 338 682 q 344 704 342 697 q 355 726 347 717 q 365 747 363 736 q 370 775 368 761 q 378 804 372 789 q 338 801 358 806 q 319 802 328 799 q 299 804 310 806 q 262 801 281 803 q 226 790 243 800 q 199 790 213 790 q 174 786 186 790 q 137 790 156 790 q 100 792 118 790 q 57 776 75 792 q 35 767 47 769 q 30 783 29 774 q 29 803 31 793 q 38 821 38 810 q 40 843 39 832 q 44 882 43 863 q 42 921 46 901 q 42 967 44 944 q 40 1013 39 989 q 38 1033 40 1024 q 33 1054 35 1043 q 35 1070 32 1063 q 39 1086 38 1078 q 42 1099 40 1093 q 50 1107 43 1106 z "},"8":{"ha":672,"x_min":39,"x_max":653,"o":"m 385 1092 q 409 1090 397 1090 q 433 1086 421 1089 q 474 1072 453 1079 q 515 1053 496 1064 q 532 1042 525 1050 q 547 1028 539 1035 q 562 1011 556 1021 q 579 994 568 1001 q 592 978 588 988 q 601 957 597 968 q 610 930 606 943 q 618 901 615 917 q 626 854 621 878 q 638 807 632 831 q 636 779 640 792 q 633 754 632 767 q 631 724 636 738 q 619 694 625 710 q 612 668 617 681 q 603 640 607 656 q 594 616 599 628 q 583 592 589 604 q 575 582 581 586 q 571 571 569 578 q 581 560 576 564 q 590 551 586 557 q 619 513 608 533 q 640 469 629 492 q 644 458 643 464 q 646 446 644 453 q 651 424 649 435 q 651 403 653 414 q 651 357 651 379 q 647 311 651 335 q 639 258 642 283 q 625 206 636 232 q 615 164 622 183 q 597 125 607 144 q 570 92 586 107 q 539 61 554 76 q 519 44 528 54 q 500 26 511 35 q 472 16 488 18 q 440 13 456 14 q 408 10 424 14 q 378 4 393 7 q 351 -1 365 -1 q 322 0 338 0 q 299 2 311 0 q 276 3 288 4 q 249 6 261 4 q 221 10 236 8 q 203 16 211 11 q 189 25 196 21 q 172 38 181 32 q 156 50 163 43 q 126 76 140 64 q 96 104 111 89 q 81 123 88 113 q 68 144 75 133 q 49 190 50 164 q 43 239 49 215 q 42 262 39 250 q 46 286 46 274 q 47 310 44 299 q 47 335 49 322 q 50 361 46 349 q 54 386 54 374 q 63 424 56 406 q 72 463 71 442 q 91 508 82 486 q 111 551 100 529 q 126 567 118 560 q 140 582 133 574 q 134 605 138 594 q 128 626 131 615 q 122 642 126 635 q 113 657 117 649 q 108 676 108 667 q 104 696 107 685 q 104 709 103 703 q 103 721 106 715 q 101 742 100 732 q 101 764 103 753 q 102 790 99 778 q 107 818 106 803 q 113 843 110 831 q 121 868 117 856 q 131 890 126 879 q 139 914 135 901 q 151 935 144 925 q 163 957 158 946 q 169 971 165 965 q 179 982 174 976 q 201 1013 190 997 q 226 1042 213 1029 q 249 1057 239 1049 q 268 1076 258 1065 q 276 1081 272 1079 q 283 1082 279 1083 q 320 1082 303 1076 q 354 1085 338 1088 q 370 1089 363 1086 q 385 1092 378 1092 z "},"9":{"ha":683,"x_min":21,"x_max":657,"o":"m 325 1071 q 337 1071 332 1072 q 347 1068 342 1069 q 379 1060 363 1064 q 413 1053 396 1056 q 428 1044 421 1050 q 442 1035 435 1039 q 487 1008 465 1022 q 524 971 508 993 q 550 936 536 951 q 575 900 561 915 q 585 885 582 893 q 594 869 589 876 q 606 842 601 856 q 615 813 611 828 q 626 771 625 789 q 635 747 633 760 q 639 721 638 733 q 645 691 644 706 q 649 661 646 676 q 650 642 651 651 q 651 624 649 633 q 653 581 656 603 q 654 539 651 560 q 655 520 653 529 q 656 503 657 511 q 653 477 653 490 q 657 451 654 464 q 656 386 656 419 q 656 319 657 353 q 653 292 656 306 q 650 263 650 278 q 644 236 647 249 q 640 210 640 224 q 634 181 636 194 q 625 153 632 167 q 601 113 615 132 q 571 79 588 94 q 555 68 564 72 q 538 57 546 64 q 500 36 519 43 q 461 21 481 29 q 435 15 449 15 q 408 11 421 14 q 394 8 401 10 q 379 3 386 6 q 363 5 371 3 q 349 6 356 7 q 327 3 338 3 q 306 0 317 3 q 278 1 290 -3 q 250 7 265 6 q 231 14 239 8 q 211 21 222 19 q 193 31 200 22 q 175 43 186 39 q 158 55 165 47 q 144 69 151 63 q 111 106 126 86 q 86 147 96 125 q 77 165 82 157 q 69 183 72 174 q 62 205 67 194 q 53 226 57 215 q 49 251 49 239 q 43 275 49 264 q 38 297 40 286 q 36 319 35 308 q 31 352 29 335 q 32 386 32 369 q 33 392 32 389 q 36 399 35 396 q 31 419 31 406 q 56 417 43 418 q 81 418 68 417 q 113 419 97 419 q 146 418 129 418 q 167 420 157 419 q 188 421 176 421 q 197 426 194 421 q 201 435 199 431 q 208 433 204 433 q 215 431 213 432 q 215 403 218 417 q 211 376 213 390 q 210 342 208 360 q 219 310 213 325 q 228 294 222 301 q 240 281 233 288 q 257 265 247 271 q 278 253 267 258 q 300 246 289 246 q 322 243 311 246 q 351 247 338 242 q 379 254 364 253 q 406 276 393 265 q 428 303 418 288 q 446 348 439 325 q 453 394 453 371 q 439 451 453 424 q 411 451 425 454 q 383 450 397 449 q 363 451 372 449 q 343 453 354 453 q 317 457 329 454 q 290 460 304 460 q 237 472 263 463 q 185 489 211 481 q 141 506 161 496 q 100 528 121 517 q 83 542 90 533 q 69 560 76 550 q 58 574 64 567 q 49 592 51 582 q 40 610 46 601 q 32 628 35 618 q 25 667 25 647 q 25 707 25 688 q 24 734 26 721 q 22 761 21 747 q 26 794 25 778 q 31 826 28 810 q 40 872 29 850 q 63 914 50 894 q 77 938 67 928 q 96 958 88 947 q 128 992 110 978 q 168 1017 147 1006 q 185 1026 176 1021 q 204 1033 193 1031 q 233 1045 219 1038 q 264 1056 247 1053 q 294 1063 279 1058 q 325 1071 310 1068 m 306 875 q 280 865 292 874 q 260 847 268 857 q 247 822 253 835 q 236 794 240 810 q 229 769 233 782 q 224 743 225 757 q 223 715 221 729 q 228 688 225 701 q 238 664 229 675 q 257 647 246 653 q 276 640 267 643 q 296 635 286 638 q 310 635 303 635 q 324 632 317 635 q 346 635 335 635 q 368 639 357 636 q 388 644 379 640 q 407 650 396 649 q 430 661 418 656 q 447 678 442 667 q 463 739 465 706 q 460 749 463 744 q 457 761 457 754 q 445 806 458 785 q 410 839 432 828 q 367 864 389 849 q 306 875 338 879 z "}," ":{"ha":694,"x_min":0,"x_max":0,"o":""},"E":{"ha":649,"x_min":21,"x_max":606,"o":"m 588 1069 q 599 1068 594 1072 q 606 1057 604 1064 q 603 1035 604 1046 q 600 1013 603 1024 q 600 985 599 999 q 599 958 601 971 q 597 932 596 944 q 596 906 599 919 q 594 878 593 892 q 596 850 594 864 q 595 838 597 843 q 596 825 593 832 q 596 813 599 818 q 590 800 593 807 q 569 792 579 796 q 547 789 558 788 q 526 784 536 792 q 506 781 517 776 q 453 785 479 783 q 401 783 428 788 q 381 783 390 782 q 361 781 372 783 q 340 778 350 778 q 318 776 329 779 q 303 774 311 774 q 286 775 294 775 q 258 770 271 774 q 229 768 244 767 q 207 763 218 767 q 185 757 196 760 q 181 735 182 746 q 185 714 181 725 q 205 709 194 707 q 225 713 215 711 q 247 708 236 707 q 269 708 258 710 q 281 707 275 708 q 292 710 286 706 q 317 703 303 700 q 344 708 332 706 q 356 704 350 711 q 363 651 363 676 q 366 618 367 635 q 365 583 365 601 q 368 544 368 564 q 368 506 368 525 q 365 488 371 496 q 350 476 358 479 q 334 472 343 474 q 317 472 325 469 q 285 481 301 476 q 251 485 268 486 q 236 480 243 485 q 222 472 229 475 q 206 470 215 469 q 190 467 197 471 q 191 442 188 454 q 193 418 194 431 q 192 388 194 403 q 189 357 190 372 q 184 317 188 338 q 192 276 181 296 q 221 276 207 275 q 250 272 235 278 q 278 265 264 267 q 308 263 293 263 q 346 267 328 265 q 383 272 364 268 q 406 269 394 269 q 428 272 417 269 q 453 273 440 271 q 479 276 465 275 q 501 278 490 275 q 522 279 511 282 q 535 281 529 278 q 549 286 542 283 q 552 284 550 285 q 556 282 554 283 q 567 222 567 251 q 569 208 565 215 q 572 194 572 201 q 572 153 574 174 q 568 111 571 132 q 568 56 571 83 q 561 7 569 32 q 554 -1 558 3 q 544 -6 550 -6 q 515 -4 529 -4 q 488 3 501 -4 q 444 10 467 14 q 400 10 422 6 q 369 12 385 14 q 339 8 354 10 q 314 6 326 6 q 289 6 301 7 q 272 8 281 6 q 256 8 264 10 q 237 11 246 8 q 219 13 228 14 q 206 14 213 11 q 193 19 200 17 q 142 24 168 24 q 92 19 117 25 q 69 19 81 18 q 47 28 58 21 q 40 45 40 35 q 39 65 40 56 q 44 84 42 75 q 44 104 47 93 q 44 126 42 115 q 46 149 46 138 q 45 206 39 176 q 50 264 51 235 q 53 291 53 278 q 51 319 53 304 q 50 342 49 331 q 50 364 51 353 q 49 399 51 382 q 50 435 47 417 q 49 465 53 450 q 49 496 46 481 q 47 550 46 524 q 47 603 47 576 q 47 624 46 614 q 49 644 47 633 q 47 683 47 664 q 47 721 46 701 q 49 767 51 742 q 47 809 46 788 q 47 853 49 831 q 44 881 47 868 q 40 910 42 894 q 34 938 35 924 q 28 964 33 951 q 23 988 22 975 q 21 1013 24 1000 q 21 1025 21 1019 q 22 1038 21 1031 q 28 1045 25 1040 q 39 1047 32 1050 q 63 1041 50 1042 q 89 1043 76 1040 q 110 1045 100 1047 q 129 1047 119 1043 q 147 1051 138 1053 q 167 1053 157 1050 q 194 1056 181 1056 q 222 1060 208 1056 q 244 1063 233 1060 q 267 1064 256 1067 q 290 1059 279 1063 q 313 1054 301 1056 q 335 1051 324 1054 q 358 1049 347 1047 q 386 1048 372 1050 q 414 1049 400 1046 q 441 1053 428 1054 q 467 1058 454 1051 q 483 1063 474 1063 q 499 1065 492 1063 q 524 1067 511 1065 q 549 1067 536 1068 q 568 1067 558 1067 q 588 1069 578 1067 z "},"F":{"ha":565,"x_min":32,"x_max":540,"o":"m 61 1069 q 81 1064 72 1071 q 101 1058 90 1057 q 128 1052 115 1057 q 156 1047 142 1047 q 206 1044 181 1044 q 254 1047 231 1044 q 281 1044 268 1050 q 307 1040 293 1039 q 328 1044 318 1038 q 350 1049 339 1050 q 367 1047 358 1049 q 383 1047 375 1044 q 404 1053 394 1049 q 425 1056 414 1057 q 447 1058 436 1054 q 477 1058 463 1058 q 507 1056 492 1058 q 536 1042 525 1058 q 535 1015 536 1028 q 536 988 535 1001 q 538 963 536 975 q 539 939 540 951 q 536 873 533 907 q 535 807 539 839 q 529 792 532 800 q 519 788 526 785 q 501 785 510 789 q 483 779 492 782 q 458 776 471 775 q 433 774 446 778 q 410 775 422 778 q 388 774 399 772 q 367 774 376 774 q 347 772 358 775 q 315 768 332 769 q 282 765 299 767 q 251 763 267 761 q 221 757 236 764 q 214 741 214 750 q 214 722 214 732 q 214 705 213 714 q 218 688 215 696 q 235 685 226 683 q 254 689 244 686 q 282 690 268 690 q 307 682 296 690 q 331 674 318 675 q 354 672 343 674 q 371 665 364 672 q 382 651 378 658 q 381 628 385 640 q 381 604 378 617 q 378 578 382 590 q 374 553 375 565 q 372 532 375 542 q 371 511 369 522 q 369 490 371 500 q 368 468 368 479 q 363 454 368 460 q 354 442 357 449 q 342 443 347 443 q 329 446 336 443 q 294 451 313 454 q 258 454 276 447 q 238 461 247 457 q 218 460 228 465 q 208 403 211 432 q 210 347 206 375 q 213 317 211 332 q 221 286 215 301 q 228 259 226 274 q 233 231 229 244 q 235 195 233 213 q 236 160 238 178 q 238 140 236 149 q 239 121 239 131 q 245 83 242 101 q 243 44 249 64 q 243 31 242 38 q 239 22 244 25 q 223 19 232 15 q 207 21 214 24 q 188 19 197 18 q 171 15 179 19 q 148 9 160 11 q 125 1 136 7 q 89 1 107 1 q 53 3 71 0 q 44 7 47 3 q 36 15 40 11 q 36 28 36 22 q 33 42 36 35 q 36 98 38 69 q 36 154 35 126 q 34 170 36 163 q 33 186 32 178 q 33 246 38 217 q 35 284 32 265 q 36 322 38 303 q 36 384 35 354 q 36 444 38 414 q 34 463 36 454 q 33 481 32 471 q 34 506 36 493 q 33 529 32 518 q 37 560 36 544 q 35 590 38 575 q 33 614 32 601 q 33 638 33 626 q 35 671 36 654 q 36 706 35 688 q 41 740 39 722 q 40 775 43 757 q 42 802 43 789 q 44 829 42 815 q 46 858 47 844 q 46 885 44 871 q 49 929 47 907 q 47 974 50 951 q 49 1001 44 988 q 51 1028 53 1014 q 53 1049 49 1039 q 61 1069 58 1058 z "},"G":{"ha":704,"x_min":25,"x_max":675,"o":"m 269 1074 q 286 1080 278 1076 q 304 1081 294 1083 q 327 1076 315 1079 q 350 1075 339 1074 q 461 1050 408 1064 l 511 1033 q 532 1024 522 1031 q 551 1011 542 1018 q 585 981 571 999 q 615 946 600 963 q 637 896 631 922 q 646 842 643 869 q 648 819 649 831 q 649 794 647 807 q 653 755 651 775 q 660 715 654 735 q 650 706 654 711 q 639 703 646 700 q 614 706 626 707 q 589 703 601 706 q 562 702 575 701 q 533 701 549 703 q 510 703 522 701 q 488 697 499 704 q 479 693 483 696 q 469 693 475 690 q 458 718 457 703 q 454 742 460 731 q 444 765 449 754 q 401 810 433 799 q 371 821 386 815 q 340 822 356 826 q 302 807 315 817 q 269 778 289 797 q 249 746 256 764 q 236 708 243 728 q 230 676 232 693 q 222 642 228 658 q 215 569 221 606 q 210 494 208 532 q 211 477 210 486 q 213 458 213 468 q 217 439 213 447 q 225 419 222 431 q 242 367 231 392 q 268 319 254 343 q 296 280 283 296 q 333 261 308 264 q 367 265 350 264 q 400 274 385 267 q 439 290 422 276 q 453 304 446 297 q 464 321 461 311 q 470 348 472 333 q 471 376 468 363 q 446 382 458 379 q 421 388 433 385 q 393 389 407 390 q 365 388 379 388 q 353 387 358 389 q 343 382 349 385 q 331 417 328 394 q 333 448 333 432 q 335 479 332 464 q 338 501 338 490 q 336 522 339 511 q 336 556 331 542 q 367 553 351 557 q 399 546 383 549 q 472 530 435 535 q 546 525 508 525 q 593 528 569 524 q 640 533 617 532 q 642 532 646 532 q 633 533 639 532 q 623 535 626 535 q 625 533 619 535 q 635 536 631 533 q 646 539 640 539 q 657 510 661 526 q 655 488 654 499 q 656 467 656 478 q 663 379 661 414 q 661 308 664 344 q 663 267 665 290 q 660 224 658 244 q 658 182 663 203 q 658 166 656 174 q 660 151 661 158 q 657 131 657 138 q 658 117 657 124 q 661 101 660 111 q 663 74 663 92 q 665 35 663 54 q 675 -1 668 17 q 670 -6 672 -4 q 665 -11 668 -8 q 653 -12 658 -14 q 642 -10 649 -10 q 616 -6 629 -7 q 590 3 603 -4 q 572 8 582 7 q 553 11 563 8 q 525 14 539 14 q 499 7 511 14 q 488 1 492 4 q 476 -1 483 -3 q 464 10 467 4 q 463 28 460 18 q 474 35 468 32 q 483 44 479 38 q 488 66 486 61 q 490 73 489 71 q 492 80 490 75 q 496 103 493 85 q 458 83 476 93 q 421 63 440 74 q 410 50 414 57 q 399 38 406 43 q 374 33 388 33 q 349 31 361 32 q 307 35 332 28 q 265 46 282 43 q 249 51 256 47 q 233 56 242 56 q 215 58 224 54 q 199 65 207 63 q 180 76 190 72 q 160 88 169 81 q 132 114 149 97 q 108 144 115 131 q 95 167 103 157 q 82 188 88 176 q 65 228 74 207 q 54 271 57 249 q 47 294 49 282 q 40 319 44 307 q 34 373 38 347 q 28 426 31 399 q 27 455 26 442 q 26 482 28 468 q 27 512 29 497 q 28 542 25 526 q 29 556 28 549 q 29 569 31 563 q 27 588 29 579 q 28 607 25 597 q 30 633 32 619 q 33 661 28 647 q 36 683 38 672 q 39 706 35 694 q 42 733 43 719 q 43 763 42 747 q 51 797 46 781 q 58 832 56 814 q 63 854 60 843 q 67 876 65 865 q 75 924 67 900 l 89 946 q 99 962 94 954 q 106 972 103 969 q 125 994 115 983 q 146 1015 135 1004 q 153 1024 149 1021 q 164 1029 158 1026 q 214 1057 182 1046 q 269 1074 246 1068 z "},"H":{"ha":694,"x_min":25,"x_max":669,"o":"m 242 1099 q 252 1101 247 1101 q 263 1097 257 1100 q 260 1076 264 1086 q 256 1056 256 1067 q 256 1033 254 1044 q 254 1010 257 1021 q 253 990 251 1000 q 256 969 256 981 q 257 909 254 939 q 258 849 260 879 q 256 822 254 835 q 256 796 257 810 q 259 763 260 779 q 261 729 258 746 q 260 696 263 713 q 260 663 258 679 q 264 622 267 643 q 268 582 261 601 q 291 571 278 571 q 317 571 304 571 q 344 572 331 569 q 372 571 358 574 q 401 575 388 574 q 429 576 414 576 q 453 582 440 572 q 452 615 454 599 q 447 646 450 631 q 447 667 446 657 q 444 688 447 676 q 444 703 442 694 q 444 718 447 711 q 440 752 442 735 q 435 786 438 769 q 431 824 432 806 q 428 860 429 842 q 427 878 428 869 q 428 897 426 888 q 424 917 424 907 q 422 936 425 926 q 421 964 419 950 q 418 990 422 978 q 417 1010 417 1001 q 417 1031 418 1019 q 418 1056 419 1043 q 419 1082 417 1069 q 429 1092 424 1089 q 442 1099 435 1096 q 447 1086 444 1090 q 494 1083 471 1079 q 542 1090 518 1088 q 567 1093 554 1090 q 594 1094 581 1096 q 609 1097 601 1093 q 624 1103 617 1100 q 625 1057 631 1078 q 624 1023 624 1040 q 624 988 625 1006 q 625 962 622 975 q 625 935 628 949 q 626 913 622 924 q 628 890 629 901 q 628 847 629 868 q 629 804 626 826 q 627 783 626 793 q 629 761 628 772 q 631 738 632 750 q 631 715 629 726 q 635 681 633 697 q 638 646 636 664 q 640 618 642 632 q 642 590 639 604 q 643 565 644 578 q 643 540 642 553 q 646 511 646 525 q 647 482 646 497 q 648 452 646 467 q 650 422 650 438 q 653 397 649 410 q 656 372 657 385 q 656 348 654 360 q 661 324 658 336 q 661 292 661 308 q 663 261 661 276 q 662 235 663 249 q 664 210 661 222 q 666 176 667 193 q 665 143 665 160 q 667 110 668 126 q 668 76 667 93 q 669 49 668 63 q 663 22 669 35 q 645 23 654 22 q 628 22 636 24 q 604 20 617 19 q 579 19 592 21 q 551 18 564 21 q 524 15 538 15 q 499 15 511 14 q 475 17 488 17 q 460 22 468 19 q 446 33 451 25 q 447 58 446 46 q 453 82 449 71 q 453 110 457 96 q 453 139 450 124 q 452 199 454 169 q 453 261 450 229 q 452 297 450 279 q 450 335 454 315 q 451 349 450 342 q 447 363 453 356 q 431 372 440 371 q 414 375 422 372 q 384 378 399 379 q 354 378 369 378 q 329 375 342 375 q 306 372 317 375 q 282 371 294 371 q 258 371 269 371 q 258 351 257 361 q 256 332 258 342 q 255 313 253 322 q 254 293 257 303 q 254 273 251 282 q 254 253 257 264 q 253 215 251 233 q 256 178 256 197 q 253 145 251 163 q 256 111 256 128 q 256 83 257 97 q 258 54 256 68 q 259 40 260 47 q 260 26 258 33 q 233 30 246 24 q 207 32 221 36 q 192 31 200 29 q 176 33 183 33 q 156 31 165 33 q 135 29 146 28 q 113 26 124 31 q 90 19 101 22 q 73 18 82 17 q 56 17 64 19 q 40 19 47 14 q 31 32 33 25 q 29 51 25 42 q 35 71 33 61 q 40 104 42 88 q 40 139 38 121 l 40 199 q 42 230 43 214 q 43 261 42 246 q 46 321 47 292 q 49 381 44 350 q 45 441 46 411 q 47 501 44 471 q 46 554 46 528 q 49 607 46 581 q 51 637 49 622 q 51 667 54 651 q 52 703 51 685 q 50 740 53 721 q 49 809 51 775 q 44 879 46 843 q 47 932 49 906 q 43 985 46 958 q 40 1024 39 1004 q 44 1063 42 1043 q 35 1070 40 1067 q 31 1081 29 1074 q 35 1091 29 1088 q 47 1097 42 1094 q 91 1090 68 1086 q 138 1090 114 1093 q 171 1090 154 1090 q 204 1093 188 1089 q 224 1094 214 1096 q 242 1099 233 1092 z "},"I":{"ha":315,"x_min":40,"x_max":286,"o":"m 226 1092 q 235 1092 231 1092 q 246 1092 240 1093 q 258 1070 253 1082 q 261 1044 264 1058 q 258 1008 258 1026 q 260 971 258 990 q 260 946 263 958 q 257 921 258 933 q 261 808 253 864 q 257 783 264 794 q 253 758 250 772 q 257 732 254 744 q 258 706 260 719 q 259 668 258 686 q 260 631 260 650 q 266 587 263 608 q 272 543 269 565 q 267 490 261 515 q 271 442 274 465 q 267 428 269 435 q 265 415 264 422 q 267 399 265 407 q 267 383 269 392 q 265 351 264 368 q 265 319 267 335 q 264 291 261 304 q 264 263 267 278 q 263 244 261 253 q 267 225 264 235 q 270 194 269 210 q 274 163 271 178 q 276 137 276 150 q 278 111 275 124 q 282 79 282 96 q 285 46 282 63 q 281 33 286 38 q 272 21 275 28 q 243 14 257 24 q 218 3 232 4 q 192 6 204 3 q 141 6 167 8 q 90 -3 115 4 q 76 -4 83 -6 q 67 4 69 -3 q 56 27 61 15 q 50 51 51 39 q 44 88 49 71 q 43 125 40 106 q 44 155 44 140 q 46 185 43 169 q 47 212 46 199 q 51 238 47 225 q 54 267 51 253 q 58 297 57 282 q 60 324 58 311 q 61 351 63 338 q 63 378 60 365 q 63 404 65 390 q 64 431 61 418 q 64 457 67 443 q 61 515 61 486 q 64 574 61 544 q 65 615 63 594 q 60 656 68 636 q 56 674 56 664 q 54 694 56 683 q 53 708 54 701 q 53 721 51 714 q 56 746 57 733 q 57 772 56 758 q 53 831 56 801 q 53 890 51 861 l 53 949 q 49 989 50 968 q 54 1029 49 1010 q 51 1048 47 1036 q 78 1071 56 1060 q 101 1082 89 1078 q 125 1089 113 1086 q 149 1090 136 1088 q 172 1089 161 1093 q 199 1089 186 1090 q 226 1092 213 1088 z "},"J":{"ha":694,"x_min":35,"x_max":667,"o":"m 433 1081 q 456 1081 447 1078 q 472 1087 464 1083 q 488 1092 479 1090 q 510 1092 496 1094 q 526 1090 518 1089 q 542 1085 535 1092 q 587 1078 565 1082 q 632 1075 608 1074 q 636 1060 633 1067 q 639 1044 639 1053 q 641 1022 639 1033 q 642 1000 643 1011 q 642 975 642 988 q 644 950 643 963 q 657 919 647 933 q 664 886 667 904 q 656 825 667 854 q 649 764 646 796 q 648 733 649 749 q 649 700 647 717 q 645 667 649 683 q 644 635 642 651 q 645 600 647 617 q 643 565 643 583 q 646 526 644 546 q 651 486 647 506 q 653 431 658 458 q 642 376 647 404 q 642 352 642 365 q 640 328 643 339 q 640 292 639 310 q 638 257 640 275 q 631 177 635 217 q 608 101 628 138 q 600 79 603 90 q 590 57 597 68 q 576 49 585 50 q 561 49 568 49 q 541 33 553 38 q 518 21 529 28 q 469 13 494 14 q 419 4 443 11 q 397 0 408 1 q 375 -4 386 -1 q 360 -2 368 -4 q 346 -4 353 0 q 317 1 331 -4 q 289 11 303 6 q 263 19 276 18 q 238 24 250 19 q 182 26 213 31 q 156 26 169 22 q 132 38 143 31 q 126 44 128 40 q 122 51 125 49 q 106 83 115 68 q 92 117 97 97 q 81 162 81 138 q 69 207 81 186 q 57 234 63 221 q 49 263 51 247 q 40 289 46 276 q 36 317 35 301 q 35 342 36 329 q 38 368 35 356 q 39 379 40 374 q 36 392 38 385 q 42 413 39 403 q 42 433 44 422 q 39 469 36 451 q 43 504 42 486 q 49 535 49 519 q 49 565 50 550 q 51 578 49 572 q 60 582 53 583 q 83 581 71 582 q 106 581 94 581 q 128 576 117 576 q 150 575 139 575 q 165 569 158 576 q 182 567 172 563 q 199 571 193 572 q 218 572 206 569 q 231 566 226 575 q 239 550 236 557 q 242 522 244 536 q 239 494 239 508 q 240 474 239 486 q 244 449 242 463 q 247 423 246 435 q 249 403 249 411 q 245 379 250 390 q 242 356 240 368 q 246 333 240 344 q 254 311 251 322 q 276 293 260 299 q 304 282 293 288 q 317 276 311 279 q 329 275 322 274 q 345 279 338 278 q 360 281 353 281 q 368 285 365 282 q 374 293 371 289 q 383 301 375 297 q 399 310 390 306 q 414 318 407 314 q 424 326 421 322 q 429 337 426 332 q 433 349 432 342 q 435 365 435 357 q 436 381 435 372 q 433 401 439 392 q 432 421 428 410 l 428 429 q 427 460 431 443 q 418 494 424 476 q 408 530 413 513 q 400 560 403 547 q 406 582 403 571 q 410 606 410 593 q 410 629 410 617 q 413 653 411 642 q 413 701 413 676 q 411 750 413 725 q 406 770 411 761 q 404 790 401 779 q 406 818 407 804 q 408 846 406 832 q 412 860 410 853 q 411 874 414 867 q 410 895 408 885 q 410 917 411 906 q 410 939 407 928 q 411 961 414 950 q 408 983 408 972 q 406 1004 408 993 q 403 1032 401 1018 q 408 1060 406 1046 q 418 1074 411 1069 q 433 1081 425 1079 z "},"K":{"ha":778,"x_min":32,"x_max":757,"o":"m 296 1092 q 306 1091 301 1094 q 314 1085 310 1088 q 315 1072 317 1078 q 314 1060 314 1067 q 312 1006 311 1032 q 311 954 313 981 q 310 911 314 932 q 304 869 307 890 q 297 840 301 854 q 292 810 293 825 q 291 797 292 803 q 289 783 290 790 q 300 801 296 792 q 311 821 304 811 q 323 851 319 835 q 335 881 326 867 q 338 899 336 890 q 344 914 339 907 q 354 942 351 928 q 364 969 357 956 q 372 986 367 978 q 379 1004 376 994 q 383 1019 382 1011 q 392 1033 385 1028 q 390 1041 390 1038 q 389 1049 390 1044 q 394 1056 392 1051 q 400 1063 397 1060 q 427 1052 413 1051 q 457 1049 442 1053 q 482 1056 469 1053 q 508 1057 494 1058 q 535 1058 522 1058 q 561 1054 547 1057 q 595 1051 578 1050 q 631 1051 613 1051 q 668 1049 651 1047 q 682 1038 675 1044 q 685 1021 689 1031 q 672 999 678 1010 q 658 979 665 989 q 649 960 651 969 q 640 940 646 950 q 632 923 635 932 q 624 906 629 914 q 598 857 610 882 q 571 810 586 832 q 562 793 565 801 q 551 778 558 785 q 542 762 546 771 q 533 746 539 753 q 519 724 526 735 q 506 700 511 714 q 481 655 493 678 q 458 608 469 632 q 449 594 454 600 q 440 579 443 588 q 428 558 433 568 q 415 536 422 547 q 427 533 421 532 q 440 537 433 535 q 451 539 446 539 q 463 533 457 539 q 496 513 475 517 q 506 505 503 511 q 515 496 508 499 q 533 486 524 490 q 547 472 542 482 q 559 454 553 463 q 571 436 565 446 q 585 414 578 425 q 594 389 592 403 q 605 363 597 375 q 617 338 613 351 q 638 268 629 306 q 656 257 646 261 q 676 246 667 253 q 690 242 683 246 q 704 242 697 239 q 724 245 714 247 q 744 240 735 243 q 753 230 750 238 q 753 215 757 222 q 744 185 747 200 q 742 154 740 169 q 740 123 744 139 q 736 92 736 107 q 733 69 736 81 q 732 46 729 57 q 732 29 735 38 q 731 13 729 21 q 729 -2 731 6 q 721 -15 728 -10 q 714 -23 717 -18 q 708 -32 711 -28 q 688 -35 697 -31 q 667 -33 678 -39 q 615 -19 640 -25 q 561 -10 589 -14 q 538 -2 550 -6 q 514 8 525 1 q 497 19 506 15 q 478 26 488 22 q 457 28 468 29 q 439 38 446 28 q 440 58 439 49 q 438 78 440 68 q 436 143 429 113 q 433 160 436 151 q 433 179 431 169 q 438 244 444 211 q 424 307 431 276 q 401 351 418 332 q 365 381 385 369 q 351 383 358 383 q 338 386 344 383 q 308 385 322 389 q 279 383 294 382 q 263 378 269 385 q 249 364 256 371 q 247 340 250 351 q 240 315 243 328 q 241 293 238 304 q 243 271 244 282 q 243 240 242 256 q 244 210 244 225 q 250 183 247 196 q 256 156 253 169 q 258 133 258 144 q 261 110 258 121 q 265 78 264 94 q 265 46 265 61 q 262 25 265 35 q 254 7 258 15 q 221 -1 238 4 q 197 -3 208 0 q 172 -4 185 -7 q 150 -6 161 -3 q 128 -13 139 -10 q 106 -18 117 -17 q 83 -14 94 -19 q 65 0 72 -11 q 44 10 57 11 q 37 13 42 11 q 33 19 32 14 q 33 34 32 26 q 39 47 33 42 q 44 78 49 61 q 44 111 40 96 q 46 133 47 122 q 47 156 44 144 q 51 188 51 171 q 51 221 51 204 q 55 276 54 249 q 53 331 56 303 q 56 389 56 360 q 56 447 56 418 q 56 565 60 506 q 56 592 58 579 q 56 619 54 606 q 58 651 58 635 q 54 683 58 668 q 54 710 54 697 q 57 735 54 722 q 57 753 60 744 q 54 772 54 763 q 56 797 56 785 q 53 822 56 810 q 49 860 51 842 q 46 899 46 879 q 48 926 43 914 q 51 954 53 939 q 53 997 51 975 q 56 1039 54 1018 q 45 1048 50 1043 q 42 1060 40 1053 q 45 1071 40 1067 q 53 1081 50 1075 q 62 1074 57 1078 q 72 1074 67 1071 q 93 1074 83 1076 q 113 1071 103 1072 q 138 1068 125 1068 q 163 1069 150 1068 q 188 1076 175 1075 q 215 1082 201 1078 q 242 1088 229 1085 q 271 1089 256 1090 q 283 1089 278 1088 q 296 1092 289 1090 z "},"L":{"ha":667,"x_min":53,"x_max":629,"o":"m 143 1092 q 167 1094 156 1093 q 190 1099 179 1096 q 221 1098 206 1100 q 247 1083 236 1096 q 259 1065 253 1075 q 264 1044 265 1056 q 263 997 257 1021 q 265 950 268 974 q 264 908 261 929 q 261 867 267 888 q 260 833 261 850 q 263 801 260 817 q 260 780 261 790 q 261 758 260 769 q 260 719 261 739 q 264 679 258 699 q 265 654 264 667 q 267 629 265 642 q 267 604 269 617 q 267 579 265 592 q 263 514 269 547 q 263 447 256 481 q 260 416 260 432 q 257 385 260 400 q 256 365 254 374 q 256 344 258 356 q 259 310 253 332 q 272 279 265 289 q 284 281 278 282 q 297 278 290 281 q 309 276 303 276 q 321 278 315 275 q 356 286 338 286 q 393 282 375 286 q 403 282 399 281 q 415 282 408 283 q 444 276 426 276 q 472 268 461 275 q 514 268 497 265 q 557 274 531 271 q 578 277 568 278 q 600 282 589 276 q 611 278 607 285 q 619 265 615 271 q 625 242 626 254 q 625 219 624 231 q 625 191 628 203 q 621 163 622 179 q 626 108 628 135 q 629 54 624 81 q 628 31 629 43 q 625 7 628 18 q 608 3 618 1 q 590 1 599 4 q 567 0 579 -1 q 543 -1 554 1 q 518 -3 531 -4 q 493 -3 506 -3 q 459 -1 476 0 q 425 3 442 -1 q 371 8 397 10 q 318 7 344 6 q 305 6 311 8 q 292 7 299 4 q 269 15 281 11 q 244 18 257 19 q 217 21 231 15 q 190 24 204 26 q 161 22 175 22 q 132 21 147 22 q 110 18 121 18 q 89 14 100 18 q 74 17 82 15 q 63 28 65 18 q 58 75 53 51 q 60 122 63 99 q 63 153 63 138 q 68 185 64 169 q 68 201 71 193 q 68 215 65 208 q 70 237 71 226 q 69 258 69 247 q 71 276 68 268 q 75 294 74 285 q 74 314 72 304 q 74 335 75 324 l 74 389 q 70 415 72 401 q 71 440 68 428 q 69 499 68 469 q 67 556 71 528 q 66 587 65 571 q 67 618 67 603 q 66 649 67 633 q 69 679 65 664 q 69 712 69 696 q 71 743 68 728 q 71 763 74 754 q 71 783 68 772 q 73 806 74 794 q 72 829 72 818 q 73 900 74 865 q 74 971 72 935 q 69 996 71 983 q 67 1022 67 1008 q 63 1040 67 1032 q 60 1057 60 1047 q 72 1067 65 1064 q 85 1076 78 1071 q 99 1076 92 1072 q 113 1082 106 1081 q 127 1089 119 1085 q 143 1092 135 1093 z "},"M":{"ha":935,"x_min":51,"x_max":914,"o":"m 801 1129 q 817 1133 810 1129 q 833 1135 825 1138 q 850 1132 842 1132 q 865 1129 858 1132 q 883 1124 874 1126 q 899 1114 892 1122 q 899 1087 901 1100 q 893 1060 896 1074 q 894 1022 893 1040 q 893 983 894 1003 q 890 948 889 965 q 890 914 890 931 q 890 891 889 903 q 893 868 892 879 q 890 836 890 853 q 892 804 889 819 q 894 774 894 789 q 892 743 893 758 q 890 711 889 728 q 888 679 890 694 q 887 642 886 660 q 888 604 888 624 q 889 588 886 596 q 889 572 892 581 q 887 542 886 557 q 886 513 888 528 q 887 473 888 493 q 890 433 886 453 q 890 401 892 418 q 890 368 889 385 q 896 331 893 349 q 903 293 899 313 q 906 265 906 279 q 908 238 906 251 q 911 217 908 226 q 913 197 914 208 q 909 156 910 176 q 911 114 908 135 q 911 97 913 106 q 908 79 910 89 q 906 72 908 75 q 903 67 904 69 q 906 58 904 63 q 904 47 907 53 q 899 39 903 42 q 892 33 896 36 q 874 39 883 42 q 853 38 864 36 q 806 33 829 32 q 760 36 783 33 q 722 31 740 33 q 683 31 703 28 q 643 56 661 39 q 638 74 638 64 q 642 93 639 85 q 646 128 647 111 q 646 164 644 146 q 642 221 642 190 q 641 244 644 232 q 640 268 638 257 q 640 338 644 303 q 642 351 640 344 q 643 365 643 358 q 644 399 646 382 q 644 433 642 417 q 646 462 646 449 q 647 490 646 475 q 647 542 651 515 q 641 601 647 572 q 633 661 635 631 q 619 605 626 633 q 610 547 613 576 q 601 490 610 518 q 586 435 593 463 q 581 404 582 419 q 578 374 579 389 q 575 349 579 361 q 568 325 571 338 q 561 304 565 314 q 554 283 557 294 q 546 263 551 272 q 536 244 540 254 q 531 217 532 231 q 528 188 529 203 q 527 161 528 175 q 521 136 526 147 q 514 89 524 111 q 501 43 504 67 q 491 38 497 36 q 479 43 485 40 q 455 50 468 50 q 429 49 442 50 q 394 51 411 51 q 360 60 376 51 q 339 92 349 74 q 333 107 333 99 q 331 124 333 115 q 326 138 329 131 q 321 151 324 144 q 322 185 319 168 q 328 217 325 201 q 316 247 321 232 q 306 278 311 263 q 303 301 300 289 q 299 325 306 314 q 294 342 294 333 q 290 361 293 351 q 285 389 286 375 q 278 414 285 403 q 267 453 271 433 q 257 493 264 474 q 258 431 251 461 q 261 369 264 401 q 258 320 261 344 q 258 272 254 296 q 260 234 260 253 q 264 196 261 215 q 267 159 267 178 q 265 121 268 140 q 265 76 263 99 q 258 31 267 53 q 238 22 249 25 q 217 19 228 18 q 191 18 204 21 q 165 13 178 15 q 138 12 151 11 q 113 19 125 13 q 83 28 99 28 q 56 40 67 28 q 56 69 56 56 q 58 96 56 82 q 56 117 57 107 q 58 138 54 128 q 60 156 63 147 q 60 175 57 165 q 64 208 63 190 q 68 242 65 225 q 69 278 72 260 q 71 314 67 296 q 72 360 74 338 q 74 406 69 382 q 73 431 75 418 q 71 457 71 443 q 68 514 71 485 q 63 571 65 543 q 60 615 61 593 q 58 658 58 636 q 56 677 58 668 q 56 697 54 686 q 54 720 57 708 q 54 743 51 732 q 58 778 56 761 q 58 813 60 794 q 61 829 57 821 q 65 846 65 838 q 67 875 65 861 q 72 903 69 889 q 68 957 67 931 q 72 1011 69 983 q 76 1035 75 1022 q 85 1058 78 1047 q 108 1058 96 1058 q 131 1063 119 1058 q 161 1069 146 1069 q 192 1065 176 1068 q 223 1064 207 1067 q 254 1061 239 1061 q 276 1060 265 1061 q 297 1069 288 1060 q 310 1063 304 1064 q 322 1060 315 1061 q 347 1015 339 1040 q 365 967 356 990 q 376 934 368 950 q 386 901 383 918 q 392 880 388 890 q 399 858 397 869 q 403 833 401 846 q 411 807 406 819 q 418 765 411 785 q 431 725 425 746 q 439 694 436 710 q 449 665 442 679 q 457 639 451 651 q 463 611 463 626 q 467 588 465 600 q 476 567 469 576 q 485 590 485 578 q 493 614 486 603 q 499 638 499 625 q 504 661 500 650 q 510 692 508 676 q 518 721 511 707 q 521 739 522 729 q 524 757 519 749 q 535 786 531 771 q 538 817 539 801 q 539 833 536 825 q 546 848 542 840 q 553 863 550 856 q 557 878 557 869 q 565 914 558 897 q 571 949 572 931 q 574 969 572 960 q 575 988 575 978 q 582 1013 579 1000 q 592 1039 585 1026 q 600 1077 594 1058 q 618 1111 606 1096 q 627 1110 624 1114 q 633 1103 631 1106 q 649 1115 638 1107 q 669 1114 660 1108 q 689 1122 678 1119 q 708 1123 699 1122 q 728 1126 718 1124 q 744 1126 736 1129 q 760 1125 751 1124 q 781 1126 771 1124 q 801 1129 790 1129 z "},"N":{"ha":749,"x_min":19,"x_max":713,"o":"m 625 1139 q 653 1144 639 1144 q 679 1146 667 1143 q 692 1144 686 1146 q 706 1140 699 1142 q 710 1126 708 1133 q 711 1113 713 1119 q 709 1085 708 1099 q 710 1057 710 1071 q 709 1010 707 1033 q 710 963 711 986 q 709 931 708 947 q 707 900 710 915 q 707 819 704 860 q 704 738 710 778 q 701 708 700 722 q 699 679 701 694 q 697 651 696 665 q 694 624 697 638 q 694 592 692 608 q 699 560 696 575 q 697 544 701 551 q 693 526 692 536 q 692 488 694 507 q 692 450 689 469 q 691 420 694 435 q 690 390 688 406 q 694 345 694 368 q 696 299 693 322 q 693 260 699 279 q 694 221 688 240 q 695 193 699 207 q 694 165 692 179 q 697 129 699 147 q 694 93 694 111 q 697 64 697 78 q 699 35 696 50 q 688 4 703 17 q 678 6 682 3 q 668 7 674 10 q 647 4 657 4 q 626 1 638 4 q 605 8 615 4 q 583 8 594 11 q 557 9 569 6 q 531 11 544 13 q 509 15 519 10 q 488 17 499 21 q 471 17 479 14 q 456 22 463 19 q 440 34 447 28 q 428 51 432 40 q 420 78 421 63 q 417 107 419 93 q 406 141 410 124 q 397 175 403 158 q 392 199 396 188 q 383 222 388 211 q 376 239 381 232 q 369 253 372 246 q 361 293 369 276 q 353 320 354 306 q 344 347 351 335 q 335 363 340 356 q 328 381 329 371 q 314 423 322 403 q 299 464 306 443 q 292 480 296 472 q 288 496 288 488 q 281 515 286 507 q 272 535 275 524 q 244 593 264 568 q 243 547 240 572 q 240 519 242 533 q 238 490 238 506 q 238 447 239 468 q 238 403 236 425 q 238 374 239 388 q 239 344 236 360 q 240 310 242 328 q 242 275 239 293 q 242 257 244 265 q 242 239 240 249 q 245 198 240 218 q 247 158 250 178 q 250 128 246 143 q 251 97 254 113 q 251 66 250 82 q 249 35 251 50 q 249 7 247 22 q 240 -18 251 -8 q 226 -31 235 -28 q 208 -32 217 -33 q 188 -31 197 -29 q 168 -35 178 -33 q 140 -39 153 -36 q 111 -42 126 -42 q 86 -35 99 -36 q 60 -32 74 -35 q 45 -19 49 -31 q 36 1 42 -7 q 31 22 29 11 q 31 42 32 32 q 31 80 32 61 q 31 118 31 99 q 30 142 32 131 q 29 167 28 154 q 27 194 29 181 q 28 221 25 207 q 23 254 26 238 q 22 288 19 271 q 25 313 25 300 q 28 338 25 325 q 26 353 29 346 q 25 369 24 361 q 25 397 25 383 q 28 425 25 411 q 27 453 29 439 q 25 481 25 467 q 24 511 24 496 q 22 542 25 526 q 26 615 28 578 q 26 690 24 653 q 27 715 29 703 q 25 740 25 728 q 26 757 24 749 q 28 774 29 765 q 28 812 28 793 q 33 850 29 831 q 35 883 36 867 q 38 915 33 899 q 41 945 40 931 q 42 975 42 960 q 41 1003 43 989 q 44 1029 39 1017 q 46 1042 47 1036 q 44 1053 44 1047 q 52 1062 47 1060 q 63 1065 57 1064 q 92 1067 78 1067 q 122 1074 107 1068 q 140 1072 131 1076 q 157 1072 149 1068 q 176 1071 167 1076 q 194 1068 185 1065 q 215 1071 206 1071 q 235 1069 225 1071 q 256 1065 246 1064 q 276 1064 265 1067 q 303 1053 290 1060 q 331 1039 317 1046 q 361 1015 349 1032 q 376 978 374 999 q 385 949 381 963 q 397 921 390 935 q 407 899 403 910 q 415 876 411 888 q 436 835 426 856 q 453 790 446 814 q 460 764 458 778 q 467 738 463 750 q 476 705 471 721 q 483 672 481 689 q 485 652 485 663 q 490 632 486 642 q 496 634 493 633 q 499 640 499 635 q 501 663 500 651 q 500 686 501 675 q 504 722 504 704 q 503 757 504 739 q 500 782 500 769 q 497 806 500 794 q 496 835 494 821 q 494 864 497 849 q 494 895 492 879 q 494 926 497 911 q 494 947 493 938 q 493 968 494 957 q 481 1021 485 994 q 481 1048 483 1035 q 479 1075 478 1061 q 476 1085 478 1081 q 475 1096 475 1090 q 481 1106 478 1101 q 489 1114 483 1111 q 517 1112 503 1111 q 544 1119 531 1113 q 558 1126 551 1122 q 574 1129 565 1129 q 599 1132 586 1131 q 625 1139 613 1133 z "},"O":{"ha":743,"x_min":50,"x_max":708,"o":"m 326 1106 q 344 1106 335 1107 q 361 1107 353 1106 q 383 1100 372 1104 q 406 1094 394 1096 q 442 1088 425 1092 q 479 1083 460 1085 q 499 1077 490 1082 q 517 1071 507 1072 q 531 1067 524 1068 q 544 1060 539 1067 q 576 1036 560 1046 q 596 1019 588 1029 q 613 1001 604 1010 q 620 990 618 996 q 625 976 622 983 q 632 964 628 969 q 640 953 636 958 q 642 944 643 949 q 643 935 640 939 q 653 913 647 924 q 661 890 658 901 q 669 863 664 876 q 676 836 674 850 q 684 812 679 824 q 689 788 689 800 q 692 763 692 775 q 696 739 693 750 q 698 725 699 732 q 700 711 697 718 q 708 636 708 674 q 707 606 706 621 q 707 575 708 590 q 706 553 708 564 q 707 532 704 543 q 703 505 706 518 q 701 478 701 492 q 695 434 700 456 q 692 390 690 413 q 690 364 689 378 q 686 338 690 350 q 685 320 685 329 q 682 304 686 311 q 674 276 676 290 q 664 249 672 261 q 645 201 650 226 q 633 153 640 176 q 623 124 626 139 q 613 94 619 110 q 599 78 606 86 q 586 61 593 69 q 576 53 582 56 q 564 49 569 51 q 538 34 551 40 q 511 22 525 28 q 493 15 501 19 q 474 8 485 10 q 451 6 463 6 q 426 4 439 7 q 363 7 397 3 q 341 8 351 8 q 319 10 331 7 q 276 19 297 13 q 238 40 256 26 q 207 65 222 56 q 172 99 188 81 q 142 136 157 117 q 129 162 136 150 q 117 188 122 174 q 101 225 110 207 q 90 263 93 243 q 81 288 86 276 q 74 314 76 300 q 69 334 72 325 q 65 354 67 343 q 58 385 63 369 q 54 415 53 400 q 54 456 54 436 q 53 497 54 476 q 53 513 50 504 q 53 528 56 521 q 53 548 50 539 q 53 568 56 557 q 51 600 50 583 q 54 632 53 617 q 51 664 51 647 q 51 696 51 681 q 53 715 51 706 q 57 732 56 724 q 56 751 57 742 q 58 768 56 760 q 65 800 64 783 q 68 833 65 817 q 74 852 69 843 q 76 871 78 861 q 90 917 76 897 q 110 961 103 938 q 118 983 113 972 q 128 1004 124 993 q 156 1035 139 1024 q 193 1056 174 1047 q 217 1072 204 1065 q 243 1085 231 1078 q 326 1106 282 1106 m 274 872 q 265 860 268 867 q 258 849 263 854 q 249 830 251 840 q 242 808 246 819 q 232 763 235 786 q 224 717 229 740 q 220 691 221 704 q 215 667 219 678 q 213 638 213 651 q 208 610 213 624 q 207 597 207 603 q 206 585 207 592 q 203 540 203 563 q 204 496 204 518 q 208 465 204 481 q 214 432 211 449 q 217 419 215 425 q 222 407 218 413 q 232 383 229 396 q 240 358 235 369 q 262 313 250 335 q 292 272 274 290 q 305 269 299 269 q 317 265 311 269 q 340 255 326 256 q 365 251 353 254 q 388 251 376 249 q 411 256 400 253 q 449 286 431 269 q 481 325 468 303 q 496 375 496 349 q 503 428 496 401 q 513 460 506 444 q 519 493 519 476 q 519 522 519 508 q 521 549 519 535 q 519 571 518 560 q 515 593 519 582 q 515 605 513 600 q 517 617 517 610 q 515 637 519 628 q 510 657 510 646 q 505 683 506 669 q 500 708 504 696 q 497 734 496 721 q 496 758 499 747 q 490 776 496 769 q 481 792 483 782 q 472 808 476 800 q 465 826 468 817 q 429 864 454 854 q 403 875 417 871 q 376 882 390 879 q 347 886 361 885 q 318 886 333 888 q 295 883 306 889 q 274 872 285 876 z "},"P":{"ha":713,"x_min":50,"x_max":688,"o":"m 257 1090 q 276 1090 267 1093 q 294 1089 285 1088 q 347 1076 321 1082 q 401 1072 374 1069 q 423 1075 413 1076 q 444 1076 433 1074 q 469 1076 457 1076 q 493 1069 482 1076 q 510 1058 501 1063 q 529 1050 518 1053 q 548 1038 540 1046 q 567 1026 556 1029 q 588 1013 578 1021 q 603 992 597 1004 q 622 954 611 972 q 643 917 633 936 q 656 892 654 906 q 663 865 657 878 q 667 847 665 856 q 671 828 668 838 q 679 798 675 813 q 686 768 683 783 q 687 739 686 753 q 685 710 688 725 q 676 647 682 678 q 665 583 671 615 q 660 568 665 575 q 653 553 656 561 q 644 529 649 542 q 632 506 639 517 q 613 488 622 496 q 594 468 603 479 q 566 440 582 451 q 533 418 550 429 q 503 394 519 403 q 468 378 486 385 q 438 369 453 371 q 407 364 422 368 q 392 361 400 361 q 376 360 383 361 q 355 350 365 354 q 333 344 344 346 q 306 344 319 344 q 281 338 292 344 q 277 326 276 332 q 276 314 278 321 q 280 267 275 290 q 289 219 285 243 q 293 187 289 203 q 296 154 297 171 q 297 125 294 139 q 301 97 299 111 q 301 76 304 86 q 299 56 299 67 q 286 31 299 43 q 263 23 275 28 q 238 19 250 18 q 213 17 226 18 q 189 24 200 15 q 168 31 179 31 q 147 26 157 32 q 133 24 140 24 q 118 21 125 25 q 101 11 108 18 q 86 -3 93 4 q 76 -1 81 -3 q 65 1 71 1 q 56 24 61 13 q 53 49 50 36 q 57 67 51 60 q 65 85 63 75 q 66 99 69 92 q 64 114 63 107 q 63 131 67 122 q 63 149 60 139 q 65 167 65 158 q 63 186 64 176 q 71 253 68 219 q 67 322 74 288 q 65 335 65 329 q 67 346 64 340 q 68 371 69 358 q 71 396 67 383 q 77 457 78 426 q 82 519 76 488 q 86 547 85 533 q 86 574 88 560 q 78 585 78 576 q 76 601 78 594 q 79 631 78 617 q 79 661 81 646 q 88 664 82 661 q 88 694 88 679 q 85 725 88 710 q 78 755 82 740 q 76 785 75 769 q 78 810 76 796 q 76 836 79 824 q 69 864 74 851 q 67 883 65 876 q 64 913 64 899 q 63 943 64 928 q 65 969 65 957 q 67 996 65 982 q 67 1027 67 1011 q 78 1054 67 1043 q 93 1067 83 1064 q 113 1072 103 1069 q 169 1080 151 1078 q 192 1083 186 1082 q 199 1083 199 1083 q 201 1083 199 1083 q 215 1085 204 1083 q 257 1090 226 1086 m 222 925 q 224 906 224 915 q 228 886 225 896 q 229 856 231 871 q 231 825 228 840 q 230 798 228 811 q 231 771 232 785 q 231 739 231 756 q 236 707 231 722 q 242 681 240 694 q 249 656 243 668 q 253 624 256 640 q 254 590 251 607 q 256 567 257 579 q 256 542 256 554 q 262 521 256 528 q 271 503 268 514 q 283 507 278 507 q 296 508 289 507 q 315 513 306 511 q 333 521 325 514 q 358 533 344 531 q 382 543 371 536 q 401 553 393 546 q 417 567 408 560 q 435 588 426 576 q 449 614 443 599 q 456 644 456 629 q 456 675 456 660 q 455 701 456 689 q 456 726 454 714 q 457 753 461 740 q 450 779 453 767 q 443 801 449 792 q 431 821 438 811 q 415 840 424 832 q 399 858 406 847 q 383 878 392 868 q 364 894 375 888 q 322 913 343 906 q 279 925 301 921 q 250 922 264 925 q 222 925 236 919 z "},"Q":{"ha":732,"x_min":26,"x_max":713,"o":"m 360 1076 q 376 1076 368 1079 q 392 1074 383 1072 q 408 1071 400 1075 q 424 1069 415 1067 q 484 1052 454 1063 q 543 1033 514 1042 q 556 1025 550 1031 q 567 1013 561 1019 q 597 992 581 999 q 626 971 614 985 q 638 953 633 963 q 651 935 643 943 q 663 915 658 925 q 671 893 668 904 q 678 876 674 883 q 686 860 683 869 q 697 838 689 849 q 706 815 704 828 q 713 778 713 797 q 710 742 713 760 q 711 708 713 725 q 708 674 710 690 q 706 638 704 656 q 706 600 707 619 q 703 575 703 588 q 701 551 704 563 q 699 530 699 540 q 699 508 700 519 q 696 474 696 490 q 693 439 696 457 q 690 413 690 426 q 685 388 690 400 q 676 360 679 374 q 671 331 674 346 q 662 308 665 319 q 653 285 658 296 q 643 262 646 274 q 633 239 640 250 q 611 200 622 222 q 597 184 604 192 q 583 167 590 176 q 558 150 572 154 q 549 135 557 139 q 539 122 542 132 q 534 112 536 117 q 535 101 532 107 q 549 83 540 90 q 564 65 557 76 q 580 52 571 57 q 594 36 589 47 q 606 18 600 26 q 617 0 611 10 q 628 -29 624 -14 q 644 -56 633 -44 q 655 -62 650 -58 q 665 -69 660 -65 l 665 -93 q 658 -100 663 -97 q 649 -106 653 -103 q 635 -101 642 -103 q 622 -107 628 -100 q 604 -126 613 -117 q 586 -147 596 -136 q 575 -165 579 -156 q 564 -183 571 -175 q 549 -202 557 -193 q 536 -222 542 -211 q 532 -236 533 -229 q 526 -249 531 -243 q 518 -254 524 -254 q 510 -250 513 -254 q 492 -233 503 -239 q 474 -218 482 -226 q 459 -203 465 -211 q 446 -189 453 -196 q 433 -178 440 -182 q 419 -167 425 -174 q 408 -150 413 -160 q 397 -132 404 -140 q 388 -111 392 -121 q 376 -94 383 -101 q 364 -70 369 -82 q 356 -44 358 -58 q 349 -23 356 -32 q 335 -4 342 -14 q 286 11 311 7 q 238 8 261 15 q 225 15 229 7 q 214 26 221 24 q 203 42 206 33 q 197 58 200 50 q 167 99 183 83 q 158 113 160 106 q 151 128 157 121 q 140 144 144 136 q 129 161 135 153 q 114 185 122 174 q 99 210 106 197 q 83 239 92 225 q 71 269 74 253 q 49 340 60 306 q 32 411 39 375 q 29 437 32 424 q 31 461 26 450 q 33 488 35 475 q 35 514 32 501 q 41 541 39 528 q 47 568 43 554 q 53 593 50 581 q 50 617 56 606 q 56 633 56 628 q 63 655 58 644 q 64 676 68 665 q 63 694 61 685 q 65 711 65 703 q 70 715 68 714 q 75 719 72 717 q 74 742 76 731 q 79 764 72 754 q 96 819 89 792 q 117 872 103 847 q 124 894 122 883 q 131 914 125 904 q 149 947 143 929 q 167 982 156 965 q 173 994 171 988 q 178 1008 175 1001 q 185 1015 181 1013 q 193 1022 190 1018 q 199 1031 196 1026 q 204 1040 201 1036 q 225 1051 214 1047 q 247 1060 236 1056 q 270 1065 258 1063 q 294 1067 282 1068 q 316 1070 306 1071 q 338 1072 326 1069 q 349 1074 343 1074 q 360 1076 354 1074 m 321 875 q 313 861 314 869 q 306 849 313 853 q 286 828 294 839 q 274 803 278 817 q 263 782 268 792 q 251 761 257 772 q 231 704 235 735 q 225 643 228 674 q 215 615 219 629 q 204 588 211 601 q 192 555 197 572 q 194 521 188 538 q 207 468 201 494 q 228 418 213 442 q 237 394 235 407 q 244 368 239 381 q 256 347 251 357 q 269 328 261 336 q 290 309 279 317 q 313 294 301 301 q 323 294 318 294 q 333 296 328 293 q 321 311 329 306 q 310 326 313 317 q 301 341 306 333 q 294 357 297 349 q 288 369 292 364 q 278 378 283 374 q 280 388 279 383 q 282 397 281 392 q 296 407 289 401 q 311 406 303 413 q 322 412 317 408 q 331 422 326 415 q 344 422 338 422 q 357 426 351 422 q 372 434 364 433 q 388 442 381 435 q 400 449 393 447 q 414 454 407 451 q 453 449 435 464 q 453 439 453 443 q 454 429 454 435 q 468 413 464 422 q 474 393 472 404 q 478 371 476 382 q 488 351 481 360 q 494 364 490 358 q 500 375 497 369 q 506 397 503 386 q 511 419 508 408 q 516 432 514 426 q 519 444 518 438 q 524 463 519 454 q 528 483 528 472 q 533 506 526 494 q 536 528 539 517 q 531 544 533 536 q 528 561 528 553 q 526 582 528 572 q 522 603 524 592 q 528 633 529 618 q 525 663 528 647 q 515 688 519 675 q 506 711 511 700 q 497 726 503 719 q 493 742 490 732 q 492 756 496 749 q 488 771 489 764 q 474 783 482 775 q 457 808 463 794 q 444 835 451 822 q 435 853 439 844 q 422 868 432 863 q 403 885 413 876 q 381 893 393 893 q 349 890 365 894 q 321 875 332 886 z "},"R":{"ha":774,"x_min":28,"x_max":760,"o":"m 210 1088 q 267 1088 239 1089 q 324 1088 296 1088 q 358 1087 342 1090 q 392 1078 375 1083 q 409 1076 400 1075 q 426 1075 418 1076 q 507 1051 468 1067 q 586 1022 546 1035 q 599 1015 593 1019 q 611 1008 604 1011 q 624 996 619 1003 q 633 981 629 989 q 648 955 640 968 q 664 929 656 942 q 670 903 665 915 q 676 878 675 892 q 681 849 678 863 q 685 821 683 836 q 685 801 683 810 q 689 781 686 792 q 687 765 689 774 q 688 749 685 757 q 675 696 686 721 q 653 646 664 671 q 631 605 642 625 q 608 565 621 585 q 597 551 603 558 q 585 538 590 544 q 560 508 574 522 q 538 478 547 494 q 553 464 546 471 q 571 450 561 457 q 588 435 582 444 q 600 414 594 425 q 618 356 614 389 q 625 331 621 343 q 632 306 629 318 q 638 282 635 294 q 638 257 640 269 q 636 249 635 253 q 639 242 638 246 q 658 247 649 244 q 675 253 667 249 q 701 258 688 260 q 725 268 714 257 q 735 269 729 272 q 742 260 742 267 q 742 231 744 244 q 742 201 739 217 q 745 172 744 186 q 749 142 746 157 q 749 110 747 126 q 750 79 751 94 q 756 39 753 60 q 757 -1 760 18 q 743 -1 750 -1 q 729 -1 736 0 q 706 -6 718 -4 q 683 -11 694 -8 q 665 -11 674 -11 q 649 -14 657 -11 q 622 -18 635 -17 q 593 -17 608 -19 q 570 -12 582 -14 q 546 -10 558 -11 q 526 -4 536 -6 q 504 0 515 -3 q 490 15 497 7 q 475 28 483 22 q 464 40 467 32 q 454 56 461 49 q 443 68 449 63 q 435 81 438 74 q 422 108 425 93 q 414 139 419 124 q 413 191 414 165 q 406 243 411 217 q 399 262 403 253 q 394 281 394 271 q 389 318 393 300 q 376 351 385 336 q 374 365 374 356 q 360 377 365 369 q 349 390 356 385 q 307 406 331 394 q 292 410 300 410 q 276 408 285 410 q 263 390 265 401 q 256 368 260 379 q 253 355 253 361 q 253 342 254 349 q 261 321 263 333 q 263 297 260 308 q 264 270 265 283 q 268 243 263 257 q 277 212 274 228 q 279 179 281 196 q 280 160 278 169 q 282 140 282 150 q 287 101 282 119 q 296 63 292 82 q 298 51 299 56 q 296 40 297 46 q 270 31 285 31 q 244 39 256 32 q 227 33 236 32 q 210 36 218 33 q 187 29 199 33 q 164 26 175 25 q 131 24 147 28 q 100 18 115 21 q 77 16 89 15 q 54 13 65 17 q 33 17 40 10 q 29 32 28 24 q 32 47 31 40 l 40 122 q 48 158 44 140 q 49 194 51 175 q 46 216 49 206 q 44 238 43 226 q 47 267 44 253 q 49 297 49 282 q 51 327 53 313 q 51 357 50 342 q 50 380 53 368 q 49 403 47 392 q 45 445 47 424 q 47 488 43 467 q 47 501 49 494 q 46 514 46 507 q 47 535 49 525 q 44 557 44 546 q 45 581 47 568 q 51 603 43 593 q 51 628 49 615 q 50 656 53 642 q 49 678 51 667 q 51 701 47 690 q 51 721 56 711 q 51 740 47 731 q 54 760 54 750 q 57 781 54 769 q 55 811 58 800 q 47 842 51 822 q 41 901 38 871 q 39 963 44 932 q 40 981 38 972 q 44 1000 42 990 q 45 1016 44 1008 q 44 1032 46 1024 q 39 1043 42 1038 q 39 1056 36 1049 q 61 1076 47 1071 q 90 1085 75 1082 q 125 1085 110 1088 q 143 1083 140 1083 q 160 1083 151 1086 q 176 1081 168 1081 q 193 1083 185 1079 q 210 1088 201 1086 m 172 925 q 171 915 168 921 q 174 904 174 910 q 174 884 172 893 q 176 864 176 875 q 185 775 175 818 q 186 742 188 758 q 190 710 185 725 q 197 682 194 696 q 201 654 199 668 q 203 626 206 640 q 204 597 201 613 q 211 574 210 585 q 219 572 215 572 q 226 571 222 571 q 247 571 238 572 q 265 572 256 569 q 288 586 278 578 q 313 599 299 594 q 343 606 328 604 q 372 618 358 608 q 385 631 379 624 q 399 644 392 638 q 423 667 413 654 q 444 693 433 679 q 458 733 457 711 q 457 775 458 754 q 454 803 458 790 q 444 831 450 817 q 432 841 438 836 q 422 853 426 846 q 409 865 417 861 q 394 874 401 869 q 378 883 388 881 q 361 889 369 885 q 329 897 346 894 q 296 904 313 900 q 271 910 283 907 q 247 921 258 914 q 229 926 239 928 q 211 928 219 925 q 192 930 201 929 q 172 925 182 931 z "},"S":{"ha":667,"x_min":26,"x_max":638,"o":"m 347 1106 q 389 1103 368 1108 q 431 1096 410 1099 q 455 1091 443 1093 q 478 1083 467 1089 q 503 1078 490 1078 q 528 1068 517 1078 q 543 1059 535 1063 q 560 1049 551 1056 q 570 1030 567 1042 q 579 1008 574 1018 q 592 984 586 996 q 600 957 597 972 q 618 897 613 929 q 628 832 624 864 q 628 799 628 815 q 629 764 628 782 q 628 737 628 750 q 626 710 629 724 q 624 685 624 699 q 614 664 624 672 q 592 674 603 672 q 569 683 581 676 q 550 688 560 686 q 529 690 540 689 q 502 683 515 686 q 476 674 489 679 q 472 678 474 676 q 469 683 469 679 q 467 700 468 692 q 464 718 465 708 q 462 742 463 729 q 460 765 461 754 q 455 791 454 778 q 453 815 456 804 q 447 842 450 829 q 438 865 444 854 q 430 878 433 871 q 419 885 426 885 q 399 892 408 886 q 378 894 389 899 q 351 888 364 892 q 326 876 338 885 q 297 847 310 861 q 283 826 289 838 q 274 803 278 815 q 269 778 272 790 q 267 754 267 767 q 263 726 265 739 q 264 699 260 713 q 268 669 264 683 q 276 642 272 656 q 288 628 281 632 q 301 619 294 624 q 340 610 321 608 q 366 610 353 611 q 393 610 379 610 q 415 611 404 608 q 436 613 425 614 q 478 607 457 614 q 518 590 499 600 q 534 579 526 585 q 549 569 542 574 q 581 533 569 557 q 607 490 593 510 q 618 463 614 476 q 626 435 622 449 q 630 414 629 424 q 631 393 631 404 q 635 369 633 381 q 636 344 638 357 l 636 271 q 631 224 633 247 q 621 178 628 201 q 613 147 618 163 q 600 117 607 132 q 584 95 593 106 q 564 82 575 85 q 547 74 554 81 q 532 63 540 67 q 508 49 519 57 q 485 35 497 40 q 470 26 478 31 q 453 18 463 21 q 432 14 442 17 q 411 13 422 11 q 394 14 403 14 q 378 14 386 14 q 348 18 363 15 q 318 21 333 21 q 281 32 300 29 q 243 40 263 35 q 194 58 218 49 q 146 82 169 68 q 133 97 139 90 q 119 111 126 104 q 93 149 107 131 q 72 192 79 168 q 66 215 69 203 q 61 239 63 226 q 60 265 61 253 q 60 290 60 278 q 59 317 61 304 q 58 343 57 329 q 56 363 57 353 q 50 383 56 374 q 37 397 44 390 q 26 414 29 403 q 29 430 28 422 q 33 444 31 438 q 55 450 44 450 q 76 449 65 450 q 93 442 85 446 q 111 438 101 439 q 133 432 122 435 q 154 428 143 429 q 176 426 165 429 q 197 422 186 424 q 207 420 203 422 q 217 415 211 418 q 217 386 218 400 q 221 360 215 372 q 235 310 226 335 q 264 271 244 286 q 287 261 275 265 q 311 258 299 257 q 333 256 322 256 q 353 261 343 256 q 379 271 365 268 q 404 281 393 274 q 417 294 411 288 q 429 307 422 300 q 439 322 436 313 q 446 338 442 331 q 451 356 451 346 q 453 376 450 367 q 453 407 456 392 q 451 438 451 422 q 446 452 449 444 q 438 467 443 460 q 420 481 431 476 q 399 489 410 485 q 381 496 390 493 q 363 497 372 499 q 348 497 356 497 q 333 494 340 497 q 310 492 322 493 q 288 490 299 490 q 270 496 278 490 q 251 500 263 501 q 239 502 244 500 q 226 504 233 504 q 196 509 211 507 q 167 522 181 511 q 156 530 161 526 q 144 536 150 533 q 125 552 133 542 q 107 569 117 563 q 94 591 100 581 q 81 613 88 601 q 74 638 74 624 q 72 664 75 651 q 67 702 71 683 q 63 740 63 721 q 62 759 63 750 q 61 776 61 768 q 63 805 60 792 q 65 832 65 818 q 69 858 65 846 q 75 882 74 869 q 83 910 78 897 q 93 938 89 924 q 100 958 97 949 q 110 976 103 968 q 122 996 117 985 q 133 1015 126 1007 q 151 1035 143 1024 q 169 1051 158 1046 q 192 1061 181 1057 q 214 1071 203 1065 q 238 1079 226 1074 q 263 1089 250 1085 q 282 1093 274 1090 q 301 1097 290 1096 q 315 1101 308 1097 q 328 1104 321 1104 q 347 1106 340 1104 z "},"T":{"ha":757,"x_min":38,"x_max":731,"o":"m 289 1086 q 301 1090 296 1088 q 313 1089 306 1092 q 334 1088 324 1085 q 356 1089 344 1090 q 394 1090 375 1092 q 432 1089 413 1088 q 452 1088 443 1090 q 472 1086 461 1086 q 501 1085 488 1085 q 531 1085 515 1086 q 551 1082 542 1082 q 572 1079 561 1082 q 601 1076 588 1076 q 629 1074 615 1076 q 652 1072 640 1071 q 675 1075 664 1072 q 697 1075 686 1075 q 718 1078 707 1075 q 725 1072 721 1075 q 731 1063 729 1068 q 725 1038 728 1050 q 724 1013 722 1025 q 724 985 722 999 q 722 957 725 971 q 722 894 725 925 q 718 831 718 863 q 717 809 717 819 q 718 788 718 799 q 713 774 715 782 q 703 767 710 767 q 674 767 688 768 q 646 768 661 767 q 627 769 636 767 q 608 772 618 772 q 574 777 592 776 q 539 776 557 778 q 518 773 528 775 q 497 771 508 771 q 486 761 489 771 q 478 740 483 750 q 474 718 472 729 q 477 628 476 674 q 474 539 478 583 q 470 478 476 508 q 467 417 464 449 q 464 385 468 401 q 461 354 460 369 q 460 326 460 340 q 461 297 461 313 q 458 274 458 286 q 454 250 457 261 q 451 215 451 232 q 447 179 450 197 q 445 152 449 165 q 444 125 442 139 q 442 99 447 111 q 438 71 438 86 q 438 36 431 53 q 430 27 433 32 q 419 25 426 22 q 397 24 408 26 q 374 21 385 22 q 326 24 354 26 q 315 26 321 24 q 304 28 310 29 q 288 33 293 25 q 279 49 283 42 q 286 70 286 58 q 290 93 286 82 q 294 111 290 103 q 296 128 297 119 q 297 158 296 143 q 290 188 297 172 q 294 213 294 200 q 290 239 293 226 q 291 247 289 243 q 292 254 293 251 q 288 281 289 268 q 283 307 286 294 l 283 389 q 282 411 285 400 q 281 433 279 422 q 278 460 281 447 q 278 488 275 474 q 279 524 281 507 q 276 560 278 542 q 276 586 276 574 q 276 611 275 599 q 275 635 278 624 q 275 660 272 647 q 277 681 278 671 q 279 701 276 690 q 279 715 282 708 q 276 729 276 722 q 272 762 275 746 q 267 793 268 778 q 251 814 264 810 q 220 819 236 819 q 188 818 204 819 q 168 816 178 819 q 147 817 158 813 q 102 826 125 828 q 56 826 79 824 q 43 841 43 829 q 43 861 43 853 q 41 892 44 876 q 42 924 38 908 q 42 948 44 936 q 42 972 39 960 q 46 1006 46 989 q 49 1040 46 1024 q 47 1051 51 1047 q 39 1061 42 1056 q 47 1073 40 1068 q 61 1075 54 1078 q 90 1078 76 1074 q 118 1079 103 1082 q 172 1078 146 1079 q 225 1086 199 1078 q 257 1085 240 1086 q 289 1086 274 1085 z "},"U":{"ha":667,"x_min":28,"x_max":646,"o":"m 600 1114 q 619 1108 610 1107 q 639 1113 629 1110 q 645 1101 644 1108 q 644 1086 646 1093 q 644 1070 646 1078 q 642 1054 642 1063 q 635 1024 643 1038 q 624 993 626 1010 q 608 926 619 960 q 603 901 608 913 q 600 876 599 889 q 601 847 601 861 q 603 818 600 832 q 606 796 603 803 q 608 774 608 789 q 613 747 610 760 q 617 721 615 735 q 622 699 618 710 q 624 678 625 689 q 622 633 622 656 q 617 589 622 611 q 617 530 615 560 q 614 471 619 500 q 614 435 613 453 q 613 397 615 417 q 609 381 613 389 q 607 363 606 372 q 607 332 608 347 q 603 301 606 317 q 599 284 600 293 q 599 265 597 275 q 594 238 596 251 q 590 211 592 225 q 584 182 589 196 q 575 154 579 168 q 568 135 571 144 q 558 118 565 126 q 547 97 551 108 q 535 75 542 85 q 501 42 519 57 q 460 24 483 28 q 408 10 435 14 q 356 15 382 7 q 328 17 342 19 q 303 22 315 15 q 285 29 293 25 q 267 32 276 33 q 240 63 256 49 q 206 75 225 76 q 190 87 197 79 q 175 101 182 94 q 163 113 169 108 q 151 124 156 117 q 136 151 143 138 q 118 176 129 165 q 109 193 111 183 q 103 211 107 203 q 93 237 100 225 q 83 263 86 249 q 78 286 79 274 q 74 310 76 299 q 58 367 67 339 q 51 426 50 396 q 51 461 54 444 q 49 496 47 478 q 47 522 47 508 q 44 547 47 535 q 38 597 40 571 q 42 646 36 622 q 37 688 39 667 q 32 728 35 708 q 29 744 31 736 q 31 758 28 751 q 35 797 36 778 q 35 836 33 817 q 35 871 36 854 q 35 906 35 888 q 33 922 35 914 q 33 938 31 929 q 35 965 36 951 q 35 993 33 979 q 39 1019 39 1006 q 40 1038 38 1029 q 46 1054 43 1046 q 58 1051 53 1053 q 69 1050 63 1049 q 106 1050 88 1054 q 140 1054 124 1046 q 151 1056 146 1057 q 161 1056 156 1056 q 179 1053 171 1053 q 197 1053 188 1054 q 200 1047 200 1050 q 200 1040 200 1043 q 201 1019 201 1029 q 201 999 201 1010 q 202 975 200 986 q 204 951 204 964 q 211 888 203 921 q 219 857 218 872 q 222 826 221 842 q 224 807 222 817 q 225 788 226 797 q 228 763 225 775 q 229 736 231 750 q 227 665 222 700 q 232 593 232 629 q 243 538 236 565 q 250 482 250 511 q 263 440 254 461 q 276 401 271 421 q 289 360 282 381 q 297 347 292 353 q 307 335 301 340 q 322 331 314 331 q 338 331 329 332 q 351 334 344 331 q 357 346 357 338 q 364 376 361 360 q 382 394 367 392 q 392 417 388 406 q 400 443 397 429 q 399 459 401 451 q 399 475 396 467 q 401 538 407 507 q 401 554 399 546 q 406 571 403 563 q 407 600 408 586 q 408 628 406 614 q 406 662 406 644 q 410 694 407 679 q 410 716 413 706 q 404 738 407 726 q 400 785 401 765 q 396 833 399 806 q 394 862 397 849 q 390 890 390 875 q 384 917 388 904 q 382 944 381 931 q 376 992 372 968 q 372 1039 379 1015 q 372 1060 368 1050 q 383 1079 376 1071 q 403 1088 393 1088 q 425 1092 414 1088 q 453 1098 439 1097 q 482 1101 467 1099 q 529 1102 506 1101 q 576 1106 553 1103 q 600 1114 589 1103 z "},"V":{"ha":788,"x_min":13,"x_max":739,"o":"m 551 1110 q 593 1108 572 1110 q 635 1103 614 1106 q 659 1110 647 1104 q 683 1113 671 1115 q 707 1113 694 1111 q 731 1113 719 1114 q 739 1100 739 1107 q 738 1059 736 1081 q 731 1017 739 1038 q 730 987 732 1001 q 728 957 728 972 q 725 942 726 950 q 722 928 724 935 q 722 915 721 921 q 721 901 724 908 q 715 861 715 883 q 710 833 713 846 q 704 806 708 819 q 698 778 701 792 q 690 751 694 765 q 683 724 685 738 q 676 697 681 711 q 662 639 668 668 q 647 581 656 610 q 641 556 644 568 q 635 529 638 543 q 629 501 633 514 q 622 474 625 488 q 620 457 622 465 q 617 440 618 449 q 613 402 614 421 q 606 364 611 383 q 601 345 603 354 q 599 326 600 336 q 593 298 599 311 q 583 269 588 285 q 576 244 581 257 q 569 219 572 232 q 565 192 565 206 q 560 164 564 178 q 546 116 557 139 q 528 68 535 93 q 522 46 525 57 q 524 24 519 35 q 524 10 526 17 q 518 -3 521 4 q 503 -6 511 -3 q 490 5 496 0 q 478 13 485 10 q 463 12 469 17 q 447 8 456 7 q 431 8 439 10 q 413 7 422 6 q 390 3 401 8 q 367 -1 378 -1 q 338 1 351 0 q 310 -4 324 1 q 294 -3 301 -8 q 285 10 288 3 q 275 38 278 24 q 265 64 272 51 q 264 88 265 76 q 256 110 263 100 q 250 126 249 117 q 250 144 251 136 q 247 174 249 160 q 243 203 244 188 q 238 227 242 215 q 235 251 233 239 q 228 277 235 265 q 221 304 222 289 q 219 317 219 311 q 218 331 219 324 q 213 342 215 338 q 208 354 210 347 q 206 368 206 361 q 206 382 207 375 q 198 400 203 392 q 194 419 193 408 q 190 450 194 435 q 187 467 188 458 q 183 483 186 475 q 178 494 181 489 q 179 506 176 500 q 179 522 182 514 q 174 538 176 531 q 165 568 167 553 q 154 597 163 583 q 150 614 149 604 q 149 632 151 624 q 136 653 143 643 q 131 675 129 663 q 119 713 131 697 q 117 732 117 722 q 113 750 118 742 q 99 772 106 761 q 94 796 92 782 q 91 816 97 807 q 82 836 85 825 q 78 849 79 843 q 75 863 76 856 q 69 872 72 868 q 65 883 65 876 q 60 907 64 896 q 51 929 56 918 q 38 959 49 946 q 25 989 26 972 q 19 1010 24 1000 q 13 1031 15 1019 q 15 1041 13 1036 q 21 1050 18 1046 q 49 1051 35 1051 q 76 1053 63 1050 q 110 1054 93 1056 q 143 1064 128 1053 q 154 1067 149 1068 q 165 1065 160 1065 q 181 1067 174 1065 q 196 1064 189 1068 q 243 1060 217 1053 q 261 1053 253 1064 q 281 1001 272 1028 q 300 950 289 975 q 304 929 303 939 q 310 908 306 919 q 317 878 314 893 q 325 849 321 864 q 331 835 326 842 q 335 821 335 828 q 342 791 338 806 q 350 761 347 776 q 354 738 353 750 q 363 715 356 726 q 369 694 368 706 q 375 672 369 683 q 383 640 382 657 q 386 608 383 624 q 392 579 390 593 q 399 550 394 565 q 401 528 400 539 q 407 507 403 518 q 415 525 414 515 q 415 544 417 535 q 421 575 414 561 q 431 604 428 589 q 435 628 433 617 q 440 651 438 640 q 442 674 439 663 q 443 696 444 685 q 449 712 446 704 q 450 726 451 719 q 453 743 449 736 q 457 760 457 750 q 456 776 457 767 q 458 792 454 785 q 464 820 464 806 q 469 847 464 835 q 475 874 475 861 q 478 901 475 888 q 483 929 479 915 q 485 958 486 943 q 490 979 482 969 q 493 994 493 986 q 493 1010 493 1003 q 495 1022 493 1017 q 500 1033 497 1028 q 500 1046 500 1040 q 503 1057 500 1051 q 501 1074 506 1065 q 500 1089 497 1082 q 503 1097 501 1093 q 506 1103 504 1100 q 529 1105 518 1100 q 551 1110 540 1110 z "},"W":{"ha":990,"x_min":38,"x_max":957,"o":"m 954 1111 q 951 1071 957 1082 q 942 1044 946 1060 l 933 994 q 926 969 932 981 q 918 944 921 958 q 905 906 914 924 q 897 867 896 888 q 894 856 896 861 q 892 846 892 851 q 889 820 890 832 q 886 796 888 808 q 880 766 885 781 q 876 736 875 751 q 873 706 879 721 q 865 676 867 692 q 863 656 865 665 q 858 635 861 646 q 850 609 856 621 q 844 582 844 597 q 836 560 840 571 q 832 539 832 550 q 827 517 831 528 q 821 494 824 506 q 813 456 818 475 q 804 418 808 438 q 798 390 800 404 q 794 361 796 376 q 790 342 794 350 q 783 324 786 333 q 774 290 776 308 q 767 256 771 272 q 756 211 757 233 q 751 183 757 196 q 743 156 746 171 q 740 127 743 140 q 733 100 736 114 q 727 82 731 90 q 722 64 724 74 q 714 13 719 36 q 699 10 707 6 q 683 11 690 14 q 666 7 675 8 q 649 8 657 6 q 617 22 638 11 q 585 35 596 32 q 568 35 576 38 q 551 31 560 33 q 528 31 535 28 q 520 42 522 33 q 517 63 518 50 q 511 90 517 75 q 507 133 508 99 q 506 206 506 167 q 505 281 506 246 q 504 324 504 315 q 495 354 499 339 q 489 385 492 369 q 483 417 485 400 q 474 450 481 435 q 467 478 471 465 q 458 507 463 492 q 449 473 449 492 q 442 438 449 454 q 438 422 439 431 q 438 404 438 413 q 437 380 439 392 q 432 356 435 368 q 426 316 429 349 q 421 244 424 283 q 416 172 418 206 q 411 133 414 139 q 406 108 408 121 q 401 83 404 96 q 400 59 401 71 q 392 36 399 47 q 359 42 369 36 q 333 44 349 49 q 315 47 324 42 q 297 49 307 53 q 278 49 288 51 q 260 44 269 47 q 247 47 253 46 q 236 51 242 49 q 229 74 228 61 q 226 99 231 88 q 222 124 222 111 q 217 149 222 138 q 204 206 214 179 q 197 238 201 222 q 189 271 192 254 q 187 297 188 285 q 183 324 186 310 q 179 354 181 339 q 172 385 178 369 q 167 415 169 400 q 161 444 164 429 q 148 503 154 474 q 135 563 142 533 q 122 624 132 594 q 111 686 113 654 q 107 706 110 697 q 101 722 104 714 q 93 788 101 756 q 86 816 88 801 q 83 846 85 831 q 78 863 81 854 q 75 881 75 871 q 69 913 74 897 q 64 943 64 928 q 58 977 61 960 q 44 1006 56 994 q 39 1018 40 1011 q 43 1032 38 1025 q 69 1049 54 1047 q 100 1057 85 1050 q 131 1062 115 1060 q 163 1065 147 1064 q 206 1068 185 1072 q 232 1071 218 1067 q 243 1065 239 1068 q 254 1061 247 1063 q 267 1058 261 1058 q 278 1050 274 1057 q 278 1024 281 1038 q 282 997 276 1010 q 288 979 285 988 q 289 960 290 971 q 291 928 289 950 q 296 883 293 907 q 301 838 299 860 q 303 807 303 817 q 309 773 306 790 q 315 739 313 756 q 322 708 319 724 q 331 678 325 693 q 337 653 335 665 q 342 628 339 640 q 350 667 346 647 q 354 706 354 686 q 359 735 357 721 q 364 765 361 750 q 367 801 367 785 q 369 836 368 817 q 371 863 371 843 q 371 906 371 883 q 372 949 371 929 q 376 976 374 969 q 384 1001 382 988 q 390 1025 386 1014 q 400 1033 394 1031 q 410 1038 406 1035 q 426 1045 418 1040 q 443 1044 435 1050 q 478 1044 461 1042 q 514 1042 496 1047 q 528 1040 521 1039 q 544 1042 536 1042 q 551 1040 547 1042 q 560 1040 556 1039 q 582 1038 571 1046 q 596 1014 593 1029 q 599 965 597 997 q 603 896 601 932 q 606 824 604 860 q 608 768 607 789 q 615 738 615 751 q 623 703 618 719 q 629 667 628 686 q 632 638 629 651 q 638 610 635 624 q 642 581 642 596 q 647 553 643 567 q 655 585 654 568 q 660 618 656 603 q 662 646 661 632 q 665 672 663 660 q 667 703 668 688 q 669 735 667 719 q 681 786 674 753 q 690 838 688 819 q 696 875 690 850 q 708 928 701 900 q 719 981 714 956 q 724 1018 725 1006 q 724 1037 724 1028 q 725 1057 725 1046 q 726 1086 721 1079 q 747 1094 736 1094 q 769 1100 758 1094 q 790 1104 779 1104 q 810 1103 800 1104 q 831 1101 821 1101 q 853 1103 842 1100 q 878 1103 865 1106 q 904 1104 892 1100 q 942 1110 926 1101 q 948 1113 944 1111 q 954 1111 951 1114 z "},"X":{"ha":810,"x_min":1,"x_max":786,"o":"m 510 1097 q 516 1113 510 1106 q 531 1119 522 1119 q 539 1113 535 1117 q 549 1110 543 1108 q 597 1107 572 1110 q 644 1101 621 1104 q 692 1093 668 1094 q 740 1085 717 1092 q 763 1086 751 1085 q 785 1085 774 1088 q 785 1071 785 1078 q 782 1057 786 1064 q 756 1026 767 1044 q 736 989 746 1008 q 722 964 729 976 q 708 939 715 951 q 694 907 701 922 q 678 876 686 892 q 664 846 671 858 q 654 826 658 836 q 643 806 650 815 q 628 780 635 793 q 615 753 622 767 q 588 712 601 732 q 563 668 574 692 q 542 616 556 640 q 521 564 528 592 q 513 542 517 553 q 511 521 508 532 q 528 486 518 503 q 549 454 538 469 q 573 410 560 432 q 597 365 586 389 q 614 331 604 347 q 632 297 624 315 q 642 280 636 288 q 656 265 649 272 q 664 252 661 260 q 669 238 667 244 q 691 198 678 215 q 715 161 704 181 q 731 138 722 149 q 744 115 740 128 q 758 97 749 104 q 764 76 767 89 l 764 71 q 740 60 753 64 q 715 57 728 56 q 692 54 703 58 q 669 44 681 50 q 614 37 642 36 q 558 33 586 38 q 529 36 543 35 q 500 36 515 38 q 486 37 493 38 q 476 43 479 36 q 469 74 467 57 q 467 107 472 92 q 441 185 454 147 q 411 261 428 224 q 400 288 406 275 q 393 317 394 301 q 388 335 390 326 q 382 354 385 344 q 369 330 374 343 q 361 304 365 317 q 344 247 354 275 q 325 190 333 218 q 305 144 313 168 q 290 96 297 119 q 278 56 288 75 q 269 15 268 38 q 253 7 263 7 q 233 3 243 7 q 216 6 225 6 q 199 3 207 6 q 172 3 185 3 q 146 -1 158 3 q 103 -6 124 -1 q 74 -10 88 -8 q 44 -10 60 -12 q 28 -7 36 -7 q 13 -7 19 -7 q 1 11 6 1 q 12 34 6 24 q 22 57 18 44 q 34 85 29 71 q 47 111 39 100 q 68 160 58 136 q 93 208 78 185 q 112 249 104 228 q 129 290 119 271 q 143 315 136 303 q 154 342 150 328 q 171 386 161 365 q 188 431 181 407 q 200 464 194 447 q 213 496 206 481 q 222 512 215 506 q 231 526 228 518 q 242 554 238 540 q 251 583 247 568 q 257 595 253 590 q 260 607 261 600 q 250 631 256 619 q 239 654 244 643 q 228 672 235 665 q 217 689 221 678 q 205 715 210 701 q 192 739 200 728 q 174 783 181 757 q 157 818 165 801 q 138 851 149 835 q 122 872 131 857 q 101 911 114 888 q 88 929 96 919 q 75 950 81 939 q 68 968 71 958 q 63 986 65 978 q 53 1005 60 996 q 44 1022 47 1014 q 34 1051 39 1038 q 32 1074 29 1065 q 38 1090 29 1085 q 54 1099 47 1094 q 68 1097 61 1101 q 82 1092 75 1093 q 122 1088 101 1093 q 161 1082 142 1083 q 178 1085 169 1085 q 196 1086 188 1085 q 229 1089 213 1090 q 263 1089 246 1088 q 290 1089 276 1088 q 319 1088 304 1090 q 324 1065 324 1076 q 328 1043 325 1054 q 335 996 331 1019 q 349 951 339 972 q 363 910 358 932 q 372 868 367 889 q 374 853 375 861 q 375 838 372 844 q 385 807 381 822 q 393 776 389 792 q 409 809 407 804 q 411 815 411 814 q 413 822 411 817 q 431 854 415 826 q 438 883 433 869 q 447 913 443 897 q 458 951 451 932 q 468 989 464 969 q 481 1026 474 1008 q 493 1064 489 1044 q 501 1081 494 1075 q 510 1097 507 1086 z "},"Y":{"ha":908,"x_min":4,"x_max":875,"o":"m 594 1106 q 615 1096 606 1101 q 635 1088 624 1090 q 649 1088 642 1086 q 664 1092 657 1090 q 685 1092 675 1092 q 707 1089 696 1092 q 722 1088 714 1089 q 738 1092 731 1088 q 772 1085 753 1082 q 788 1088 781 1085 q 804 1088 796 1090 q 829 1085 817 1085 q 854 1085 842 1086 q 865 1076 861 1082 q 875 1065 869 1071 q 855 1023 865 1043 q 833 982 844 1003 q 817 953 826 967 q 799 925 807 940 q 777 891 788 907 q 756 858 767 875 q 728 814 743 835 q 703 769 714 793 q 684 735 696 750 q 664 703 672 719 q 651 685 657 693 q 640 665 644 676 q 624 642 633 653 q 607 618 614 632 q 574 574 592 594 q 546 528 557 554 q 545 513 543 521 q 543 500 547 506 q 530 476 532 490 q 525 446 528 461 q 521 407 519 426 q 519 368 522 388 q 517 342 517 356 q 514 315 518 328 q 511 272 510 293 q 511 226 513 250 q 507 201 510 214 q 506 175 504 189 q 501 144 503 160 q 499 113 499 128 q 497 72 499 92 q 506 32 494 51 q 501 23 503 28 q 497 13 500 18 q 472 15 483 10 q 447 22 460 21 q 426 25 436 22 q 406 26 417 28 q 386 29 394 24 q 368 38 378 35 l 331 50 q 315 47 322 53 q 300 39 307 42 q 290 50 296 44 q 288 64 283 56 q 297 90 290 78 q 301 117 304 101 q 304 139 301 132 q 308 162 308 150 q 310 185 307 174 q 311 214 313 200 q 314 243 310 228 q 317 276 318 260 q 317 310 317 293 q 316 324 318 317 q 314 338 314 331 q 315 367 315 353 q 318 394 314 381 q 319 414 322 404 q 319 432 315 424 q 310 440 315 436 q 303 449 306 443 q 299 461 300 456 q 294 471 297 467 q 278 499 286 485 q 260 526 269 513 q 247 551 254 539 q 233 574 240 563 q 213 625 224 600 q 188 672 203 650 q 176 696 181 683 q 164 719 171 708 q 150 748 157 735 q 138 776 143 761 q 128 794 135 788 q 124 813 121 801 q 101 835 111 822 q 83 864 92 849 q 66 899 74 881 q 50 933 58 917 q 33 969 42 953 q 18 1001 25 985 q 10 1044 11 1022 q 7 1056 10 1051 q 4 1068 4 1061 q 21 1078 13 1079 q 83 1076 50 1072 q 106 1076 94 1079 q 129 1074 118 1072 q 158 1076 144 1072 q 188 1075 172 1079 q 203 1075 196 1072 q 219 1078 211 1078 q 251 1074 236 1081 q 264 1051 260 1064 q 274 1026 268 1038 q 303 968 285 994 q 335 914 321 942 q 360 856 349 885 q 379 794 372 826 q 391 761 385 778 q 401 726 397 744 q 413 690 408 708 q 428 657 417 672 q 433 682 429 669 q 442 707 438 694 q 450 735 447 721 q 460 763 453 749 q 468 791 467 776 q 475 819 469 806 q 479 843 479 831 q 485 867 479 856 q 489 886 489 876 q 494 904 489 896 q 504 931 501 917 q 515 956 507 944 q 520 967 518 961 q 525 978 522 972 q 540 999 532 989 q 554 1022 549 1010 q 569 1049 561 1036 q 578 1076 576 1061 q 584 1092 579 1086 q 594 1106 589 1099 z "},"Z":{"ha":750,"x_min":39,"x_max":744,"o":"m 60 1107 q 76 1105 68 1108 q 93 1100 85 1101 q 114 1096 104 1099 q 133 1090 124 1093 q 150 1089 142 1089 q 165 1083 158 1089 q 210 1063 186 1068 q 260 1051 235 1058 q 282 1048 271 1049 q 304 1043 293 1047 q 356 1039 329 1035 q 388 1035 372 1042 q 421 1031 404 1029 q 444 1030 432 1032 q 467 1026 456 1028 q 508 1023 486 1022 q 550 1021 529 1024 q 572 1019 561 1021 q 593 1017 582 1018 q 622 1020 608 1014 q 650 1022 635 1026 q 679 1022 665 1018 q 708 1026 693 1026 q 713 1003 715 1015 q 714 979 711 990 q 716 926 718 953 q 721 872 714 899 q 723 853 724 863 q 724 835 722 844 q 734 822 725 825 q 742 810 743 819 q 739 798 744 803 q 729 788 733 793 q 722 788 725 788 q 715 789 718 789 q 685 750 703 767 q 666 735 675 743 q 650 717 657 726 q 633 700 643 707 q 617 683 624 693 q 586 648 601 665 q 556 613 571 631 q 531 583 544 597 q 506 554 518 569 q 485 534 496 543 q 465 513 474 525 q 428 475 449 492 q 349 396 386 438 q 275 313 313 354 q 264 303 269 307 q 254 293 258 300 q 273 292 264 292 q 293 290 282 293 q 315 290 304 288 q 338 289 326 292 q 383 290 358 283 q 400 286 392 286 q 417 285 408 286 q 465 280 440 278 q 513 276 489 282 q 534 272 531 274 q 532 285 538 269 q 542 297 538 293 q 585 290 563 286 q 629 293 607 294 q 642 294 636 294 q 656 293 649 293 q 668 299 663 296 q 681 301 674 301 q 691 292 686 297 q 699 278 696 286 q 692 267 697 271 q 682 260 688 264 q 681 239 681 256 q 681 203 681 222 q 683 169 682 185 q 683 150 683 153 q 684 117 688 133 q 682 83 681 100 q 682 64 681 74 q 681 44 683 54 q 678 38 679 42 q 674 31 678 33 q 662 32 667 29 q 650 32 657 35 q 618 30 635 29 q 586 29 601 31 q 569 26 578 26 q 553 26 561 26 q 517 26 535 26 q 481 29 499 26 q 460 30 469 29 q 440 28 450 31 q 410 30 425 25 q 381 33 396 35 q 353 37 367 35 q 324 36 339 39 q 300 35 313 33 q 275 38 288 38 q 213 39 240 44 q 140 28 176 32 q 68 42 103 24 q 57 33 65 35 q 44 38 49 31 q 44 67 43 53 q 44 97 46 82 q 49 126 46 113 q 50 156 51 140 q 50 190 51 172 q 51 222 49 207 q 53 253 54 238 q 56 285 53 269 q 59 310 57 297 q 61 335 61 322 q 53 340 58 338 q 57 366 53 353 q 74 382 61 379 q 86 392 82 385 q 97 407 90 400 q 113 425 106 415 q 129 442 119 435 q 199 524 167 479 q 215 542 206 535 q 232 560 224 550 q 261 597 247 579 q 292 632 275 615 q 306 651 300 640 q 319 669 311 663 q 336 692 331 679 q 353 713 342 704 q 367 728 361 719 q 381 744 374 738 q 403 774 394 757 q 428 801 413 790 q 394 806 411 807 q 361 804 378 804 q 332 803 346 806 q 303 801 318 800 q 266 800 283 803 q 231 801 249 797 q 218 800 224 803 q 206 799 213 797 q 153 799 179 804 q 105 794 129 797 q 58 778 81 790 q 48 781 51 775 q 42 792 44 786 q 44 807 39 800 q 49 822 50 814 q 47 837 47 829 q 46 851 46 844 q 47 904 51 878 q 44 957 42 931 q 51 1008 54 982 q 54 1061 47 1035 q 56 1073 57 1067 q 54 1085 56 1079 q 53 1097 53 1092 q 60 1107 54 1103 z "},"a":{"ha":760,"x_min":21,"x_max":725,"o":"m 289 1079 q 308 1084 306 1082 q 311 1086 311 1086 q 313 1085 311 1086 q 329 1083 314 1085 q 355 1083 347 1081 q 381 1089 363 1085 q 406 1087 393 1086 q 431 1089 418 1088 q 451 1083 442 1086 q 472 1082 461 1079 q 494 1078 483 1083 q 515 1075 504 1072 q 528 1074 521 1076 q 533 1064 535 1072 q 532 1042 531 1053 q 536 1021 533 1032 q 543 992 539 1006 q 550 963 547 978 q 563 909 558 936 q 574 854 568 882 q 577 830 576 843 q 581 806 578 817 q 592 754 588 781 q 603 703 596 728 q 607 669 607 686 q 613 638 607 653 q 622 587 618 613 q 629 535 625 561 q 635 510 633 522 q 638 485 636 497 q 645 438 644 461 q 651 392 646 415 q 660 355 658 374 q 667 318 663 336 q 670 293 667 304 q 676 269 674 282 q 681 244 679 257 q 685 218 682 231 q 701 126 696 174 q 719 35 706 79 q 715 6 725 19 q 702 1 708 3 q 689 0 696 -1 q 671 1 679 3 q 653 0 663 -1 q 642 0 647 3 q 631 -4 638 -3 q 606 2 618 -1 q 582 3 594 6 q 558 6 569 1 q 536 7 547 10 q 524 8 526 7 q 523 20 522 15 q 524 32 524 25 q 513 17 519 24 q 501 34 504 24 q 496 56 499 44 q 492 88 496 72 q 494 121 489 104 q 496 134 497 128 q 493 147 494 140 q 494 164 496 156 q 490 181 493 172 q 492 197 490 189 q 493 214 494 206 q 489 238 488 228 q 488 258 490 249 q 481 278 485 268 q 474 297 476 288 q 471 318 471 307 q 453 326 461 321 q 435 329 446 331 q 421 331 428 329 q 407 331 414 332 q 384 322 396 325 q 360 317 372 318 q 347 292 349 307 q 339 267 346 278 q 324 234 328 251 q 315 199 321 217 q 308 160 308 179 q 301 122 308 142 q 292 83 294 103 q 285 44 290 64 q 285 25 282 38 q 273 15 282 14 q 257 14 264 17 q 232 9 244 11 q 208 8 219 7 q 178 17 193 14 q 147 15 163 21 q 131 14 139 13 q 114 18 122 15 q 94 26 103 21 q 74 28 85 31 q 58 25 65 29 q 40 19 50 21 q 28 27 32 19 q 21 42 25 35 q 31 60 26 51 q 39 81 36 69 q 52 128 42 106 q 68 175 63 151 q 76 201 72 188 q 83 226 79 214 q 90 246 89 236 q 94 265 92 256 q 109 319 106 292 q 119 372 113 346 q 125 408 122 390 q 133 442 128 425 q 136 452 136 447 q 138 461 136 457 q 146 494 140 478 q 156 525 151 510 q 163 545 158 536 q 168 565 167 554 q 173 593 171 579 q 181 619 175 607 q 187 641 186 631 q 193 661 188 651 q 204 687 200 674 q 215 714 208 700 q 227 753 222 733 q 239 793 232 774 q 244 817 243 804 q 246 843 246 831 q 248 849 246 847 q 251 856 250 851 q 254 870 253 861 q 256 894 256 879 q 260 917 257 906 q 265 942 264 929 q 274 982 269 968 q 278 999 276 993 q 282 1013 281 1006 q 286 1035 285 1021 q 289 1079 288 1050 z "},"b":{"ha":693,"x_min":38,"x_max":674,"o":"m 38 1093 q 89 1101 60 1101 q 131 1101 110 1103 q 174 1099 153 1100 q 208 1101 190 1104 q 242 1097 225 1099 q 258 1094 250 1096 q 275 1092 267 1092 q 297 1090 286 1093 q 319 1089 308 1086 q 356 1090 339 1093 q 392 1090 374 1088 q 404 1091 399 1092 q 417 1089 410 1090 q 489 1079 456 1089 q 508 1076 499 1076 q 525 1069 517 1075 q 560 1047 543 1058 q 589 1017 578 1036 q 606 985 599 1001 q 617 950 614 969 q 624 926 619 938 q 631 901 628 914 q 639 876 633 888 q 643 850 644 864 q 643 813 642 831 q 640 776 644 794 q 638 747 638 761 q 633 718 638 733 q 616 666 629 690 q 594 615 603 642 q 628 567 611 592 q 654 513 646 543 q 660 488 657 500 q 660 463 663 475 q 663 381 656 425 q 669 351 665 365 q 671 322 674 338 q 666 293 668 307 q 661 264 664 279 q 649 217 653 240 q 635 171 646 193 q 624 148 629 160 q 608 126 618 136 q 591 106 600 115 q 571 90 582 96 q 558 81 564 88 q 546 71 553 75 q 528 66 538 68 q 513 60 519 64 q 495 58 504 57 q 479 54 486 58 q 465 52 472 51 q 451 53 458 53 q 431 44 440 51 q 411 38 422 38 q 385 32 397 35 q 358 32 372 29 q 340 31 349 33 q 321 26 331 29 q 291 29 306 29 q 261 29 276 29 q 230 25 246 26 q 199 29 214 24 q 188 32 193 31 q 175 35 182 33 q 149 32 163 32 q 124 35 136 32 q 99 43 111 36 q 76 42 88 50 q 69 49 74 46 q 64 57 64 51 q 65 88 67 72 q 65 118 64 103 q 67 143 65 131 q 68 168 69 156 q 69 195 67 182 q 69 222 72 208 q 69 247 67 235 q 71 271 71 258 q 72 356 72 314 q 71 442 71 399 q 69 478 69 460 q 71 515 68 496 q 70 542 72 529 q 71 568 68 556 q 70 585 72 578 q 67 601 68 593 q 65 644 64 622 q 64 686 67 665 q 61 743 58 714 q 60 801 64 772 q 52 866 53 839 q 46 928 51 893 q 43 963 43 946 q 40 999 43 981 q 38 1026 38 1013 q 38 1054 38 1039 l 38 1093 z "},"c":{"ha":806,"x_min":47,"x_max":781,"o":"m 357 1089 q 394 1096 375 1096 q 431 1093 413 1096 q 455 1092 443 1092 q 478 1089 467 1092 q 554 1081 517 1089 q 572 1073 564 1078 q 589 1065 579 1068 q 609 1056 599 1060 q 629 1044 619 1053 q 644 1033 636 1038 q 660 1021 653 1029 q 678 1001 669 1011 q 690 975 688 990 q 699 949 693 961 q 707 922 704 936 q 732 856 717 889 q 742 827 739 842 q 749 797 744 813 q 751 785 750 790 q 754 772 753 779 q 751 747 751 760 q 750 719 751 733 q 745 698 747 708 q 739 676 743 688 q 728 675 733 674 q 718 679 724 676 q 687 678 703 682 q 656 678 671 675 q 635 678 644 681 q 615 679 626 676 q 599 678 607 678 q 583 676 592 678 q 570 672 576 674 q 557 669 564 671 q 551 662 553 667 q 542 660 549 657 q 533 677 533 667 q 531 699 533 688 q 531 722 528 710 q 532 746 535 733 q 532 765 533 756 q 528 785 531 774 q 504 819 519 804 q 469 843 489 833 q 430 852 450 849 q 390 851 410 856 q 367 844 379 844 q 343 836 354 843 q 310 818 326 828 q 282 794 294 808 q 250 761 261 782 q 225 721 239 740 q 214 685 219 703 q 201 650 208 668 q 198 613 200 631 q 199 575 196 594 q 202 542 201 558 q 206 508 203 525 q 213 480 207 493 q 221 451 218 467 q 234 417 229 435 q 250 385 239 400 q 278 350 261 363 q 313 326 296 338 q 349 306 329 314 q 368 300 358 301 q 388 293 378 299 q 411 288 399 288 q 436 288 424 288 q 460 293 449 290 q 483 303 472 296 q 505 326 494 314 q 519 354 515 339 q 523 375 524 365 q 524 396 522 385 q 522 406 524 401 q 519 415 519 410 q 531 440 518 431 q 556 449 543 449 q 573 444 565 449 q 589 440 581 440 q 615 440 603 439 q 640 439 628 442 q 661 438 651 436 q 681 440 671 439 q 725 438 703 438 q 768 446 747 438 q 776 430 771 438 q 779 414 781 422 q 774 388 775 401 q 771 363 774 375 q 768 338 769 350 q 767 314 767 326 q 759 277 763 294 q 751 240 756 260 q 739 214 747 226 q 731 194 733 204 q 721 176 728 185 q 705 151 713 164 q 688 126 697 138 q 669 108 681 115 q 646 93 657 101 q 606 67 626 78 q 563 50 586 56 q 540 44 551 44 q 517 39 528 43 q 490 38 503 38 q 461 35 476 38 q 447 38 454 33 q 433 42 440 43 q 420 30 426 35 q 406 25 414 25 q 396 28 399 24 q 390 38 393 33 q 383 39 386 39 q 375 40 379 39 q 382 29 381 32 q 363 29 372 26 q 343 32 354 32 q 315 40 328 31 q 286 54 301 50 q 243 69 267 58 q 219 88 231 78 q 196 106 207 97 q 176 125 185 114 q 160 147 167 136 q 149 162 156 156 q 138 176 142 168 q 129 191 133 183 q 126 207 125 199 q 122 223 126 215 q 117 240 117 231 q 103 296 114 271 q 92 322 96 308 q 85 350 89 336 q 78 364 82 357 q 76 379 75 371 q 74 399 78 390 q 69 419 69 408 q 66 456 67 438 q 63 492 65 474 q 58 513 60 503 q 60 532 57 522 q 58 550 58 542 q 57 568 57 558 q 59 601 54 585 q 57 633 64 618 q 50 660 53 647 q 50 689 47 674 q 48 716 47 703 q 49 743 49 729 q 58 746 54 746 q 65 772 61 760 q 71 797 68 783 q 79 833 74 815 q 85 853 83 843 q 90 874 86 864 q 97 889 93 882 q 103 904 100 896 q 114 931 107 918 q 125 958 121 943 q 131 975 128 965 q 143 988 133 985 q 165 1005 156 994 q 189 1022 175 1015 q 208 1035 199 1029 q 228 1047 218 1040 q 244 1055 235 1053 q 261 1058 253 1057 q 275 1064 268 1060 q 289 1069 282 1068 q 299 1070 294 1072 q 308 1069 304 1068 q 333 1079 321 1074 q 357 1089 344 1085 z "},"d":{"ha":699,"x_min":19,"x_max":661,"o":"m 147 1090 q 178 1097 163 1096 q 210 1094 194 1097 q 224 1092 208 1092 q 260 1089 240 1092 q 279 1089 269 1088 q 299 1089 289 1090 q 343 1079 319 1082 q 365 1074 354 1076 q 388 1067 376 1071 q 416 1058 401 1061 q 444 1047 431 1054 q 462 1040 453 1043 q 479 1031 471 1036 q 499 1017 489 1024 q 518 1003 508 1010 q 534 985 528 994 q 549 965 540 975 q 571 923 561 944 q 590 878 581 901 q 604 851 596 863 q 619 825 613 839 q 631 799 628 813 q 640 771 635 785 q 647 749 646 760 q 651 728 649 739 q 653 690 654 708 q 654 654 651 672 q 656 630 657 642 q 657 606 654 618 q 658 574 661 590 q 657 542 654 557 q 658 519 660 531 q 654 496 656 507 q 650 458 651 476 q 642 421 649 439 q 632 365 638 393 q 617 308 626 336 q 602 262 608 285 q 585 215 596 239 q 576 194 579 204 q 564 175 572 183 q 549 158 556 168 q 533 142 542 149 q 510 127 522 132 q 488 117 499 122 q 468 110 478 111 q 449 101 458 108 q 357 78 406 75 q 334 74 346 75 q 311 69 322 74 q 285 62 297 67 q 258 58 272 57 q 234 57 246 60 q 210 54 222 54 q 190 52 200 51 q 171 49 181 53 q 160 44 165 46 q 149 44 156 43 q 131 43 139 47 q 113 42 122 39 q 94 39 103 43 q 76 40 85 35 q 62 47 69 44 q 47 57 54 50 q 43 67 44 61 q 40 79 42 74 q 45 94 42 88 q 46 110 49 101 l 46 172 q 46 201 44 188 q 44 229 47 214 q 44 244 42 236 q 46 260 47 251 q 47 274 43 267 q 47 289 50 282 q 46 315 44 301 q 49 342 47 328 q 51 369 51 356 q 53 396 51 382 q 52 427 54 411 q 53 460 50 443 q 52 485 51 472 q 51 510 53 497 q 49 544 47 526 q 47 578 50 561 q 46 594 44 586 q 49 611 47 603 q 48 642 49 626 q 44 672 47 657 q 44 688 42 681 q 49 704 47 696 q 47 735 53 719 q 43 765 42 750 q 35 803 40 785 q 33 842 31 822 q 35 858 35 849 q 35 874 35 867 q 35 913 35 893 q 35 951 36 932 q 33 987 32 969 q 32 1022 33 1004 q 27 1033 31 1029 q 22 1043 24 1036 q 28 1063 19 1054 q 40 1081 36 1071 q 51 1090 43 1089 q 70 1091 60 1092 q 92 1088 81 1090 q 113 1088 103 1086 q 130 1089 121 1090 q 147 1090 139 1088 z "},"e":{"ha":649,"x_min":21,"x_max":606,"o":"m 588 1069 q 599 1068 594 1072 q 606 1057 604 1064 q 603 1035 604 1046 q 600 1013 603 1024 q 600 985 599 999 q 599 958 601 971 q 597 932 596 944 q 596 906 599 919 q 594 878 593 892 q 596 850 594 864 q 595 838 597 843 q 596 825 593 832 q 596 813 599 818 q 590 800 593 807 q 569 792 579 796 q 547 789 558 788 q 526 784 536 792 q 506 781 517 776 q 453 785 479 783 q 401 783 428 788 q 381 783 390 782 q 361 781 372 783 q 340 778 350 778 q 318 776 329 779 q 303 774 311 774 q 286 775 294 775 q 258 770 271 774 q 229 768 244 767 q 207 763 218 767 q 185 757 196 760 q 181 735 182 746 q 185 714 181 725 q 205 709 194 707 q 225 713 215 711 q 247 708 236 707 q 269 708 258 710 q 281 707 275 708 q 292 710 286 706 q 317 703 303 700 q 344 708 332 706 q 356 704 350 711 q 363 651 363 676 q 366 618 367 635 q 365 583 365 601 q 368 544 368 564 q 368 506 368 525 q 365 488 371 496 q 350 476 358 479 q 334 472 343 474 q 317 472 325 469 q 285 481 301 476 q 251 485 268 486 q 236 480 243 485 q 222 472 229 475 q 206 470 215 469 q 190 467 197 471 q 191 442 188 454 q 193 418 194 431 q 192 388 194 403 q 189 357 190 372 q 184 317 188 338 q 192 276 181 296 q 221 276 207 275 q 250 272 235 278 q 278 265 264 267 q 308 263 293 263 q 346 267 328 265 q 383 272 364 268 q 406 269 394 269 q 428 272 417 269 q 453 273 440 271 q 479 276 465 275 q 501 278 490 275 q 522 279 511 282 q 535 281 529 278 q 549 286 542 283 q 552 284 550 285 q 556 282 554 283 q 567 222 567 251 q 569 208 565 215 q 572 194 572 201 q 572 153 574 174 q 568 111 571 132 q 568 56 571 83 q 561 7 569 32 q 554 -1 558 3 q 544 -6 550 -6 q 515 -4 529 -4 q 488 3 501 -4 q 444 10 467 14 q 400 10 422 6 q 369 12 385 14 q 339 8 354 10 q 314 6 326 6 q 289 6 301 7 q 272 8 281 6 q 256 8 264 10 q 237 11 246 8 q 219 13 228 14 q 206 14 213 11 q 193 19 200 17 q 142 24 168 24 q 92 19 117 25 q 69 19 81 18 q 47 28 58 21 q 40 45 40 35 q 39 65 40 56 q 44 84 42 75 q 44 104 47 93 q 44 126 42 115 q 46 149 46 138 q 45 206 39 176 q 50 264 51 235 q 53 291 53 278 q 51 319 53 304 q 50 342 49 331 q 50 364 51 353 q 49 399 51 382 q 50 435 47 417 q 49 465 53 450 q 49 496 46 481 q 47 550 46 524 q 47 603 47 576 q 47 624 46 614 q 49 644 47 633 q 47 683 47 664 q 47 721 46 701 q 49 767 51 742 q 47 809 46 788 q 47 853 49 831 q 44 881 47 868 q 40 910 42 894 q 34 938 35 924 q 28 964 33 951 q 23 988 22 975 q 21 1013 24 1000 q 21 1025 21 1019 q 22 1038 21 1031 q 28 1045 25 1040 q 39 1047 32 1050 q 63 1041 50 1042 q 89 1043 76 1040 q 110 1045 100 1047 q 129 1047 119 1043 q 147 1051 138 1053 q 167 1053 157 1050 q 194 1056 181 1056 q 222 1060 208 1056 q 244 1063 233 1060 q 267 1064 256 1067 q 290 1059 279 1063 q 313 1054 301 1056 q 335 1051 324 1054 q 358 1049 347 1047 q 386 1048 372 1050 q 414 1049 400 1046 q 441 1053 428 1054 q 467 1058 454 1051 q 483 1063 474 1063 q 499 1065 492 1063 q 524 1067 511 1065 q 549 1067 536 1068 q 568 1067 558 1067 q 588 1069 578 1067 z "},"f":{"ha":565,"x_min":32,"x_max":540,"o":"m 61 1069 q 81 1064 72 1071 q 101 1058 90 1057 q 128 1052 115 1057 q 156 1047 142 1047 q 206 1044 181 1044 q 254 1047 231 1044 q 281 1044 268 1050 q 307 1040 293 1039 q 328 1044 318 1038 q 350 1049 339 1050 q 367 1047 358 1049 q 383 1047 375 1044 q 404 1053 394 1049 q 425 1056 414 1057 q 447 1058 436 1054 q 477 1058 463 1058 q 507 1056 492 1058 q 536 1042 525 1058 q 535 1015 536 1028 q 536 988 535 1001 q 538 963 536 975 q 539 939 540 951 q 536 873 533 907 q 535 807 539 839 q 529 792 532 800 q 519 788 526 785 q 501 785 510 789 q 483 779 492 782 q 458 776 471 775 q 433 774 446 778 q 410 775 422 778 q 388 774 399 772 q 367 774 376 774 q 347 772 358 775 q 315 768 332 769 q 282 765 299 767 q 251 763 267 761 q 221 757 236 764 q 214 741 214 750 q 214 722 214 732 q 214 705 213 714 q 218 688 215 696 q 235 685 226 683 q 254 689 244 686 q 282 690 268 690 q 307 682 296 690 q 331 674 318 675 q 354 672 343 674 q 371 665 364 672 q 382 651 378 658 q 381 628 385 640 q 381 604 378 617 q 378 578 382 590 q 374 553 375 565 q 372 532 375 542 q 371 511 369 522 q 369 490 371 500 q 368 468 368 479 q 363 454 368 460 q 354 442 357 449 q 342 443 347 443 q 329 446 336 443 q 294 451 313 454 q 258 454 276 447 q 238 461 247 457 q 218 460 228 465 q 208 403 211 432 q 210 347 206 375 q 213 317 211 332 q 221 286 215 301 q 228 259 226 274 q 233 231 229 244 q 235 195 233 213 q 236 160 238 178 q 238 140 236 149 q 239 121 239 131 q 245 83 242 101 q 243 44 249 64 q 243 31 242 38 q 239 22 244 25 q 223 19 232 15 q 207 21 214 24 q 188 19 197 18 q 171 15 179 19 q 148 9 160 11 q 125 1 136 7 q 89 1 107 1 q 53 3 71 0 q 44 7 47 3 q 36 15 40 11 q 36 28 36 22 q 33 42 36 35 q 36 98 38 69 q 36 154 35 126 q 34 170 36 163 q 33 186 32 178 q 33 246 38 217 q 35 284 32 265 q 36 322 38 303 q 36 384 35 354 q 36 444 38 414 q 34 463 36 454 q 33 481 32 471 q 34 506 36 493 q 33 529 32 518 q 37 560 36 544 q 35 590 38 575 q 33 614 32 601 q 33 638 33 626 q 35 671 36 654 q 36 706 35 688 q 41 740 39 722 q 40 775 43 757 q 42 802 43 789 q 44 829 42 815 q 46 858 47 844 q 46 885 44 871 q 49 929 47 907 q 47 974 50 951 q 49 1001 44 988 q 51 1028 53 1014 q 53 1049 49 1039 q 61 1069 58 1058 z "},"g":{"ha":704,"x_min":25,"x_max":675,"o":"m 269 1074 q 286 1080 278 1076 q 304 1081 294 1083 q 327 1076 315 1079 q 350 1075 339 1074 q 461 1050 408 1064 l 511 1033 q 532 1024 522 1031 q 551 1011 542 1018 q 585 981 571 999 q 615 946 600 963 q 637 896 631 922 q 646 842 643 869 q 648 819 649 831 q 649 794 647 807 q 653 755 651 775 q 660 715 654 735 q 650 706 654 711 q 639 703 646 700 q 614 706 626 707 q 589 703 601 706 q 562 702 575 701 q 533 701 549 703 q 510 703 522 701 q 488 697 499 704 q 479 693 483 696 q 469 693 475 690 q 458 718 457 703 q 454 742 460 731 q 444 765 449 754 q 401 810 433 799 q 371 821 386 815 q 340 822 356 826 q 302 807 315 817 q 269 778 289 797 q 249 746 256 764 q 236 708 243 728 q 230 676 232 693 q 222 642 228 658 q 215 569 221 606 q 210 494 208 532 q 211 477 210 486 q 213 458 213 468 q 217 439 213 447 q 225 419 222 431 q 242 367 231 392 q 268 319 254 343 q 296 280 283 296 q 333 261 308 264 q 367 265 350 264 q 400 274 385 267 q 439 290 422 276 q 453 304 446 297 q 464 321 461 311 q 470 348 472 333 q 471 376 468 363 q 446 382 458 379 q 421 388 433 385 q 393 389 407 390 q 365 388 379 388 q 353 387 358 389 q 343 382 349 385 q 331 417 328 394 q 333 448 333 432 q 335 479 332 464 q 338 501 338 490 q 336 522 339 511 q 336 556 331 542 q 367 553 351 557 q 399 546 383 549 q 472 530 435 535 q 546 525 508 525 q 593 528 569 524 q 640 533 617 532 q 642 532 646 532 q 633 533 639 532 q 623 535 626 535 q 625 533 619 535 q 635 536 631 533 q 646 539 640 539 q 657 510 661 526 q 655 488 654 499 q 656 467 656 478 q 663 379 661 414 q 661 308 664 344 q 663 267 665 290 q 660 224 658 244 q 658 182 663 203 q 658 166 656 174 q 660 151 661 158 q 657 131 657 138 q 658 117 657 124 q 661 101 660 111 q 663 74 663 92 q 665 35 663 54 q 675 -1 668 17 q 670 -6 672 -4 q 665 -11 668 -8 q 653 -12 658 -14 q 642 -10 649 -10 q 616 -6 629 -7 q 590 3 603 -4 q 572 8 582 7 q 553 11 563 8 q 525 14 539 14 q 499 7 511 14 q 488 1 492 4 q 476 -1 483 -3 q 464 10 467 4 q 463 28 460 18 q 474 35 468 32 q 483 44 479 38 q 488 66 486 61 q 490 73 489 71 q 492 80 490 75 q 496 103 493 85 q 458 83 476 93 q 421 63 440 74 q 410 50 414 57 q 399 38 406 43 q 374 33 388 33 q 349 31 361 32 q 307 35 332 28 q 265 46 282 43 q 249 51 256 47 q 233 56 242 56 q 215 58 224 54 q 199 65 207 63 q 180 76 190 72 q 160 88 169 81 q 132 114 149 97 q 108 144 115 131 q 95 167 103 157 q 82 188 88 176 q 65 228 74 207 q 54 271 57 249 q 47 294 49 282 q 40 319 44 307 q 34 373 38 347 q 28 426 31 399 q 27 455 26 442 q 26 482 28 468 q 27 512 29 497 q 28 542 25 526 q 29 556 28 549 q 29 569 31 563 q 27 588 29 579 q 28 607 25 597 q 30 633 32 619 q 33 661 28 647 q 36 683 38 672 q 39 706 35 694 q 42 733 43 719 q 43 763 42 747 q 51 797 46 781 q 58 832 56 814 q 63 854 60 843 q 67 876 65 865 q 75 924 67 900 l 89 946 q 99 962 94 954 q 106 972 103 969 q 125 994 115 983 q 146 1015 135 1004 q 153 1024 149 1021 q 164 1029 158 1026 q 214 1057 182 1046 q 269 1074 246 1068 z "},"h":{"ha":694,"x_min":25,"x_max":669,"o":"m 242 1099 q 252 1101 247 1101 q 263 1097 257 1100 q 260 1076 264 1086 q 256 1056 256 1067 q 256 1033 254 1044 q 254 1010 257 1021 q 253 990 251 1000 q 256 969 256 981 q 257 909 254 939 q 258 849 260 879 q 256 822 254 835 q 256 796 257 810 q 259 763 260 779 q 261 729 258 746 q 260 696 263 713 q 260 663 258 679 q 264 622 267 643 q 268 582 261 601 q 291 571 278 571 q 317 571 304 571 q 344 572 331 569 q 372 571 358 574 q 401 575 388 574 q 429 576 414 576 q 453 582 440 572 q 452 615 454 599 q 447 646 450 631 q 447 667 446 657 q 444 688 447 676 q 444 703 442 694 q 444 718 447 711 q 440 752 442 735 q 435 786 438 769 q 431 824 432 806 q 428 860 429 842 q 427 878 428 869 q 428 897 426 888 q 424 917 424 907 q 422 936 425 926 q 421 964 419 950 q 418 990 422 978 q 417 1010 417 1001 q 417 1031 418 1019 q 418 1056 419 1043 q 419 1082 417 1069 q 429 1092 424 1089 q 442 1099 435 1096 q 447 1086 444 1090 q 494 1083 471 1079 q 542 1090 518 1088 q 567 1093 554 1090 q 594 1094 581 1096 q 609 1097 601 1093 q 624 1103 617 1100 q 625 1057 631 1078 q 624 1023 624 1040 q 624 988 625 1006 q 625 962 622 975 q 625 935 628 949 q 626 913 622 924 q 628 890 629 901 q 628 847 629 868 q 629 804 626 826 q 627 783 626 793 q 629 761 628 772 q 631 738 632 750 q 631 715 629 726 q 635 681 633 697 q 638 646 636 664 q 640 618 642 632 q 642 590 639 604 q 643 565 644 578 q 643 540 642 553 q 646 511 646 525 q 647 482 646 497 q 648 452 646 467 q 650 422 650 438 q 653 397 649 410 q 656 372 657 385 q 656 348 654 360 q 661 324 658 336 q 661 292 661 308 q 663 261 661 276 q 662 235 663 249 q 664 210 661 222 q 666 176 667 193 q 665 143 665 160 q 667 110 668 126 q 668 76 667 93 q 669 49 668 63 q 663 22 669 35 q 645 23 654 22 q 628 22 636 24 q 604 20 617 19 q 579 19 592 21 q 551 18 564 21 q 524 15 538 15 q 499 15 511 14 q 475 17 488 17 q 460 22 468 19 q 446 33 451 25 q 447 58 446 46 q 453 82 449 71 q 453 110 457 96 q 453 139 450 124 q 452 199 454 169 q 453 261 450 229 q 452 297 450 279 q 450 335 454 315 q 451 349 450 342 q 447 363 453 356 q 431 372 440 371 q 414 375 422 372 q 384 378 399 379 q 354 378 369 378 q 329 375 342 375 q 306 372 317 375 q 282 371 294 371 q 258 371 269 371 q 258 351 257 361 q 256 332 258 342 q 255 313 253 322 q 254 293 257 303 q 254 273 251 282 q 254 253 257 264 q 253 215 251 233 q 256 178 256 197 q 253 145 251 163 q 256 111 256 128 q 256 83 257 97 q 258 54 256 68 q 259 40 260 47 q 260 26 258 33 q 233 30 246 24 q 207 32 221 36 q 192 31 200 29 q 176 33 183 33 q 156 31 165 33 q 135 29 146 28 q 113 26 124 31 q 90 19 101 22 q 73 18 82 17 q 56 17 64 19 q 40 19 47 14 q 31 32 33 25 q 29 51 25 42 q 35 71 33 61 q 40 104 42 88 q 40 139 38 121 l 40 199 q 42 230 43 214 q 43 261 42 246 q 46 321 47 292 q 49 381 44 350 q 45 441 46 411 q 47 501 44 471 q 46 554 46 528 q 49 607 46 581 q 51 637 49 622 q 51 667 54 651 q 52 703 51 685 q 50 740 53 721 q 49 809 51 775 q 44 879 46 843 q 47 932 49 906 q 43 985 46 958 q 40 1024 39 1004 q 44 1063 42 1043 q 35 1070 40 1067 q 31 1081 29 1074 q 35 1091 29 1088 q 47 1097 42 1094 q 91 1090 68 1086 q 138 1090 114 1093 q 171 1090 154 1090 q 204 1093 188 1089 q 224 1094 214 1096 q 242 1099 233 1092 z "},"i":{"ha":315,"x_min":40,"x_max":286,"o":"m 226 1092 q 235 1092 231 1092 q 246 1092 240 1093 q 258 1070 253 1082 q 261 1044 264 1058 q 258 1008 258 1026 q 260 971 258 990 q 260 946 263 958 q 257 921 258 933 q 261 808 253 864 q 257 783 264 794 q 253 758 250 772 q 257 732 254 744 q 258 706 260 719 q 259 668 258 686 q 260 631 260 650 q 266 587 263 608 q 272 543 269 565 q 267 490 261 515 q 271 442 274 465 q 267 428 269 435 q 265 415 264 422 q 267 399 265 407 q 267 383 269 392 q 265 351 264 368 q 265 319 267 335 q 264 291 261 304 q 264 263 267 278 q 263 244 261 253 q 267 225 264 235 q 270 194 269 210 q 274 163 271 178 q 276 137 276 150 q 278 111 275 124 q 282 79 282 96 q 285 46 282 63 q 281 33 286 38 q 272 21 275 28 q 243 14 257 24 q 218 3 232 4 q 192 6 204 3 q 141 6 167 8 q 90 -3 115 4 q 76 -4 83 -6 q 67 4 69 -3 q 56 27 61 15 q 50 51 51 39 q 44 88 49 71 q 43 125 40 106 q 44 155 44 140 q 46 185 43 169 q 47 212 46 199 q 51 238 47 225 q 54 267 51 253 q 58 297 57 282 q 60 324 58 311 q 61 351 63 338 q 63 378 60 365 q 63 404 65 390 q 64 431 61 418 q 64 457 67 443 q 61 515 61 486 q 64 574 61 544 q 65 615 63 594 q 60 656 68 636 q 56 674 56 664 q 54 694 56 683 q 53 708 54 701 q 53 721 51 714 q 56 746 57 733 q 57 772 56 758 q 53 831 56 801 q 53 890 51 861 l 53 949 q 49 989 50 968 q 54 1029 49 1010 q 51 1048 47 1036 q 78 1071 56 1060 q 101 1082 89 1078 q 125 1089 113 1086 q 149 1090 136 1088 q 172 1089 161 1093 q 199 1089 186 1090 q 226 1092 213 1088 z "},"j":{"ha":694,"x_min":35,"x_max":667,"o":"m 433 1081 q 456 1081 447 1078 q 472 1087 464 1083 q 488 1092 479 1090 q 510 1092 496 1094 q 526 1090 518 1089 q 542 1085 535 1092 q 587 1078 565 1082 q 632 1075 608 1074 q 636 1060 633 1067 q 639 1044 639 1053 q 641 1022 639 1033 q 642 1000 643 1011 q 642 975 642 988 q 644 950 643 963 q 657 919 647 933 q 664 886 667 904 q 656 825 667 854 q 649 764 646 796 q 648 733 649 749 q 649 700 647 717 q 645 667 649 683 q 644 635 642 651 q 645 600 647 617 q 643 565 643 583 q 646 526 644 546 q 651 486 647 506 q 653 431 658 458 q 642 376 647 404 q 642 352 642 365 q 640 328 643 339 q 640 292 639 310 q 638 257 640 275 q 631 177 635 217 q 608 101 628 138 q 600 79 603 90 q 590 57 597 68 q 576 49 585 50 q 561 49 568 49 q 541 33 553 38 q 518 21 529 28 q 469 13 494 14 q 419 4 443 11 q 397 0 408 1 q 375 -4 386 -1 q 360 -2 368 -4 q 346 -4 353 0 q 317 1 331 -4 q 289 11 303 6 q 263 19 276 18 q 238 24 250 19 q 182 26 213 31 q 156 26 169 22 q 132 38 143 31 q 126 44 128 40 q 122 51 125 49 q 106 83 115 68 q 92 117 97 97 q 81 162 81 138 q 69 207 81 186 q 57 234 63 221 q 49 263 51 247 q 40 289 46 276 q 36 317 35 301 q 35 342 36 329 q 38 368 35 356 q 39 379 40 374 q 36 392 38 385 q 42 413 39 403 q 42 433 44 422 q 39 469 36 451 q 43 504 42 486 q 49 535 49 519 q 49 565 50 550 q 51 578 49 572 q 60 582 53 583 q 83 581 71 582 q 106 581 94 581 q 128 576 117 576 q 150 575 139 575 q 165 569 158 576 q 182 567 172 563 q 199 571 193 572 q 218 572 206 569 q 231 566 226 575 q 239 550 236 557 q 242 522 244 536 q 239 494 239 508 q 240 474 239 486 q 244 449 242 463 q 247 423 246 435 q 249 403 249 411 q 245 379 250 390 q 242 356 240 368 q 246 333 240 344 q 254 311 251 322 q 276 293 260 299 q 304 282 293 288 q 317 276 311 279 q 329 275 322 274 q 345 279 338 278 q 360 281 353 281 q 368 285 365 282 q 374 293 371 289 q 383 301 375 297 q 399 310 390 306 q 414 318 407 314 q 424 326 421 322 q 429 337 426 332 q 433 349 432 342 q 435 365 435 357 q 436 381 435 372 q 433 401 439 392 q 432 421 428 410 l 428 429 q 427 460 431 443 q 418 494 424 476 q 408 530 413 513 q 400 560 403 547 q 406 582 403 571 q 410 606 410 593 q 410 629 410 617 q 413 653 411 642 q 413 701 413 676 q 411 750 413 725 q 406 770 411 761 q 404 790 401 779 q 406 818 407 804 q 408 846 406 832 q 412 860 410 853 q 411 874 414 867 q 410 895 408 885 q 410 917 411 906 q 410 939 407 928 q 411 961 414 950 q 408 983 408 972 q 406 1004 408 993 q 403 1032 401 1018 q 408 1060 406 1046 q 418 1074 411 1069 q 433 1081 425 1079 z "},"k":{"ha":778,"x_min":32,"x_max":757,"o":"m 296 1092 q 306 1091 301 1094 q 314 1085 310 1088 q 315 1072 317 1078 q 314 1060 314 1067 q 312 1006 311 1032 q 311 954 313 981 q 310 911 314 932 q 304 869 307 890 q 297 840 301 854 q 292 810 293 825 q 291 797 292 803 q 289 783 290 790 q 300 801 296 792 q 311 821 304 811 q 323 851 319 835 q 335 881 326 867 q 338 899 336 890 q 344 914 339 907 q 354 942 351 928 q 364 969 357 956 q 372 986 367 978 q 379 1004 376 994 q 383 1019 382 1011 q 392 1033 385 1028 q 390 1041 390 1038 q 389 1049 390 1044 q 394 1056 392 1051 q 400 1063 397 1060 q 427 1052 413 1051 q 457 1049 442 1053 q 482 1056 469 1053 q 508 1057 494 1058 q 535 1058 522 1058 q 561 1054 547 1057 q 595 1051 578 1050 q 631 1051 613 1051 q 668 1049 651 1047 q 682 1038 675 1044 q 685 1021 689 1031 q 672 999 678 1010 q 658 979 665 989 q 649 960 651 969 q 640 940 646 950 q 632 923 635 932 q 624 906 629 914 q 598 857 610 882 q 571 810 586 832 q 562 793 565 801 q 551 778 558 785 q 542 762 546 771 q 533 746 539 753 q 519 724 526 735 q 506 700 511 714 q 481 655 493 678 q 458 608 469 632 q 449 594 454 600 q 440 579 443 588 q 428 558 433 568 q 415 536 422 547 q 427 533 421 532 q 440 537 433 535 q 451 539 446 539 q 463 533 457 539 q 496 513 475 517 q 506 505 503 511 q 515 496 508 499 q 533 486 524 490 q 547 472 542 482 q 559 454 553 463 q 571 436 565 446 q 585 414 578 425 q 594 389 592 403 q 605 363 597 375 q 617 338 613 351 q 638 268 629 306 q 656 257 646 261 q 676 246 667 253 q 690 242 683 246 q 704 242 697 239 q 724 245 714 247 q 744 240 735 243 q 753 230 750 238 q 753 215 757 222 q 744 185 747 200 q 742 154 740 169 q 740 123 744 139 q 736 92 736 107 q 733 69 736 81 q 732 46 729 57 q 732 29 735 38 q 731 13 729 21 q 729 -2 731 6 q 721 -15 728 -10 q 714 -23 717 -18 q 708 -32 711 -28 q 688 -35 697 -31 q 667 -33 678 -39 q 615 -19 640 -25 q 561 -10 589 -14 q 538 -2 550 -6 q 514 8 525 1 q 497 19 506 15 q 478 26 488 22 q 457 28 468 29 q 439 38 446 28 q 440 58 439 49 q 438 78 440 68 q 436 143 429 113 q 433 160 436 151 q 433 179 431 169 q 438 244 444 211 q 424 307 431 276 q 401 351 418 332 q 365 381 385 369 q 351 383 358 383 q 338 386 344 383 q 308 385 322 389 q 279 383 294 382 q 263 378 269 385 q 249 364 256 371 q 247 340 250 351 q 240 315 243 328 q 241 293 238 304 q 243 271 244 282 q 243 240 242 256 q 244 210 244 225 q 250 183 247 196 q 256 156 253 169 q 258 133 258 144 q 261 110 258 121 q 265 78 264 94 q 265 46 265 61 q 262 25 265 35 q 254 7 258 15 q 221 -1 238 4 q 197 -3 208 0 q 172 -4 185 -7 q 150 -6 161 -3 q 128 -13 139 -10 q 106 -18 117 -17 q 83 -14 94 -19 q 65 0 72 -11 q 44 10 57 11 q 37 13 42 11 q 33 19 32 14 q 33 34 32 26 q 39 47 33 42 q 44 78 49 61 q 44 111 40 96 q 46 133 47 122 q 47 156 44 144 q 51 188 51 171 q 51 221 51 204 q 55 276 54 249 q 53 331 56 303 q 56 389 56 360 q 56 447 56 418 q 56 565 60 506 q 56 592 58 579 q 56 619 54 606 q 58 651 58 635 q 54 683 58 668 q 54 710 54 697 q 57 735 54 722 q 57 753 60 744 q 54 772 54 763 q 56 797 56 785 q 53 822 56 810 q 49 860 51 842 q 46 899 46 879 q 48 926 43 914 q 51 954 53 939 q 53 997 51 975 q 56 1039 54 1018 q 45 1048 50 1043 q 42 1060 40 1053 q 45 1071 40 1067 q 53 1081 50 1075 q 62 1074 57 1078 q 72 1074 67 1071 q 93 1074 83 1076 q 113 1071 103 1072 q 138 1068 125 1068 q 163 1069 150 1068 q 188 1076 175 1075 q 215 1082 201 1078 q 242 1088 229 1085 q 271 1089 256 1090 q 283 1089 278 1088 q 296 1092 289 1090 z "},"l":{"ha":667,"x_min":53,"x_max":629,"o":"m 143 1092 q 167 1094 156 1093 q 190 1099 179 1096 q 221 1098 206 1100 q 247 1083 236 1096 q 259 1065 253 1075 q 264 1044 265 1056 q 263 997 257 1021 q 265 950 268 974 q 264 908 261 929 q 261 867 267 888 q 260 833 261 850 q 263 801 260 817 q 260 780 261 790 q 261 758 260 769 q 260 719 261 739 q 264 679 258 699 q 265 654 264 667 q 267 629 265 642 q 267 604 269 617 q 267 579 265 592 q 263 514 269 547 q 263 447 256 481 q 260 416 260 432 q 257 385 260 400 q 256 365 254 374 q 256 344 258 356 q 259 310 253 332 q 272 279 265 289 q 284 281 278 282 q 297 278 290 281 q 309 276 303 276 q 321 278 315 275 q 356 286 338 286 q 393 282 375 286 q 403 282 399 281 q 415 282 408 283 q 444 276 426 276 q 472 268 461 275 q 514 268 497 265 q 557 274 531 271 q 578 277 568 278 q 600 282 589 276 q 611 278 607 285 q 619 265 615 271 q 625 242 626 254 q 625 219 624 231 q 625 191 628 203 q 621 163 622 179 q 626 108 628 135 q 629 54 624 81 q 628 31 629 43 q 625 7 628 18 q 608 3 618 1 q 590 1 599 4 q 567 0 579 -1 q 543 -1 554 1 q 518 -3 531 -4 q 493 -3 506 -3 q 459 -1 476 0 q 425 3 442 -1 q 371 8 397 10 q 318 7 344 6 q 305 6 311 8 q 292 7 299 4 q 269 15 281 11 q 244 18 257 19 q 217 21 231 15 q 190 24 204 26 q 161 22 175 22 q 132 21 147 22 q 110 18 121 18 q 89 14 100 18 q 74 17 82 15 q 63 28 65 18 q 58 75 53 51 q 60 122 63 99 q 63 153 63 138 q 68 185 64 169 q 68 201 71 193 q 68 215 65 208 q 70 237 71 226 q 69 258 69 247 q 71 276 68 268 q 75 294 74 285 q 74 314 72 304 q 74 335 75 324 l 74 389 q 70 415 72 401 q 71 440 68 428 q 69 499 68 469 q 67 556 71 528 q 66 587 65 571 q 67 618 67 603 q 66 649 67 633 q 69 679 65 664 q 69 712 69 696 q 71 743 68 728 q 71 763 74 754 q 71 783 68 772 q 73 806 74 794 q 72 829 72 818 q 73 900 74 865 q 74 971 72 935 q 69 996 71 983 q 67 1022 67 1008 q 63 1040 67 1032 q 60 1057 60 1047 q 72 1067 65 1064 q 85 1076 78 1071 q 99 1076 92 1072 q 113 1082 106 1081 q 127 1089 119 1085 q 143 1092 135 1093 z "},"m":{"ha":935,"x_min":51,"x_max":914,"o":"m 801 1129 q 817 1133 810 1129 q 833 1135 825 1138 q 850 1132 842 1132 q 865 1129 858 1132 q 883 1124 874 1126 q 899 1114 892 1122 q 899 1087 901 1100 q 893 1060 896 1074 q 894 1022 893 1040 q 893 983 894 1003 q 890 948 889 965 q 890 914 890 931 q 890 891 889 903 q 893 868 892 879 q 890 836 890 853 q 892 804 889 819 q 894 774 894 789 q 892 743 893 758 q 890 711 889 728 q 888 679 890 694 q 887 642 886 660 q 888 604 888 624 q 889 588 886 596 q 889 572 892 581 q 887 542 886 557 q 886 513 888 528 q 887 473 888 493 q 890 433 886 453 q 890 401 892 418 q 890 368 889 385 q 896 331 893 349 q 903 293 899 313 q 906 265 906 279 q 908 238 906 251 q 911 217 908 226 q 913 197 914 208 q 909 156 910 176 q 911 114 908 135 q 911 97 913 106 q 908 79 910 89 q 906 72 908 75 q 903 67 904 69 q 906 58 904 63 q 904 47 907 53 q 899 39 903 42 q 892 33 896 36 q 874 39 883 42 q 853 38 864 36 q 806 33 829 32 q 760 36 783 33 q 722 31 740 33 q 683 31 703 28 q 643 56 661 39 q 638 74 638 64 q 642 93 639 85 q 646 128 647 111 q 646 164 644 146 q 642 221 642 190 q 641 244 644 232 q 640 268 638 257 q 640 338 644 303 q 642 351 640 344 q 643 365 643 358 q 644 399 646 382 q 644 433 642 417 q 646 462 646 449 q 647 490 646 475 q 647 542 651 515 q 641 601 647 572 q 633 661 635 631 q 619 605 626 633 q 610 547 613 576 q 601 490 610 518 q 586 435 593 463 q 581 404 582 419 q 578 374 579 389 q 575 349 579 361 q 568 325 571 338 q 561 304 565 314 q 554 283 557 294 q 546 263 551 272 q 536 244 540 254 q 531 217 532 231 q 528 188 529 203 q 527 161 528 175 q 521 136 526 147 q 514 89 524 111 q 501 43 504 67 q 491 38 497 36 q 479 43 485 40 q 455 50 468 50 q 429 49 442 50 q 394 51 411 51 q 360 60 376 51 q 339 92 349 74 q 333 107 333 99 q 331 124 333 115 q 326 138 329 131 q 321 151 324 144 q 322 185 319 168 q 328 217 325 201 q 316 247 321 232 q 306 278 311 263 q 303 301 300 289 q 299 325 306 314 q 294 342 294 333 q 290 361 293 351 q 285 389 286 375 q 278 414 285 403 q 267 453 271 433 q 257 493 264 474 q 258 431 251 461 q 261 369 264 401 q 258 320 261 344 q 258 272 254 296 q 260 234 260 253 q 264 196 261 215 q 267 159 267 178 q 265 121 268 140 q 265 76 263 99 q 258 31 267 53 q 238 22 249 25 q 217 19 228 18 q 191 18 204 21 q 165 13 178 15 q 138 12 151 11 q 113 19 125 13 q 83 28 99 28 q 56 40 67 28 q 56 69 56 56 q 58 96 56 82 q 56 117 57 107 q 58 138 54 128 q 60 156 63 147 q 60 175 57 165 q 64 208 63 190 q 68 242 65 225 q 69 278 72 260 q 71 314 67 296 q 72 360 74 338 q 74 406 69 382 q 73 431 75 418 q 71 457 71 443 q 68 514 71 485 q 63 571 65 543 q 60 615 61 593 q 58 658 58 636 q 56 677 58 668 q 56 697 54 686 q 54 720 57 708 q 54 743 51 732 q 58 778 56 761 q 58 813 60 794 q 61 829 57 821 q 65 846 65 838 q 67 875 65 861 q 72 903 69 889 q 68 957 67 931 q 72 1011 69 983 q 76 1035 75 1022 q 85 1058 78 1047 q 108 1058 96 1058 q 131 1063 119 1058 q 161 1069 146 1069 q 192 1065 176 1068 q 223 1064 207 1067 q 254 1061 239 1061 q 276 1060 265 1061 q 297 1069 288 1060 q 310 1063 304 1064 q 322 1060 315 1061 q 347 1015 339 1040 q 365 967 356 990 q 376 934 368 950 q 386 901 383 918 q 392 880 388 890 q 399 858 397 869 q 403 833 401 846 q 411 807 406 819 q 418 765 411 785 q 431 725 425 746 q 439 694 436 710 q 449 665 442 679 q 457 639 451 651 q 463 611 463 626 q 467 588 465 600 q 476 567 469 576 q 485 590 485 578 q 493 614 486 603 q 499 638 499 625 q 504 661 500 650 q 510 692 508 676 q 518 721 511 707 q 521 739 522 729 q 524 757 519 749 q 535 786 531 771 q 538 817 539 801 q 539 833 536 825 q 546 848 542 840 q 553 863 550 856 q 557 878 557 869 q 565 914 558 897 q 571 949 572 931 q 574 969 572 960 q 575 988 575 978 q 582 1013 579 1000 q 592 1039 585 1026 q 600 1077 594 1058 q 618 1111 606 1096 q 627 1110 624 1114 q 633 1103 631 1106 q 649 1115 638 1107 q 669 1114 660 1108 q 689 1122 678 1119 q 708 1123 699 1122 q 728 1126 718 1124 q 744 1126 736 1129 q 760 1125 751 1124 q 781 1126 771 1124 q 801 1129 790 1129 z "},"n":{"ha":749,"x_min":19,"x_max":713,"o":"m 625 1139 q 653 1144 639 1144 q 679 1146 667 1143 q 692 1144 686 1146 q 706 1140 699 1142 q 710 1126 708 1133 q 711 1113 713 1119 q 709 1085 708 1099 q 710 1057 710 1071 q 709 1010 707 1033 q 710 963 711 986 q 709 931 708 947 q 707 900 710 915 q 707 819 704 860 q 704 738 710 778 q 701 708 700 722 q 699 679 701 694 q 697 651 696 665 q 694 624 697 638 q 694 592 692 608 q 699 560 696 575 q 697 544 701 551 q 693 526 692 536 q 692 488 694 507 q 692 450 689 469 q 691 420 694 435 q 690 390 688 406 q 694 345 694 368 q 696 299 693 322 q 693 260 699 279 q 694 221 688 240 q 695 193 699 207 q 694 165 692 179 q 697 129 699 147 q 694 93 694 111 q 697 64 697 78 q 699 35 696 50 q 688 4 703 17 q 678 6 682 3 q 668 7 674 10 q 647 4 657 4 q 626 1 638 4 q 605 8 615 4 q 583 8 594 11 q 557 9 569 6 q 531 11 544 13 q 509 15 519 10 q 488 17 499 21 q 471 17 479 14 q 456 22 463 19 q 440 34 447 28 q 428 51 432 40 q 420 78 421 63 q 417 107 419 93 q 406 141 410 124 q 397 175 403 158 q 392 199 396 188 q 383 222 388 211 q 376 239 381 232 q 369 253 372 246 q 361 293 369 276 q 353 320 354 306 q 344 347 351 335 q 335 363 340 356 q 328 381 329 371 q 314 423 322 403 q 299 464 306 443 q 292 480 296 472 q 288 496 288 488 q 281 515 286 507 q 272 535 275 524 q 244 593 264 568 q 243 547 240 572 q 240 519 242 533 q 238 490 238 506 q 238 447 239 468 q 238 403 236 425 q 238 374 239 388 q 239 344 236 360 q 240 310 242 328 q 242 275 239 293 q 242 257 244 265 q 242 239 240 249 q 245 198 240 218 q 247 158 250 178 q 250 128 246 143 q 251 97 254 113 q 251 66 250 82 q 249 35 251 50 q 249 7 247 22 q 240 -18 251 -8 q 226 -31 235 -28 q 208 -32 217 -33 q 188 -31 197 -29 q 168 -35 178 -33 q 140 -39 153 -36 q 111 -42 126 -42 q 86 -35 99 -36 q 60 -32 74 -35 q 45 -19 49 -31 q 36 1 42 -7 q 31 22 29 11 q 31 42 32 32 q 31 80 32 61 q 31 118 31 99 q 30 142 32 131 q 29 167 28 154 q 27 194 29 181 q 28 221 25 207 q 23 254 26 238 q 22 288 19 271 q 25 313 25 300 q 28 338 25 325 q 26 353 29 346 q 25 369 24 361 q 25 397 25 383 q 28 425 25 411 q 27 453 29 439 q 25 481 25 467 q 24 511 24 496 q 22 542 25 526 q 26 615 28 578 q 26 690 24 653 q 27 715 29 703 q 25 740 25 728 q 26 757 24 749 q 28 774 29 765 q 28 812 28 793 q 33 850 29 831 q 35 883 36 867 q 38 915 33 899 q 41 945 40 931 q 42 975 42 960 q 41 1003 43 989 q 44 1029 39 1017 q 46 1042 47 1036 q 44 1053 44 1047 q 52 1062 47 1060 q 63 1065 57 1064 q 92 1067 78 1067 q 122 1074 107 1068 q 140 1072 131 1076 q 157 1072 149 1068 q 176 1071 167 1076 q 194 1068 185 1065 q 215 1071 206 1071 q 235 1069 225 1071 q 256 1065 246 1064 q 276 1064 265 1067 q 303 1053 290 1060 q 331 1039 317 1046 q 361 1015 349 1032 q 376 978 374 999 q 385 949 381 963 q 397 921 390 935 q 407 899 403 910 q 415 876 411 888 q 436 835 426 856 q 453 790 446 814 q 460 764 458 778 q 467 738 463 750 q 476 705 471 721 q 483 672 481 689 q 485 652 485 663 q 490 632 486 642 q 496 634 493 633 q 499 640 499 635 q 501 663 500 651 q 500 686 501 675 q 504 722 504 704 q 503 757 504 739 q 500 782 500 769 q 497 806 500 794 q 496 835 494 821 q 494 864 497 849 q 494 895 492 879 q 494 926 497 911 q 494 947 493 938 q 493 968 494 957 q 481 1021 485 994 q 481 1048 483 1035 q 479 1075 478 1061 q 476 1085 478 1081 q 475 1096 475 1090 q 481 1106 478 1101 q 489 1114 483 1111 q 517 1112 503 1111 q 544 1119 531 1113 q 558 1126 551 1122 q 574 1129 565 1129 q 599 1132 586 1131 q 625 1139 613 1133 z "},"o":{"ha":743,"x_min":50,"x_max":708,"o":"m 326 1106 q 344 1106 335 1107 q 361 1107 353 1106 q 383 1100 372 1104 q 406 1094 394 1096 q 442 1088 425 1092 q 479 1083 460 1085 q 499 1077 490 1082 q 517 1071 507 1072 q 531 1067 524 1068 q 544 1060 539 1067 q 576 1036 560 1046 q 596 1019 588 1029 q 613 1001 604 1010 q 620 990 618 996 q 625 976 622 983 q 632 964 628 969 q 640 953 636 958 q 642 944 643 949 q 643 935 640 939 q 653 913 647 924 q 661 890 658 901 q 669 863 664 876 q 676 836 674 850 q 684 812 679 824 q 689 788 689 800 q 692 763 692 775 q 696 739 693 750 q 698 725 699 732 q 700 711 697 718 q 708 636 708 674 q 707 606 706 621 q 707 575 708 590 q 706 553 708 564 q 707 532 704 543 q 703 505 706 518 q 701 478 701 492 q 695 434 700 456 q 692 390 690 413 q 690 364 689 378 q 686 338 690 350 q 685 320 685 329 q 682 304 686 311 q 674 276 676 290 q 664 249 672 261 q 645 201 650 226 q 633 153 640 176 q 623 124 626 139 q 613 94 619 110 q 599 78 606 86 q 586 61 593 69 q 576 53 582 56 q 564 49 569 51 q 538 34 551 40 q 511 22 525 28 q 493 15 501 19 q 474 8 485 10 q 451 6 463 6 q 426 4 439 7 q 363 7 397 3 q 341 8 351 8 q 319 10 331 7 q 276 19 297 13 q 238 40 256 26 q 207 65 222 56 q 172 99 188 81 q 142 136 157 117 q 129 162 136 150 q 117 188 122 174 q 101 225 110 207 q 90 263 93 243 q 81 288 86 276 q 74 314 76 300 q 69 334 72 325 q 65 354 67 343 q 58 385 63 369 q 54 415 53 400 q 54 456 54 436 q 53 497 54 476 q 53 513 50 504 q 53 528 56 521 q 53 548 50 539 q 53 568 56 557 q 51 600 50 583 q 54 632 53 617 q 51 664 51 647 q 51 696 51 681 q 53 715 51 706 q 57 732 56 724 q 56 751 57 742 q 58 768 56 760 q 65 800 64 783 q 68 833 65 817 q 74 852 69 843 q 76 871 78 861 q 90 917 76 897 q 110 961 103 938 q 118 983 113 972 q 128 1004 124 993 q 156 1035 139 1024 q 193 1056 174 1047 q 217 1072 204 1065 q 243 1085 231 1078 q 326 1106 282 1106 z "},"p":{"ha":713,"x_min":50,"x_max":688,"o":"m 257 1090 q 276 1090 267 1093 q 294 1089 285 1088 q 347 1076 321 1082 q 401 1072 374 1069 q 423 1075 413 1076 q 444 1076 433 1074 q 469 1076 457 1076 q 493 1069 482 1076 q 510 1058 501 1063 q 529 1050 518 1053 q 548 1038 540 1046 q 567 1026 556 1029 q 588 1013 578 1021 q 603 992 597 1004 q 622 954 611 972 q 643 917 633 936 q 656 892 654 906 q 663 865 657 878 q 667 847 665 856 q 671 828 668 838 q 679 798 675 813 q 686 768 683 783 q 687 739 686 753 q 685 710 688 725 q 676 647 682 678 q 665 583 671 615 q 660 568 665 575 q 653 553 656 561 q 644 529 649 542 q 632 506 639 517 q 613 488 622 496 q 594 468 603 479 q 566 440 582 451 q 533 418 550 429 q 503 394 519 403 q 468 378 486 385 q 438 369 453 371 q 407 364 422 368 q 392 361 400 361 q 376 360 383 361 q 355 350 365 354 q 333 344 344 346 q 306 344 319 344 q 281 338 292 344 q 277 326 276 332 q 276 314 278 321 q 280 267 275 290 q 289 219 285 243 q 293 187 289 203 q 296 154 297 171 q 297 125 294 139 q 301 97 299 111 q 301 76 304 86 q 299 56 299 67 q 286 31 299 43 q 263 23 275 28 q 238 19 250 18 q 213 17 226 18 q 189 24 200 15 q 168 31 179 31 q 147 26 157 32 q 133 24 140 24 q 118 21 125 25 q 101 11 108 18 q 86 -3 93 4 q 76 -1 81 -3 q 65 1 71 1 q 56 24 61 13 q 53 49 50 36 q 57 67 51 60 q 65 85 63 75 q 66 99 69 92 q 64 114 63 107 q 63 131 67 122 q 63 149 60 139 q 65 167 65 158 q 63 186 64 176 q 71 253 68 219 q 67 322 74 288 q 65 335 65 329 q 67 346 64 340 q 68 371 69 358 q 71 396 67 383 q 77 457 78 426 q 82 519 76 488 q 86 547 85 533 q 86 574 88 560 q 78 585 78 576 q 76 601 78 594 q 79 631 78 617 q 79 661 81 646 q 88 664 82 661 q 88 694 88 679 q 85 725 88 710 q 78 755 82 740 q 76 785 75 769 q 78 810 76 796 q 76 836 79 824 q 69 864 74 851 q 67 883 65 876 q 64 913 64 899 q 63 943 64 928 q 65 969 65 957 q 67 996 65 982 q 67 1027 67 1011 q 78 1054 67 1043 q 93 1067 83 1064 q 113 1072 103 1069 q 169 1080 151 1078 q 192 1083 186 1082 q 199 1083 199 1083 q 201 1083 199 1083 q 215 1085 204 1083 q 257 1090 226 1086 z "},"q":{"ha":732,"x_min":26,"x_max":713,"o":"m 360 1076 q 376 1076 368 1079 q 392 1074 383 1072 q 408 1071 400 1075 q 424 1069 415 1067 q 484 1052 454 1063 q 543 1033 514 1042 q 556 1025 550 1031 q 567 1013 561 1019 q 597 992 581 999 q 626 971 614 985 q 638 953 633 963 q 651 935 643 943 q 663 915 658 925 q 671 893 668 904 q 678 876 674 883 q 686 860 683 869 q 697 838 689 849 q 706 815 704 828 q 713 778 713 797 q 710 742 713 760 q 711 708 713 725 q 708 674 710 690 q 706 638 704 656 q 706 600 707 619 q 703 575 703 588 q 701 551 704 563 q 699 530 699 540 q 699 508 700 519 q 696 474 696 490 q 693 439 696 457 q 690 413 690 426 q 685 388 690 400 q 676 360 679 374 q 671 331 674 346 q 662 308 665 319 q 653 285 658 296 q 643 262 646 274 q 633 239 640 250 q 611 200 622 222 q 597 184 604 192 q 583 167 590 176 q 558 150 572 154 q 549 135 557 139 q 539 122 542 132 q 534 112 536 117 q 535 101 532 107 q 549 83 540 90 q 564 65 557 76 q 580 52 571 57 q 594 36 589 47 q 606 18 600 26 q 617 0 611 10 q 628 -29 624 -14 q 644 -56 633 -44 q 655 -62 650 -58 q 665 -69 660 -65 l 665 -93 q 658 -100 663 -97 q 649 -106 653 -103 q 635 -101 642 -103 q 622 -107 628 -100 q 604 -126 613 -117 q 586 -147 596 -136 q 575 -165 579 -156 q 564 -183 571 -175 q 549 -202 557 -193 q 536 -222 542 -211 q 532 -236 533 -229 q 526 -249 531 -243 q 518 -254 524 -254 q 510 -250 513 -254 q 492 -233 503 -239 q 474 -218 482 -226 q 459 -203 465 -211 q 446 -189 453 -196 q 433 -178 440 -182 q 419 -167 425 -174 q 408 -150 413 -160 q 397 -132 404 -140 q 388 -111 392 -121 q 376 -94 383 -101 q 364 -70 369 -82 q 356 -44 358 -58 q 349 -23 356 -32 q 335 -4 342 -14 q 286 11 311 7 q 238 8 261 15 q 225 15 229 7 q 214 26 221 24 q 203 42 206 33 q 197 58 200 50 q 167 99 183 83 q 158 113 160 106 q 151 128 157 121 q 140 144 144 136 q 129 161 135 153 q 114 185 122 174 q 99 210 106 197 q 83 239 92 225 q 71 269 74 253 q 49 340 60 306 q 32 411 39 375 q 29 437 32 424 q 31 461 26 450 q 33 488 35 475 q 35 514 32 501 q 41 541 39 528 q 47 568 43 554 q 53 593 50 581 q 50 617 56 606 q 56 633 56 628 q 63 655 58 644 q 64 676 68 665 q 63 694 61 685 q 65 711 65 703 q 70 715 68 714 q 75 719 72 717 q 74 742 76 731 q 79 764 72 754 q 96 819 89 792 q 117 872 103 847 q 124 894 122 883 q 131 914 125 904 q 149 947 143 929 q 167 982 156 965 q 173 994 171 988 q 178 1008 175 1001 q 185 1015 181 1013 q 193 1022 190 1018 q 199 1031 196 1026 q 204 1040 201 1036 q 225 1051 214 1047 q 247 1060 236 1056 q 270 1065 258 1063 q 294 1067 282 1068 q 316 1070 306 1071 q 338 1072 326 1069 q 349 1074 343 1074 q 360 1076 354 1074 z "},"r":{"ha":774,"x_min":28,"x_max":760,"o":"m 210 1088 q 267 1088 239 1089 q 324 1088 296 1088 q 358 1087 342 1090 q 392 1078 375 1083 q 409 1076 400 1075 q 426 1075 418 1076 q 507 1051 468 1067 q 586 1022 546 1035 q 599 1015 593 1019 q 611 1008 604 1011 q 624 996 619 1003 q 633 981 629 989 q 648 955 640 968 q 664 929 656 942 q 670 903 665 915 q 676 878 675 892 q 681 849 678 863 q 685 821 683 836 q 685 801 683 810 q 689 781 686 792 q 687 765 689 774 q 688 749 685 757 q 675 696 686 721 q 653 646 664 671 q 631 605 642 625 q 608 565 621 585 q 597 551 603 558 q 585 538 590 544 q 560 508 574 522 q 538 478 547 494 q 553 464 546 471 q 571 450 561 457 q 588 435 582 444 q 600 414 594 425 q 618 356 614 389 q 625 331 621 343 q 632 306 629 318 q 638 282 635 294 q 638 257 640 269 q 636 249 635 253 q 639 242 638 246 q 658 247 649 244 q 675 253 667 249 q 701 258 688 260 q 725 268 714 257 q 735 269 729 272 q 742 260 742 267 q 742 231 744 244 q 742 201 739 217 q 745 172 744 186 q 749 142 746 157 q 749 110 747 126 q 750 79 751 94 q 756 39 753 60 q 757 -1 760 18 q 743 -1 750 -1 q 729 -1 736 0 q 706 -6 718 -4 q 683 -11 694 -8 q 665 -11 674 -11 q 649 -14 657 -11 q 622 -18 635 -17 q 593 -17 608 -19 q 570 -12 582 -14 q 546 -10 558 -11 q 526 -4 536 -6 q 504 0 515 -3 q 490 15 497 7 q 475 28 483 22 q 464 40 467 32 q 454 56 461 49 q 443 68 449 63 q 435 81 438 74 q 422 108 425 93 q 414 139 419 124 q 413 191 414 165 q 406 243 411 217 q 399 262 403 253 q 394 281 394 271 q 389 318 393 300 q 376 351 385 336 q 374 365 374 356 q 360 377 365 369 q 349 390 356 385 q 307 406 331 394 q 292 410 300 410 q 276 408 285 410 q 263 390 265 401 q 256 368 260 379 q 253 355 253 361 q 253 342 254 349 q 261 321 263 333 q 263 297 260 308 q 264 270 265 283 q 268 243 263 257 q 277 212 274 228 q 279 179 281 196 q 280 160 278 169 q 282 140 282 150 q 287 101 282 119 q 296 63 292 82 q 298 51 299 56 q 296 40 297 46 q 270 31 285 31 q 244 39 256 32 q 227 33 236 32 q 210 36 218 33 q 187 29 199 33 q 164 26 175 25 q 131 24 147 28 q 100 18 115 21 q 77 16 89 15 q 54 13 65 17 q 33 17 40 10 q 29 32 28 24 q 32 47 31 40 l 40 122 q 48 158 44 140 q 49 194 51 175 q 46 216 49 206 q 44 238 43 226 q 47 267 44 253 q 49 297 49 282 q 51 327 53 313 q 51 357 50 342 q 50 380 53 368 q 49 403 47 392 q 45 445 47 424 q 47 488 43 467 q 47 501 49 494 q 46 514 46 507 q 47 535 49 525 q 44 557 44 546 q 45 581 47 568 q 51 603 43 593 q 51 628 49 615 q 50 656 53 642 q 49 678 51 667 q 51 701 47 690 q 51 721 56 711 q 51 740 47 731 q 54 760 54 750 q 57 781 54 769 q 55 811 58 800 q 47 842 51 822 q 41 901 38 871 q 39 963 44 932 q 40 981 38 972 q 44 1000 42 990 q 45 1016 44 1008 q 44 1032 46 1024 q 39 1043 42 1038 q 39 1056 36 1049 q 61 1076 47 1071 q 90 1085 75 1082 q 125 1085 110 1088 q 143 1083 140 1083 q 160 1083 151 1086 q 176 1081 168 1081 q 193 1083 185 1079 q 210 1088 201 1086 z "},"s":{"ha":667,"x_min":26,"x_max":638,"o":"m 347 1106 q 389 1103 368 1108 q 431 1096 410 1099 q 455 1091 443 1093 q 478 1083 467 1089 q 503 1078 490 1078 q 528 1068 517 1078 q 543 1059 535 1063 q 560 1049 551 1056 q 570 1030 567 1042 q 579 1008 574 1018 q 592 984 586 996 q 600 957 597 972 q 618 897 613 929 q 628 832 624 864 q 628 799 628 815 q 629 764 628 782 q 628 737 628 750 q 626 710 629 724 q 624 685 624 699 q 614 664 624 672 q 592 674 603 672 q 569 683 581 676 q 550 688 560 686 q 529 690 540 689 q 502 683 515 686 q 476 674 489 679 q 472 678 474 676 q 469 683 469 679 q 467 700 468 692 q 464 718 465 708 q 462 742 463 729 q 460 765 461 754 q 455 791 454 778 q 453 815 456 804 q 447 842 450 829 q 438 865 444 854 q 430 878 433 871 q 419 885 426 885 q 399 892 408 886 q 378 894 389 899 q 351 888 364 892 q 326 876 338 885 q 297 847 310 861 q 283 826 289 838 q 274 803 278 815 q 269 778 272 790 q 267 754 267 767 q 263 726 265 739 q 264 699 260 713 q 268 669 264 683 q 276 642 272 656 q 288 628 281 632 q 301 619 294 624 q 340 610 321 608 q 366 610 353 611 q 393 610 379 610 q 415 611 404 608 q 436 613 425 614 q 478 607 457 614 q 518 590 499 600 q 534 579 526 585 q 549 569 542 574 q 581 533 569 557 q 607 490 593 510 q 618 463 614 476 q 626 435 622 449 q 630 414 629 424 q 631 393 631 404 q 635 369 633 381 q 636 344 638 357 l 636 271 q 631 224 633 247 q 621 178 628 201 q 613 147 618 163 q 600 117 607 132 q 584 95 593 106 q 564 82 575 85 q 547 74 554 81 q 532 63 540 67 q 508 49 519 57 q 485 35 497 40 q 470 26 478 31 q 453 18 463 21 q 432 14 442 17 q 411 13 422 11 q 394 14 403 14 q 378 14 386 14 q 348 18 363 15 q 318 21 333 21 q 281 32 300 29 q 243 40 263 35 q 194 58 218 49 q 146 82 169 68 q 133 97 139 90 q 119 111 126 104 q 93 149 107 131 q 72 192 79 168 q 66 215 69 203 q 61 239 63 226 q 60 265 61 253 q 60 290 60 278 q 59 317 61 304 q 58 343 57 329 q 56 363 57 353 q 50 383 56 374 q 37 397 44 390 q 26 414 29 403 q 29 430 28 422 q 33 444 31 438 q 55 450 44 450 q 76 449 65 450 q 93 442 85 446 q 111 438 101 439 q 133 432 122 435 q 154 428 143 429 q 176 426 165 429 q 197 422 186 424 q 207 420 203 422 q 217 415 211 418 q 217 386 218 400 q 221 360 215 372 q 235 310 226 335 q 264 271 244 286 q 287 261 275 265 q 311 258 299 257 q 333 256 322 256 q 353 261 343 256 q 379 271 365 268 q 404 281 393 274 q 417 294 411 288 q 429 307 422 300 q 439 322 436 313 q 446 338 442 331 q 451 356 451 346 q 453 376 450 367 q 453 407 456 392 q 451 438 451 422 q 446 452 449 444 q 438 467 443 460 q 420 481 431 476 q 399 489 410 485 q 381 496 390 493 q 363 497 372 499 q 348 497 356 497 q 333 494 340 497 q 310 492 322 493 q 288 490 299 490 q 270 496 278 490 q 251 500 263 501 q 239 502 244 500 q 226 504 233 504 q 196 509 211 507 q 167 522 181 511 q 156 530 161 526 q 144 536 150 533 q 125 552 133 542 q 107 569 117 563 q 94 591 100 581 q 81 613 88 601 q 74 638 74 624 q 72 664 75 651 q 67 702 71 683 q 63 740 63 721 q 62 759 63 750 q 61 776 61 768 q 63 805 60 792 q 65 832 65 818 q 69 858 65 846 q 75 882 74 869 q 83 910 78 897 q 93 938 89 924 q 100 958 97 949 q 110 976 103 968 q 122 996 117 985 q 133 1015 126 1007 q 151 1035 143 1024 q 169 1051 158 1046 q 192 1061 181 1057 q 214 1071 203 1065 q 238 1079 226 1074 q 263 1089 250 1085 q 282 1093 274 1090 q 301 1097 290 1096 q 315 1101 308 1097 q 328 1104 321 1104 q 347 1106 340 1104 z "},"t":{"ha":757,"x_min":38,"x_max":731,"o":"m 289 1086 q 301 1090 296 1088 q 313 1089 306 1092 q 334 1088 324 1085 q 356 1089 344 1090 q 394 1090 375 1092 q 432 1089 413 1088 q 452 1088 443 1090 q 472 1086 461 1086 q 501 1085 488 1085 q 531 1085 515 1086 q 551 1082 542 1082 q 572 1079 561 1082 q 601 1076 588 1076 q 629 1074 615 1076 q 652 1072 640 1071 q 675 1075 664 1072 q 697 1075 686 1075 q 718 1078 707 1075 q 725 1072 721 1075 q 731 1063 729 1068 q 725 1038 728 1050 q 724 1013 722 1025 q 724 985 722 999 q 722 957 725 971 q 722 894 725 925 q 718 831 718 863 q 717 809 717 819 q 718 788 718 799 q 713 774 715 782 q 703 767 710 767 q 674 767 688 768 q 646 768 661 767 q 627 769 636 767 q 608 772 618 772 q 574 777 592 776 q 539 776 557 778 q 518 773 528 775 q 497 771 508 771 q 486 761 489 771 q 478 740 483 750 q 474 718 472 729 q 477 628 476 674 q 474 539 478 583 q 470 478 476 508 q 467 417 464 449 q 464 385 468 401 q 461 354 460 369 q 460 326 460 340 q 461 297 461 313 q 458 274 458 286 q 454 250 457 261 q 451 215 451 232 q 447 179 450 197 q 445 152 449 165 q 444 125 442 139 q 442 99 447 111 q 438 71 438 86 q 438 36 431 53 q 430 27 433 32 q 419 25 426 22 q 397 24 408 26 q 374 21 385 22 q 326 24 354 26 q 315 26 321 24 q 304 28 310 29 q 288 33 293 25 q 279 49 283 42 q 286 70 286 58 q 290 93 286 82 q 294 111 290 103 q 296 128 297 119 q 297 158 296 143 q 290 188 297 172 q 294 213 294 200 q 290 239 293 226 q 291 247 289 243 q 292 254 293 251 q 288 281 289 268 q 283 307 286 294 l 283 389 q 282 411 285 400 q 281 433 279 422 q 278 460 281 447 q 278 488 275 474 q 279 524 281 507 q 276 560 278 542 q 276 586 276 574 q 276 611 275 599 q 275 635 278 624 q 275 660 272 647 q 277 681 278 671 q 279 701 276 690 q 279 715 282 708 q 276 729 276 722 q 272 762 275 746 q 267 793 268 778 q 251 814 264 810 q 220 819 236 819 q 188 818 204 819 q 168 816 178 819 q 147 817 158 813 q 102 826 125 828 q 56 826 79 824 q 43 841 43 829 q 43 861 43 853 q 41 892 44 876 q 42 924 38 908 q 42 948 44 936 q 42 972 39 960 q 46 1006 46 989 q 49 1040 46 1024 q 47 1051 51 1047 q 39 1061 42 1056 q 47 1073 40 1068 q 61 1075 54 1078 q 90 1078 76 1074 q 118 1079 103 1082 q 172 1078 146 1079 q 225 1086 199 1078 q 257 1085 240 1086 q 289 1086 274 1085 z "},"u":{"ha":667,"x_min":28,"x_max":646,"o":"m 600 1114 q 619 1108 610 1107 q 639 1113 629 1110 q 645 1101 644 1108 q 644 1086 646 1093 q 644 1070 646 1078 q 642 1054 642 1063 q 635 1024 643 1038 q 624 993 626 1010 q 608 926 619 960 q 603 901 608 913 q 600 876 599 889 q 601 847 601 861 q 603 818 600 832 q 606 796 603 803 q 608 774 608 789 q 613 747 610 760 q 617 721 615 735 q 622 699 618 710 q 624 678 625 689 q 622 633 622 656 q 617 589 622 611 q 617 530 615 560 q 614 471 619 500 q 614 435 613 453 q 613 397 615 417 q 609 381 613 389 q 607 363 606 372 q 607 332 608 347 q 603 301 606 317 q 599 284 600 293 q 599 265 597 275 q 594 238 596 251 q 590 211 592 225 q 584 182 589 196 q 575 154 579 168 q 568 135 571 144 q 558 118 565 126 q 547 97 551 108 q 535 75 542 85 q 501 42 519 57 q 460 24 483 28 q 408 10 435 14 q 356 15 382 7 q 328 17 342 19 q 303 22 315 15 q 285 29 293 25 q 267 32 276 33 q 240 63 256 49 q 206 75 225 76 q 190 87 197 79 q 175 101 182 94 q 163 113 169 108 q 151 124 156 117 q 136 151 143 138 q 118 176 129 165 q 109 193 111 183 q 103 211 107 203 q 93 237 100 225 q 83 263 86 249 q 78 286 79 274 q 74 310 76 299 q 58 367 67 339 q 51 426 50 396 q 51 461 54 444 q 49 496 47 478 q 47 522 47 508 q 44 547 47 535 q 38 597 40 571 q 42 646 36 622 q 37 688 39 667 q 32 728 35 708 q 29 744 31 736 q 31 758 28 751 q 35 797 36 778 q 35 836 33 817 q 35 871 36 854 q 35 906 35 888 q 33 922 35 914 q 33 938 31 929 q 35 965 36 951 q 35 993 33 979 q 39 1019 39 1006 q 40 1038 38 1029 q 46 1054 43 1046 q 58 1051 53 1053 q 69 1050 63 1049 q 106 1050 88 1054 q 140 1054 124 1046 q 151 1056 146 1057 q 161 1056 156 1056 q 179 1053 171 1053 q 197 1053 188 1054 q 200 1047 200 1050 q 200 1040 200 1043 q 201 1019 201 1029 q 201 999 201 1010 q 202 975 200 986 q 204 951 204 964 q 211 888 203 921 q 219 857 218 872 q 222 826 221 842 q 224 807 222 817 q 225 788 226 797 q 228 763 225 775 q 229 736 231 750 q 227 665 222 700 q 232 593 232 629 q 243 538 236 565 q 250 482 250 511 q 263 440 254 461 q 276 401 271 421 q 289 360 282 381 q 297 347 292 353 q 307 335 301 340 q 322 331 314 331 q 338 331 329 332 q 351 334 344 331 q 357 346 357 338 q 364 376 361 360 q 382 394 367 392 q 392 417 388 406 q 400 443 397 429 q 399 459 401 451 q 399 475 396 467 q 401 538 407 507 q 401 554 399 546 q 406 571 403 563 q 407 600 408 586 q 408 628 406 614 q 406 662 406 644 q 410 694 407 679 q 410 716 413 706 q 404 738 407 726 q 400 785 401 765 q 396 833 399 806 q 394 862 397 849 q 390 890 390 875 q 384 917 388 904 q 382 944 381 931 q 376 992 372 968 q 372 1039 379 1015 q 372 1060 368 1050 q 383 1079 376 1071 q 403 1088 393 1088 q 425 1092 414 1088 q 453 1098 439 1097 q 482 1101 467 1099 q 529 1102 506 1101 q 576 1106 553 1103 q 600 1114 589 1103 z "},"v":{"ha":788,"x_min":13,"x_max":739,"o":"m 551 1110 q 593 1108 572 1110 q 635 1103 614 1106 q 659 1110 647 1104 q 683 1113 671 1115 q 707 1113 694 1111 q 731 1113 719 1114 q 739 1100 739 1107 q 738 1059 736 1081 q 731 1017 739 1038 q 730 987 732 1001 q 728 957 728 972 q 725 942 726 950 q 722 928 724 935 q 722 915 721 921 q 721 901 724 908 q 715 861 715 883 q 710 833 713 846 q 704 806 708 819 q 698 778 701 792 q 690 751 694 765 q 683 724 685 738 q 676 697 681 711 q 662 639 668 668 q 647 581 656 610 q 641 556 644 568 q 635 529 638 543 q 629 501 633 514 q 622 474 625 488 q 620 457 622 465 q 617 440 618 449 q 613 402 614 421 q 606 364 611 383 q 601 345 603 354 q 599 326 600 336 q 593 298 599 311 q 583 269 588 285 q 576 244 581 257 q 569 219 572 232 q 565 192 565 206 q 560 164 564 178 q 546 116 557 139 q 528 68 535 93 q 522 46 525 57 q 524 24 519 35 q 524 10 526 17 q 518 -3 521 4 q 503 -6 511 -3 q 490 5 496 0 q 478 13 485 10 q 463 12 469 17 q 447 8 456 7 q 431 8 439 10 q 413 7 422 6 q 390 3 401 8 q 367 -1 378 -1 q 338 1 351 0 q 310 -4 324 1 q 294 -3 301 -8 q 285 10 288 3 q 275 38 278 24 q 265 64 272 51 q 264 88 265 76 q 256 110 263 100 q 250 126 249 117 q 250 144 251 136 q 247 174 249 160 q 243 203 244 188 q 238 227 242 215 q 235 251 233 239 q 228 277 235 265 q 221 304 222 289 q 219 317 219 311 q 218 331 219 324 q 213 342 215 338 q 208 354 210 347 q 206 368 206 361 q 206 382 207 375 q 198 400 203 392 q 194 419 193 408 q 190 450 194 435 q 187 467 188 458 q 183 483 186 475 q 178 494 181 489 q 179 506 176 500 q 179 522 182 514 q 174 538 176 531 q 165 568 167 553 q 154 597 163 583 q 150 614 149 604 q 149 632 151 624 q 136 653 143 643 q 131 675 129 663 q 119 713 131 697 q 117 732 117 722 q 113 750 118 742 q 99 772 106 761 q 94 796 92 782 q 91 816 97 807 q 82 836 85 825 q 78 849 79 843 q 75 863 76 856 q 69 872 72 868 q 65 883 65 876 q 60 907 64 896 q 51 929 56 918 q 38 959 49 946 q 25 989 26 972 q 19 1010 24 1000 q 13 1031 15 1019 q 15 1041 13 1036 q 21 1050 18 1046 q 49 1051 35 1051 q 76 1053 63 1050 q 110 1054 93 1056 q 143 1064 128 1053 q 154 1067 149 1068 q 165 1065 160 1065 q 181 1067 174 1065 q 196 1064 189 1068 q 243 1060 217 1053 q 261 1053 253 1064 q 281 1001 272 1028 q 300 950 289 975 q 304 929 303 939 q 310 908 306 919 q 317 878 314 893 q 325 849 321 864 q 331 835 326 842 q 335 821 335 828 q 342 791 338 806 q 350 761 347 776 q 354 738 353 750 q 363 715 356 726 q 369 694 368 706 q 375 672 369 683 q 383 640 382 657 q 386 608 383 624 q 392 579 390 593 q 399 550 394 565 q 401 528 400 539 q 407 507 403 518 q 415 525 414 515 q 415 544 417 535 q 421 575 414 561 q 431 604 428 589 q 435 628 433 617 q 440 651 438 640 q 442 674 439 663 q 443 696 444 685 q 449 712 446 704 q 450 726 451 719 q 453 743 449 736 q 457 760 457 750 q 456 776 457 767 q 458 792 454 785 q 464 820 464 806 q 469 847 464 835 q 475 874 475 861 q 478 901 475 888 q 483 929 479 915 q 485 958 486 943 q 490 979 482 969 q 493 994 493 986 q 493 1010 493 1003 q 495 1022 493 1017 q 500 1033 497 1028 q 500 1046 500 1040 q 503 1057 500 1051 q 501 1074 506 1065 q 500 1089 497 1082 q 503 1097 501 1093 q 506 1103 504 1100 q 529 1105 518 1100 q 551 1110 540 1110 z "},"w":{"ha":990,"x_min":38,"x_max":957,"o":"m 954 1111 q 951 1071 957 1082 q 942 1044 946 1060 l 933 994 q 926 969 932 981 q 918 944 921 958 q 905 906 914 924 q 897 867 896 888 q 894 856 896 861 q 892 846 892 851 q 889 820 890 832 q 886 796 888 808 q 880 766 885 781 q 876 736 875 751 q 873 706 879 721 q 865 676 867 692 q 863 656 865 665 q 858 635 861 646 q 850 609 856 621 q 844 582 844 597 q 836 560 840 571 q 832 539 832 550 q 827 517 831 528 q 821 494 824 506 q 813 456 818 475 q 804 418 808 438 q 798 390 800 404 q 794 361 796 376 q 790 342 794 350 q 783 324 786 333 q 774 290 776 308 q 767 256 771 272 q 756 211 757 233 q 751 183 757 196 q 743 156 746 171 q 740 127 743 140 q 733 100 736 114 q 727 82 731 90 q 722 64 724 74 q 714 13 719 36 q 699 10 707 6 q 683 11 690 14 q 666 7 675 8 q 649 8 657 6 q 617 22 638 11 q 585 35 596 32 q 568 35 576 38 q 551 31 560 33 q 528 31 535 28 q 520 42 522 33 q 517 63 518 50 q 511 90 517 75 q 507 133 508 99 q 506 206 506 167 q 505 281 506 246 q 504 324 504 315 q 495 354 499 339 q 489 385 492 369 q 483 417 485 400 q 474 450 481 435 q 467 478 471 465 q 458 507 463 492 q 449 473 449 492 q 442 438 449 454 q 438 422 439 431 q 438 404 438 413 q 437 380 439 392 q 432 356 435 368 q 426 316 429 349 q 421 244 424 283 q 416 172 418 206 q 411 133 414 139 q 406 108 408 121 q 401 83 404 96 q 400 59 401 71 q 392 36 399 47 q 359 42 369 36 q 333 44 349 49 q 315 47 324 42 q 297 49 307 53 q 278 49 288 51 q 260 44 269 47 q 247 47 253 46 q 236 51 242 49 q 229 74 228 61 q 226 99 231 88 q 222 124 222 111 q 217 149 222 138 q 204 206 214 179 q 197 238 201 222 q 189 271 192 254 q 187 297 188 285 q 183 324 186 310 q 179 354 181 339 q 172 385 178 369 q 167 415 169 400 q 161 444 164 429 q 148 503 154 474 q 135 563 142 533 q 122 624 132 594 q 111 686 113 654 q 107 706 110 697 q 101 722 104 714 q 93 788 101 756 q 86 816 88 801 q 83 846 85 831 q 78 863 81 854 q 75 881 75 871 q 69 913 74 897 q 64 943 64 928 q 58 977 61 960 q 44 1006 56 994 q 39 1018 40 1011 q 43 1032 38 1025 q 69 1049 54 1047 q 100 1057 85 1050 q 131 1062 115 1060 q 163 1065 147 1064 q 206 1068 185 1072 q 232 1071 218 1067 q 243 1065 239 1068 q 254 1061 247 1063 q 267 1058 261 1058 q 278 1050 274 1057 q 278 1024 281 1038 q 282 997 276 1010 q 288 979 285 988 q 289 960 290 971 q 291 928 289 950 q 296 883 293 907 q 301 838 299 860 q 303 807 303 817 q 309 773 306 790 q 315 739 313 756 q 322 708 319 724 q 331 678 325 693 q 337 653 335 665 q 342 628 339 640 q 350 667 346 647 q 354 706 354 686 q 359 735 357 721 q 364 765 361 750 q 367 801 367 785 q 369 836 368 817 q 371 863 371 843 q 371 906 371 883 q 372 949 371 929 q 376 976 374 969 q 384 1001 382 988 q 390 1025 386 1014 q 400 1033 394 1031 q 410 1038 406 1035 q 426 1045 418 1040 q 443 1044 435 1050 q 478 1044 461 1042 q 514 1042 496 1047 q 528 1040 521 1039 q 544 1042 536 1042 q 551 1040 547 1042 q 560 1040 556 1039 q 582 1038 571 1046 q 596 1014 593 1029 q 599 965 597 997 q 603 896 601 932 q 606 824 604 860 q 608 768 607 789 q 615 738 615 751 q 623 703 618 719 q 629 667 628 686 q 632 638 629 651 q 638 610 635 624 q 642 581 642 596 q 647 553 643 567 q 655 585 654 568 q 660 618 656 603 q 662 646 661 632 q 665 672 663 660 q 667 703 668 688 q 669 735 667 719 q 681 786 674 753 q 690 838 688 819 q 696 875 690 850 q 708 928 701 900 q 719 981 714 956 q 724 1018 725 1006 q 724 1037 724 1028 q 725 1057 725 1046 q 726 1086 721 1079 q 747 1094 736 1094 q 769 1100 758 1094 q 790 1104 779 1104 q 810 1103 800 1104 q 831 1101 821 1101 q 853 1103 842 1100 q 878 1103 865 1106 q 904 1104 892 1100 q 942 1110 926 1101 q 948 1113 944 1111 q 954 1111 951 1114 z "},"x":{"ha":810,"x_min":1,"x_max":786,"o":"m 510 1097 q 516 1113 510 1106 q 531 1119 522 1119 q 539 1113 535 1117 q 549 1110 543 1108 q 597 1107 572 1110 q 644 1101 621 1104 q 692 1093 668 1094 q 740 1085 717 1092 q 763 1086 751 1085 q 785 1085 774 1088 q 785 1071 785 1078 q 782 1057 786 1064 q 756 1026 767 1044 q 736 989 746 1008 q 722 964 729 976 q 708 939 715 951 q 694 907 701 922 q 678 876 686 892 q 664 846 671 858 q 654 826 658 836 q 643 806 650 815 q 628 780 635 793 q 615 753 622 767 q 588 712 601 732 q 563 668 574 692 q 542 616 556 640 q 521 564 528 592 q 513 542 517 553 q 511 521 508 532 q 528 486 518 503 q 549 454 538 469 q 573 410 560 432 q 597 365 586 389 q 614 331 604 347 q 632 297 624 315 q 642 280 636 288 q 656 265 649 272 q 664 252 661 260 q 669 238 667 244 q 691 198 678 215 q 715 161 704 181 q 731 138 722 149 q 744 115 740 128 q 758 97 749 104 q 764 76 767 89 l 764 71 q 740 60 753 64 q 715 57 728 56 q 692 54 703 58 q 669 44 681 50 q 614 37 642 36 q 558 33 586 38 q 529 36 543 35 q 500 36 515 38 q 486 37 493 38 q 476 43 479 36 q 469 74 467 57 q 467 107 472 92 q 441 185 454 147 q 411 261 428 224 q 400 288 406 275 q 393 317 394 301 q 388 335 390 326 q 382 354 385 344 q 369 330 374 343 q 361 304 365 317 q 344 247 354 275 q 325 190 333 218 q 305 144 313 168 q 290 96 297 119 q 278 56 288 75 q 269 15 268 38 q 253 7 263 7 q 233 3 243 7 q 216 6 225 6 q 199 3 207 6 q 172 3 185 3 q 146 -1 158 3 q 103 -6 124 -1 q 74 -10 88 -8 q 44 -10 60 -12 q 28 -7 36 -7 q 13 -7 19 -7 q 1 11 6 1 q 12 34 6 24 q 22 57 18 44 q 34 85 29 71 q 47 111 39 100 q 68 160 58 136 q 93 208 78 185 q 112 249 104 228 q 129 290 119 271 q 143 315 136 303 q 154 342 150 328 q 171 386 161 365 q 188 431 181 407 q 200 464 194 447 q 213 496 206 481 q 222 512 215 506 q 231 526 228 518 q 242 554 238 540 q 251 583 247 568 q 257 595 253 590 q 260 607 261 600 q 250 631 256 619 q 239 654 244 643 q 228 672 235 665 q 217 689 221 678 q 205 715 210 701 q 192 739 200 728 q 174 783 181 757 q 157 818 165 801 q 138 851 149 835 q 122 872 131 857 q 101 911 114 888 q 88 929 96 919 q 75 950 81 939 q 68 968 71 958 q 63 986 65 978 q 53 1005 60 996 q 44 1022 47 1014 q 34 1051 39 1038 q 32 1074 29 1065 q 38 1090 29 1085 q 54 1099 47 1094 q 68 1097 61 1101 q 82 1092 75 1093 q 122 1088 101 1093 q 161 1082 142 1083 q 178 1085 169 1085 q 196 1086 188 1085 q 229 1089 213 1090 q 263 1089 246 1088 q 290 1089 276 1088 q 319 1088 304 1090 q 324 1065 324 1076 q 328 1043 325 1054 q 335 996 331 1019 q 349 951 339 972 q 363 910 358 932 q 372 868 367 889 q 374 853 375 861 q 375 838 372 844 q 385 807 381 822 q 393 776 389 792 q 409 809 407 804 q 411 815 411 814 q 413 822 411 817 q 431 854 415 826 q 438 883 433 869 q 447 913 443 897 q 458 951 451 932 q 468 989 464 969 q 481 1026 474 1008 q 493 1064 489 1044 q 501 1081 494 1075 q 510 1097 507 1086 z "},"y":{"ha":908,"x_min":4,"x_max":875,"o":"m 594 1106 q 615 1096 606 1101 q 635 1088 624 1090 q 649 1088 642 1086 q 664 1092 657 1090 q 685 1092 675 1092 q 707 1089 696 1092 q 722 1088 714 1089 q 738 1092 731 1088 q 772 1085 753 1082 q 788 1088 781 1085 q 804 1088 796 1090 q 829 1085 817 1085 q 854 1085 842 1086 q 865 1076 861 1082 q 875 1065 869 1071 q 855 1023 865 1043 q 833 982 844 1003 q 817 953 826 967 q 799 925 807 940 q 777 891 788 907 q 756 858 767 875 q 728 814 743 835 q 703 769 714 793 q 684 735 696 750 q 664 703 672 719 q 651 685 657 693 q 640 665 644 676 q 624 642 633 653 q 607 618 614 632 q 574 574 592 594 q 546 528 557 554 q 545 513 543 521 q 543 500 547 506 q 530 476 532 490 q 525 446 528 461 q 521 407 519 426 q 519 368 522 388 q 517 342 517 356 q 514 315 518 328 q 511 272 510 293 q 511 226 513 250 q 507 201 510 214 q 506 175 504 189 q 501 144 503 160 q 499 113 499 128 q 497 72 499 92 q 506 32 494 51 q 501 23 503 28 q 497 13 500 18 q 472 15 483 10 q 447 22 460 21 q 426 25 436 22 q 406 26 417 28 q 386 29 394 24 q 368 38 378 35 l 331 50 q 315 47 322 53 q 300 39 307 42 q 290 50 296 44 q 288 64 283 56 q 297 90 290 78 q 301 117 304 101 q 304 139 301 132 q 308 162 308 150 q 310 185 307 174 q 311 214 313 200 q 314 243 310 228 q 317 276 318 260 q 317 310 317 293 q 316 324 318 317 q 314 338 314 331 q 315 367 315 353 q 318 394 314 381 q 319 414 322 404 q 319 432 315 424 q 310 440 315 436 q 303 449 306 443 q 299 461 300 456 q 294 471 297 467 q 278 499 286 485 q 260 526 269 513 q 247 551 254 539 q 233 574 240 563 q 213 625 224 600 q 188 672 203 650 q 176 696 181 683 q 164 719 171 708 q 150 748 157 735 q 138 776 143 761 q 128 794 135 788 q 124 813 121 801 q 101 835 111 822 q 83 864 92 849 q 66 899 74 881 q 50 933 58 917 q 33 969 42 953 q 18 1001 25 985 q 10 1044 11 1022 q 7 1056 10 1051 q 4 1068 4 1061 q 21 1078 13 1079 q 83 1076 50 1072 q 106 1076 94 1079 q 129 1074 118 1072 q 158 1076 144 1072 q 188 1075 172 1079 q 203 1075 196 1072 q 219 1078 211 1078 q 251 1074 236 1081 q 264 1051 260 1064 q 274 1026 268 1038 q 303 968 285 994 q 335 914 321 942 q 360 856 349 885 q 379 794 372 826 q 391 761 385 778 q 401 726 397 744 q 413 690 408 708 q 428 657 417 672 q 433 682 429 669 q 442 707 438 694 q 450 735 447 721 q 460 763 453 749 q 468 791 467 776 q 475 819 469 806 q 479 843 479 831 q 485 867 479 856 q 489 886 489 876 q 494 904 489 896 q 504 931 501 917 q 515 956 507 944 q 520 967 518 961 q 525 978 522 972 q 540 999 532 989 q 554 1022 549 1010 q 569 1049 561 1036 q 578 1076 576 1061 q 584 1092 579 1086 q 594 1106 589 1099 z "},"z":{"ha":750,"x_min":39,"x_max":744,"o":"m 60 1107 q 76 1105 68 1108 q 93 1100 85 1101 q 114 1096 104 1099 q 133 1090 124 1093 q 150 1089 142 1089 q 165 1083 158 1089 q 210 1063 186 1068 q 260 1051 235 1058 q 282 1048 271 1049 q 304 1043 293 1047 q 356 1039 329 1035 q 388 1035 372 1042 q 421 1031 404 1029 q 444 1030 432 1032 q 467 1026 456 1028 q 508 1023 486 1022 q 550 1021 529 1024 q 572 1019 561 1021 q 593 1017 582 1018 q 622 1020 608 1014 q 650 1022 635 1026 q 679 1022 665 1018 q 708 1026 693 1026 q 713 1003 715 1015 q 714 979 711 990 q 716 926 718 953 q 721 872 714 899 q 723 853 724 863 q 724 835 722 844 q 734 822 725 825 q 742 810 743 819 q 739 798 744 803 q 729 788 733 793 q 722 788 725 788 q 715 789 718 789 q 685 750 703 767 q 666 735 675 743 q 650 717 657 726 q 633 700 643 707 q 617 683 624 693 q 586 648 601 665 q 556 613 571 631 q 531 583 544 597 q 506 554 518 569 q 485 534 496 543 q 465 513 474 525 q 428 475 449 492 q 349 396 386 438 q 275 313 313 354 q 264 303 269 307 q 254 293 258 300 q 273 292 264 292 q 293 290 282 293 q 315 290 304 288 q 338 289 326 292 q 383 290 358 283 q 400 286 392 286 q 417 285 408 286 q 465 280 440 278 q 513 276 489 282 q 534 272 531 274 q 532 285 538 269 q 542 297 538 293 q 585 290 563 286 q 629 293 607 294 q 642 294 636 294 q 656 293 649 293 q 668 299 663 296 q 681 301 674 301 q 691 292 686 297 q 699 278 696 286 q 692 267 697 271 q 682 260 688 264 q 681 239 681 256 q 681 203 681 222 q 683 169 682 185 q 683 150 683 153 q 684 117 688 133 q 682 83 681 100 q 682 64 681 74 q 681 44 683 54 q 678 38 679 42 q 674 31 678 33 q 662 32 667 29 q 650 32 657 35 q 618 30 635 29 q 586 29 601 31 q 569 26 578 26 q 553 26 561 26 q 517 26 535 26 q 481 29 499 26 q 460 30 469 29 q 440 28 450 31 q 410 30 425 25 q 381 33 396 35 q 353 37 367 35 q 324 36 339 39 q 300 35 313 33 q 275 38 288 38 q 213 39 240 44 q 140 28 176 32 q 68 42 103 24 q 57 33 65 35 q 44 38 49 31 q 44 67 43 53 q 44 97 46 82 q 49 126 46 113 q 50 156 51 140 q 50 190 51 172 q 51 222 49 207 q 53 253 54 238 q 56 285 53 269 q 59 310 57 297 q 61 335 61 322 q 53 340 58 338 q 57 366 53 353 q 74 382 61 379 q 86 392 82 385 q 97 407 90 400 q 113 425 106 415 q 129 442 119 435 q 199 524 167 479 q 215 542 206 535 q 232 560 224 550 q 261 597 247 579 q 292 632 275 615 q 306 651 300 640 q 319 669 311 663 q 336 692 331 679 q 353 713 342 704 q 367 728 361 719 q 381 744 374 738 q 403 774 394 757 q 428 801 413 790 q 394 806 411 807 q 361 804 378 804 q 332 803 346 806 q 303 801 318 800 q 266 800 283 803 q 231 801 249 797 q 218 800 224 803 q 206 799 213 797 q 153 799 179 804 q 105 794 129 797 q 58 778 81 790 q 48 781 51 775 q 42 792 44 786 q 44 807 39 800 q 49 822 50 814 q 47 837 47 829 q 46 851 46 844 q 47 904 51 878 q 44 957 42 931 q 51 1008 54 982 q 54 1061 47 1035 q 56 1073 57 1067 q 54 1085 56 1079 q 53 1097 53 1092 q 60 1107 54 1103 z "},"@":{"ha":1849,"x_min":1,"x_max":1846,"o":"m 36 1214 q 40 1211 40 1218 l 51 1211 l 93 1211 q 104 1208 100 1206 q 114 1211 108 1211 q 121 1208 117 1208 q 128 1206 125 1207 q 136 1204 132 1204 q 153 1185 142 1199 q 168 1171 164 1171 q 176 1142 174 1158 q 180 1113 179 1126 q 179 1091 181 1100 q 176 1082 178 1082 q 167 1070 169 1075 q 168 1063 164 1065 q 154 1049 164 1054 q 133 1039 144 1043 q 112 1032 122 1035 q 93 1026 101 1029 q 90 1013 90 1026 q 89 981 89 999 q 90 949 89 964 q 93 931 90 933 q 90 918 89 925 q 79 917 90 911 q 56 915 68 917 q 40 924 43 913 q 32 921 40 918 q 25 924 28 922 q 22 933 24 928 q 25 944 19 944 q 29 958 28 947 q 31 981 31 969 q 29 1003 31 993 q 25 1013 28 1013 l 25 1019 l 25 1067 l 25 1074 q 27 1098 28 1082 q 25 1131 26 1114 q 23 1160 24 1147 q 25 1176 22 1174 q 26 1197 25 1182 q 33 1211 26 1211 l 36 1214 m 11 504 q 28 498 22 499 q 38 498 35 497 q 44 499 42 499 q 51 497 47 500 q 53 481 51 492 q 58 459 56 471 q 63 435 61 447 q 65 415 65 424 l 74 469 q 76 487 78 475 q 79 504 75 499 q 101 499 92 499 q 117 501 111 500 q 126 500 124 501 q 129 490 129 499 q 119 463 124 485 q 114 436 114 442 q 110 405 114 424 q 103 367 107 386 q 94 329 99 347 q 88 299 89 311 l 88 278 l 58 278 q 45 283 49 278 q 40 297 42 289 q 38 313 39 304 q 33 326 38 321 q 33 343 33 338 q 25 360 32 349 q 21 386 22 374 q 19 407 19 397 q 18 424 18 417 q 10 473 18 453 q 11 504 1 493 m 129 504 q 140 501 135 504 q 147 497 144 497 q 158 499 153 497 q 168 501 163 500 q 176 504 174 501 l 176 497 q 178 483 178 497 q 179 451 179 469 q 179 414 179 432 q 182 388 179 396 q 180 343 182 367 q 182 299 178 319 q 183 281 185 285 q 178 278 182 278 q 169 279 174 278 q 163 278 164 281 l 136 278 q 135 281 136 279 q 129 285 131 285 q 135 299 135 290 q 136 313 136 307 q 134 327 133 315 q 136 353 135 339 q 138 380 138 368 q 136 394 139 392 l 136 401 l 136 408 q 133 429 136 419 q 136 449 131 439 l 136 483 q 133 494 136 489 q 129 504 129 499 m 246 504 q 255 503 250 504 q 265 497 260 503 l 271 504 l 271 497 q 283 492 279 497 q 288 481 286 488 q 292 468 290 475 q 300 456 294 461 l 307 436 q 283 433 301 436 q 258 429 264 429 q 254 449 253 435 q 246 463 256 463 q 235 449 233 460 q 247 425 238 438 q 266 401 256 413 q 279 388 276 390 q 292 374 290 382 q 300 360 294 365 q 308 339 308 353 q 299 311 307 325 q 279 288 292 297 q 251 278 267 278 q 208 293 221 272 q 190 340 194 314 q 183 346 183 340 q 190 351 183 351 q 211 352 206 351 q 232 360 217 353 q 235 353 235 360 q 237 338 236 346 q 241 326 238 331 q 251 326 244 321 q 257 343 261 333 q 242 363 253 353 q 220 383 232 374 q 204 401 208 393 q 203 408 204 407 q 196 415 203 410 q 189 429 190 421 q 188 444 188 438 q 190 463 188 453 q 196 470 194 463 q 204 483 197 478 l 211 490 q 228 500 215 496 q 246 504 240 504 m 321 497 q 338 498 326 497 q 354 504 350 499 l 354 497 q 357 483 357 497 q 356 451 357 469 q 355 414 356 432 q 354 388 354 396 q 358 343 360 367 q 361 299 356 319 q 362 281 364 285 q 356 278 360 278 q 349 279 353 278 q 342 278 344 281 l 314 278 q 310 281 308 278 q 307 285 313 285 q 313 299 313 290 q 314 313 314 307 q 311 327 311 315 q 312 353 311 339 q 313 380 313 368 q 314 394 314 392 l 314 401 l 314 408 q 311 429 314 419 q 314 449 308 439 l 307 483 l 314 483 q 308 494 308 489 q 307 504 307 499 l 321 497 m 476 504 q 481 499 476 500 q 485 497 482 497 q 484 481 482 489 q 487 466 486 472 q 484 456 488 460 q 465 456 481 453 q 451 442 454 456 q 451 429 450 436 q 449 407 449 424 q 449 370 449 390 q 451 332 450 350 q 451 306 451 314 q 450 282 454 288 q 440 276 446 276 q 429 278 435 276 q 424 278 424 281 q 414 281 419 278 q 410 285 411 282 q 400 297 399 290 q 396 319 401 304 q 402 360 396 339 q 403 401 408 381 q 400 422 397 413 q 403 436 403 431 q 388 453 403 450 q 368 456 372 456 l 368 463 l 368 497 l 374 497 q 382 501 381 503 q 389 504 383 499 q 397 501 389 499 q 410 504 404 504 l 458 504 l 476 504 m 629 504 q 644 505 636 511 q 657 504 653 499 q 659 502 657 501 q 663 503 661 503 q 667 503 665 504 q 669 497 669 503 q 664 483 665 492 q 657 469 663 475 q 639 435 644 444 q 633 418 633 425 q 638 400 633 411 q 651 360 643 389 q 656 344 653 357 q 663 318 660 332 q 670 292 667 304 q 676 278 674 281 q 668 276 674 275 q 656 278 663 276 q 644 280 650 279 q 638 278 639 281 q 629 279 632 272 q 624 297 626 286 q 617 319 621 308 q 608 332 614 329 q 608 346 608 339 q 601 360 607 353 l 601 351 q 599 340 599 349 q 599 319 599 331 q 601 297 600 307 q 601 285 601 288 q 586 278 596 279 q 565 278 576 278 q 562 280 564 281 q 558 278 560 279 q 556 278 557 278 q 554 285 554 279 q 551 289 551 286 q 554 299 550 292 l 554 408 l 554 436 l 554 469 l 554 497 q 559 500 554 503 q 574 497 564 497 q 588 500 579 503 q 601 497 596 497 l 601 463 q 608 483 601 468 q 615 504 615 499 l 629 504 m 732 504 q 738 506 732 507 q 750 500 743 504 q 763 491 757 496 q 768 483 768 486 q 775 476 771 483 q 779 463 779 468 q 783 432 782 442 q 783 419 783 422 q 778 415 782 415 q 768 415 775 415 q 751 413 763 410 q 732 415 739 415 q 740 441 739 426 q 726 456 742 456 q 721 436 724 453 q 717 400 718 419 q 715 364 715 381 q 718 346 715 347 q 717 331 714 335 q 726 326 719 326 q 731 326 728 326 q 735 328 733 325 q 735 340 736 332 q 732 367 735 349 q 740 369 739 367 q 746 367 742 372 l 772 367 q 783 366 781 372 q 786 351 786 360 q 784 332 786 342 q 779 319 782 322 q 781 315 782 319 q 778 306 781 311 q 772 296 775 300 q 768 292 769 292 q 748 282 757 292 q 732 278 739 272 l 726 278 q 710 279 715 278 q 701 283 706 281 q 692 290 697 286 q 676 299 688 293 q 673 323 671 310 q 669 351 675 336 q 672 370 669 358 q 669 388 675 382 l 669 424 q 672 446 669 433 q 678 467 675 456 q 690 490 682 479 q 697 494 696 490 q 706 497 699 497 q 715 503 711 503 q 726 504 719 504 l 732 504 m 786 497 q 814 500 793 503 q 850 497 835 497 l 883 497 q 894 499 893 500 q 894 494 896 497 q 890 484 892 490 q 890 469 888 478 q 881 455 896 454 q 856 456 867 456 q 851 453 851 456 q 850 456 850 450 q 844 451 844 456 q 843 443 843 447 q 845 426 843 431 q 851 420 847 421 q 862 422 856 419 q 875 424 868 424 q 878 393 878 406 q 876 375 878 382 q 871 374 875 368 q 857 367 865 368 q 843 367 849 367 q 843 352 843 364 q 842 326 843 340 q 840 299 842 311 q 835 285 838 288 l 835 278 l 794 278 q 787 289 788 278 q 786 306 786 300 q 785 325 783 308 q 790 360 788 342 q 792 396 792 379 q 786 415 792 413 q 792 432 792 421 q 792 456 793 443 q 788 481 790 469 q 786 497 786 492 m 974 504 q 1004 483 996 499 q 1014 448 1013 467 q 1013 413 1015 429 q 1013 388 1010 396 q 1010 370 1008 382 q 1013 351 1013 358 q 1010 319 1013 329 q 1003 303 1007 308 q 996 296 999 299 q 993 285 993 293 q 975 281 982 285 q 953 278 968 278 q 913 293 924 278 q 901 328 903 308 q 900 367 899 349 q 897 394 901 386 q 901 413 903 400 q 904 429 899 425 q 906 463 904 451 q 912 478 908 474 q 918 486 915 483 q 924 497 921 489 q 935 501 931 497 q 946 504 940 504 l 974 504 m 1021 497 q 1024 503 1021 500 q 1028 504 1025 504 l 1042 504 l 1049 504 l 1063 504 q 1076 480 1074 499 q 1082 456 1078 461 l 1089 436 q 1094 458 1094 446 q 1089 476 1094 471 q 1090 487 1092 482 q 1088 496 1088 492 q 1096 502 1089 500 q 1124 504 1103 504 q 1128 500 1125 501 q 1138 497 1133 497 l 1138 490 q 1140 465 1138 479 q 1138 436 1143 451 q 1135 410 1135 428 q 1138 372 1136 392 q 1140 335 1139 351 q 1138 313 1140 318 q 1140 304 1138 310 q 1142 292 1142 299 q 1141 282 1143 286 q 1131 278 1139 278 q 1110 280 1118 281 q 1099 279 1103 279 q 1094 281 1096 279 q 1089 292 1092 283 q 1081 314 1083 303 q 1075 336 1078 325 q 1069 360 1072 349 q 1070 311 1069 329 q 1069 285 1071 293 q 1060 276 1067 276 q 1042 278 1054 275 q 1031 279 1036 278 q 1020 281 1025 281 q 1013 285 1015 282 q 1017 322 1013 296 q 1021 360 1021 349 q 1023 373 1024 363 q 1021 395 1022 383 q 1019 417 1019 407 q 1021 429 1018 426 l 1021 483 l 1021 497 m 1263 504 l 1263 497 q 1262 481 1260 489 q 1264 466 1264 472 q 1260 456 1264 460 q 1240 456 1256 453 q 1229 451 1232 456 q 1225 442 1226 447 q 1226 429 1224 436 q 1226 407 1226 424 q 1227 370 1226 390 q 1229 332 1228 350 q 1233 306 1231 314 q 1232 282 1236 288 q 1222 276 1228 276 q 1208 278 1215 276 q 1199 278 1201 281 q 1189 281 1194 278 q 1185 285 1186 282 q 1178 297 1176 290 q 1179 319 1179 304 q 1179 360 1175 339 q 1179 401 1183 381 q 1181 422 1179 413 q 1179 436 1183 431 q 1168 453 1179 451 q 1151 456 1157 456 q 1144 463 1144 456 q 1148 477 1144 468 q 1151 497 1151 486 q 1158 501 1157 503 q 1165 504 1160 499 q 1175 501 1165 499 q 1185 504 1179 503 l 1233 504 l 1263 504 m 1322 504 q 1333 503 1328 504 q 1344 497 1338 503 l 1344 504 l 1351 497 q 1362 492 1358 497 q 1367 481 1365 488 q 1372 468 1369 475 q 1379 456 1374 461 l 1385 436 q 1362 433 1381 436 q 1336 429 1343 429 q 1329 449 1331 435 q 1322 463 1328 463 q 1313 449 1310 460 q 1324 425 1315 438 q 1344 401 1333 413 q 1357 388 1354 390 q 1370 374 1368 382 q 1379 360 1372 365 q 1385 339 1386 353 q 1376 311 1385 325 q 1354 288 1368 297 q 1322 278 1340 278 q 1285 293 1296 272 q 1268 340 1275 314 q 1264 346 1264 340 q 1268 351 1264 351 q 1288 352 1283 351 q 1308 360 1293 353 q 1312 353 1311 360 q 1314 338 1313 346 q 1318 326 1315 331 q 1329 326 1321 321 q 1332 336 1329 331 q 1329 346 1335 342 l 1282 401 q 1272 425 1275 414 q 1268 444 1269 436 q 1268 463 1267 454 q 1276 470 1275 463 q 1282 483 1278 478 l 1288 490 q 1306 500 1294 496 q 1322 504 1317 504 m 1390 326 q 1396 328 1390 328 q 1408 328 1401 329 q 1423 327 1415 328 q 1433 326 1431 326 q 1433 294 1433 311 q 1425 278 1432 278 q 1408 278 1419 283 q 1385 278 1396 272 q 1384 288 1385 281 q 1383 304 1383 296 q 1385 319 1383 313 q 1390 326 1386 326 m 1501 504 q 1507 506 1501 507 q 1519 500 1513 504 q 1531 491 1525 496 q 1536 483 1536 486 q 1546 476 1542 483 q 1550 463 1550 468 q 1553 432 1553 442 q 1553 419 1554 422 q 1549 415 1553 415 q 1536 415 1544 415 q 1518 413 1531 410 q 1501 415 1506 415 q 1504 441 1506 426 q 1489 456 1503 456 q 1483 436 1486 453 q 1479 400 1481 419 q 1478 364 1478 381 q 1482 346 1479 347 q 1483 331 1482 335 q 1493 326 1485 326 q 1498 326 1496 326 q 1501 328 1500 325 q 1501 340 1501 332 q 1501 367 1501 349 q 1507 369 1506 367 q 1514 367 1508 372 l 1543 367 q 1550 366 1549 372 q 1551 351 1551 360 q 1551 332 1551 342 q 1550 319 1550 322 l 1543 299 l 1529 292 q 1514 282 1524 292 q 1493 278 1504 272 q 1478 279 1483 278 q 1468 283 1472 281 q 1460 290 1464 286 q 1447 299 1456 293 q 1441 323 1442 310 q 1440 351 1440 336 q 1438 370 1435 358 q 1440 388 1440 382 q 1437 405 1440 393 q 1433 424 1433 417 q 1437 430 1436 424 q 1440 447 1438 436 q 1446 468 1442 457 q 1460 490 1450 479 q 1464 493 1461 492 q 1469 496 1467 494 q 1474 497 1471 497 q 1482 503 1474 503 q 1493 504 1490 504 l 1501 504 m 1625 504 q 1657 483 1649 499 q 1667 448 1665 467 q 1666 413 1668 429 q 1667 388 1664 396 q 1669 370 1667 382 q 1667 351 1672 358 q 1664 319 1667 329 q 1658 303 1661 308 q 1651 296 1656 299 q 1646 285 1647 293 q 1628 281 1635 285 q 1611 278 1622 278 q 1569 293 1581 278 q 1555 328 1557 308 q 1556 367 1553 349 q 1557 394 1558 386 q 1554 413 1557 400 q 1557 429 1551 425 q 1559 463 1557 451 q 1565 478 1561 474 q 1572 486 1568 483 q 1578 497 1575 489 q 1589 501 1583 497 q 1604 504 1594 504 l 1625 504 m 1783 504 l 1817 504 q 1822 500 1818 504 q 1824 497 1824 499 q 1822 449 1821 485 q 1826 374 1824 413 q 1828 307 1828 336 q 1824 278 1829 278 l 1817 278 l 1804 278 q 1783 283 1789 281 q 1775 291 1776 285 q 1775 308 1774 297 q 1776 340 1776 319 q 1773 313 1776 329 q 1769 285 1769 296 q 1768 281 1769 282 q 1763 278 1765 278 q 1742 279 1747 275 q 1735 292 1736 283 q 1734 309 1735 300 q 1728 326 1733 318 l 1728 346 q 1724 350 1725 347 q 1721 360 1721 356 q 1724 301 1724 318 q 1722 279 1725 283 q 1710 278 1718 275 q 1688 278 1703 281 l 1681 278 l 1674 278 l 1674 292 l 1674 306 l 1681 424 q 1677 435 1678 424 q 1678 460 1676 446 q 1681 497 1679 475 l 1681 504 q 1714 504 1703 493 q 1722 502 1717 501 q 1731 503 1726 503 q 1736 503 1735 504 q 1735 497 1738 503 q 1734 481 1732 492 q 1739 460 1736 471 q 1745 438 1742 449 q 1749 424 1749 428 q 1752 438 1749 425 q 1760 466 1756 451 q 1769 492 1764 481 q 1776 504 1774 504 l 1783 504 m 225 238 q 247 234 231 238 q 279 238 264 231 l 314 238 q 326 235 324 238 q 328 228 329 232 q 324 217 326 224 q 321 203 321 211 q 320 192 324 194 q 311 188 317 189 q 298 188 306 188 q 285 189 290 189 l 279 189 q 272 185 272 189 q 271 174 271 181 q 274 157 271 161 q 281 153 276 153 q 292 154 285 153 q 307 154 299 156 q 312 146 310 154 q 314 128 314 138 q 311 111 314 118 q 300 107 308 104 q 286 101 294 101 q 271 100 278 100 l 271 18 q 249 12 267 13 q 225 11 231 11 q 222 25 218 17 q 225 36 225 33 q 223 59 222 42 q 225 95 224 76 q 227 128 226 114 q 225 146 228 143 q 227 163 228 151 q 225 189 226 175 q 223 216 224 203 q 225 238 222 229 m 403 238 q 435 216 426 232 q 444 181 443 200 q 444 145 446 163 q 446 121 443 128 q 448 103 446 115 q 446 92 450 92 q 443 58 446 69 q 437 40 440 46 q 430 32 433 35 q 424 25 426 29 q 406 15 413 19 q 389 11 400 11 q 347 26 358 11 q 334 61 336 42 q 335 100 332 81 q 335 126 338 119 q 332 144 335 133 q 335 160 329 156 q 337 194 335 183 q 342 211 339 206 q 349 219 346 217 q 354 229 351 222 q 365 233 360 229 q 374 238 369 238 l 403 238 m 458 229 q 456 236 453 233 q 458 238 457 238 l 471 238 l 519 238 q 556 202 546 231 q 565 146 565 174 q 560 135 563 146 q 549 114 558 124 q 548 99 546 111 q 554 74 550 88 q 562 49 558 61 q 565 32 565 36 q 572 20 574 24 q 565 14 571 17 q 549 11 560 11 q 528 16 535 14 q 519 24 522 18 q 513 40 515 29 q 506 71 511 51 l 506 85 q 502 68 503 79 q 501 45 501 57 q 501 24 501 33 q 499 11 501 14 q 484 12 493 11 q 471 18 475 13 l 451 18 q 452 52 447 32 q 451 92 457 72 q 451 115 449 100 q 455 149 453 131 q 457 183 457 167 q 451 210 457 199 q 458 220 457 215 q 458 229 458 225 m 740 238 l 772 238 q 778 237 778 238 q 779 229 779 236 q 781 181 779 217 q 785 108 783 146 q 785 40 786 69 q 779 11 785 11 l 772 11 l 761 11 q 740 16 744 14 q 735 24 735 18 q 738 40 735 29 q 740 71 740 51 q 730 44 733 60 q 726 18 726 29 q 700 15 707 13 q 691 24 693 17 q 689 40 689 31 q 683 57 689 49 q 686 71 689 64 l 683 79 q 679 83 681 81 q 676 92 676 89 q 680 33 679 50 q 677 13 681 17 q 666 11 674 8 q 643 11 658 14 l 643 18 l 643 11 l 629 18 l 638 25 l 629 36 l 638 160 l 638 229 q 638 237 638 236 q 643 238 639 238 q 676 238 657 224 q 680 235 676 235 q 686 235 683 235 q 691 235 689 236 q 690 229 693 235 q 698 194 690 219 q 706 154 706 169 l 713 154 q 715 169 713 157 q 722 197 718 182 q 732 238 726 214 l 740 238 m 864 238 q 894 216 886 232 q 904 181 903 200 q 903 145 906 163 q 904 121 901 128 q 906 103 904 115 q 904 92 908 92 q 902 55 904 67 q 897 38 900 43 q 890 31 893 32 q 883 25 886 29 q 867 15 874 19 q 850 11 861 11 q 808 26 819 11 q 794 61 796 42 q 794 100 792 81 q 794 126 797 119 q 791 144 794 133 q 794 160 788 156 q 797 194 794 183 q 802 211 799 206 q 809 219 806 217 q 815 229 813 222 q 826 233 819 229 q 843 238 832 238 l 864 238 m 918 229 q 915 237 911 236 q 924 238 919 238 l 932 238 l 939 238 l 979 238 q 1019 202 1011 231 q 1028 146 1028 174 q 1021 135 1022 146 q 1013 114 1019 124 q 1013 99 1010 111 q 1018 74 1015 88 q 1024 49 1021 61 q 1028 32 1028 36 q 1033 20 1035 24 q 1025 14 1032 17 q 1007 11 1018 11 q 988 16 994 14 q 979 24 982 18 q 974 40 976 29 q 967 71 971 51 l 967 85 q 967 68 967 79 q 966 45 967 57 q 964 24 965 33 q 960 11 963 14 q 947 12 954 11 q 939 18 939 13 l 910 18 q 913 52 910 32 q 910 92 917 72 q 909 115 907 100 q 913 149 911 131 q 915 183 915 167 q 910 210 915 199 q 917 220 917 215 q 918 229 918 225 m 1131 238 q 1142 236 1142 238 q 1138 210 1143 235 l 1138 189 l 1131 182 q 1115 185 1125 188 q 1089 182 1104 182 l 1089 168 q 1088 153 1086 157 q 1092 149 1089 150 q 1102 149 1096 149 q 1115 146 1108 149 q 1120 149 1115 153 q 1131 146 1125 146 l 1124 140 q 1124 128 1124 138 q 1124 110 1125 119 q 1121 97 1124 101 q 1110 100 1118 92 l 1089 100 q 1086 81 1083 93 q 1089 57 1089 68 q 1106 60 1094 57 q 1124 57 1117 64 l 1138 57 l 1138 36 l 1138 18 q 1130 12 1138 13 q 1115 11 1122 11 q 1106 15 1115 17 q 1096 18 1096 13 q 1064 13 1081 13 q 1042 18 1047 13 q 1038 61 1042 32 q 1035 107 1035 90 q 1038 125 1038 107 q 1038 165 1039 143 l 1035 224 q 1034 231 1032 229 q 1040 233 1036 232 q 1049 234 1044 233 q 1056 238 1053 235 l 1069 238 q 1081 234 1072 235 q 1100 234 1090 233 q 1119 236 1110 235 q 1131 238 1128 238 m 1207 238 q 1213 236 1210 238 q 1219 229 1219 232 q 1236 230 1225 229 q 1247 238 1247 231 l 1254 238 q 1251 189 1253 213 q 1251 150 1250 169 q 1254 121 1251 131 q 1255 78 1261 99 q 1254 32 1249 57 q 1256 15 1257 18 q 1252 11 1256 11 q 1244 13 1249 11 q 1233 11 1239 14 q 1223 15 1233 17 q 1213 18 1213 13 l 1207 18 q 1209 31 1207 24 q 1207 43 1211 38 q 1208 59 1207 46 q 1209 87 1208 72 q 1209 115 1210 101 q 1207 135 1208 129 l 1213 135 l 1207 140 q 1206 163 1211 151 q 1207 182 1200 175 l 1207 224 l 1207 217 q 1203 226 1207 222 q 1207 238 1200 231 m 1276 238 l 1288 238 l 1296 238 l 1308 238 q 1322 213 1319 231 q 1329 189 1324 194 l 1336 168 q 1343 192 1343 179 q 1336 210 1343 204 q 1337 220 1339 215 q 1335 229 1335 225 q 1343 235 1336 233 q 1371 238 1350 238 l 1385 238 l 1385 224 q 1385 198 1381 213 q 1385 168 1389 183 q 1383 141 1382 160 q 1385 102 1383 122 q 1386 65 1386 82 q 1385 43 1386 49 q 1387 35 1385 40 q 1390 26 1389 31 q 1388 18 1390 21 q 1379 18 1386 15 q 1359 19 1367 21 q 1347 17 1351 18 q 1341 18 1343 15 q 1336 32 1339 21 q 1327 49 1331 39 q 1321 69 1324 60 q 1315 92 1317 81 q 1316 45 1315 61 q 1315 22 1317 29 q 1306 13 1313 14 q 1288 11 1300 11 l 1276 14 q 1269 17 1272 15 q 1263 18 1265 18 q 1263 34 1263 24 q 1265 56 1264 44 q 1267 80 1267 68 q 1268 100 1268 92 q 1265 128 1265 115 q 1265 148 1264 139 q 1268 160 1265 157 l 1268 217 l 1268 229 l 1268 238 l 1276 238 m 1390 238 q 1417 234 1396 238 q 1454 238 1439 231 l 1489 238 q 1500 235 1499 238 q 1499 228 1501 232 q 1494 217 1497 224 q 1493 203 1492 211 q 1493 192 1496 194 q 1485 188 1490 189 q 1472 188 1479 188 q 1460 189 1465 189 l 1454 189 q 1447 174 1447 189 q 1449 157 1447 161 q 1456 153 1451 153 q 1467 154 1461 153 q 1482 154 1474 156 q 1483 128 1483 139 q 1481 111 1483 118 q 1474 107 1479 104 q 1461 101 1469 101 q 1447 100 1453 100 q 1447 85 1447 97 q 1447 58 1447 72 q 1444 33 1446 44 q 1440 18 1443 21 q 1433 15 1440 15 q 1419 13 1426 14 q 1399 11 1410 11 q 1391 25 1392 17 q 1390 36 1390 33 q 1390 59 1388 42 q 1394 95 1392 76 q 1399 128 1397 114 q 1399 146 1400 143 q 1399 163 1400 151 q 1397 189 1399 175 q 1392 216 1394 203 q 1390 238 1390 229 m 349 1211 q 347 1215 343 1211 q 354 1218 350 1218 q 358 1215 354 1213 q 368 1218 363 1218 l 368 1211 l 382 1211 q 408 1212 394 1211 q 435 1210 422 1213 q 459 1199 449 1207 q 476 1176 469 1192 q 490 1142 488 1161 q 492 1101 492 1122 l 485 1074 q 476 1060 479 1064 q 472 1056 474 1057 q 471 1051 471 1054 q 471 1040 471 1049 q 474 1021 471 1035 q 481 991 478 1007 q 488 960 485 975 q 492 938 492 946 q 499 931 499 938 q 500 917 504 919 q 490 915 496 914 q 477 918 483 917 q 471 917 471 919 q 451 917 467 917 q 431 924 436 918 q 425 940 428 929 q 420 963 422 951 q 415 985 418 975 q 410 999 413 996 l 410 1013 l 410 985 l 410 978 q 406 945 404 963 q 403 917 408 928 q 385 917 397 917 q 368 924 372 918 l 342 924 q 340 944 339 932 q 342 969 340 956 q 344 995 343 982 q 342 1019 344 1008 q 340 1044 339 1032 q 344 1067 342 1057 q 346 1082 346 1076 q 342 1088 346 1088 q 345 1152 347 1119 q 349 1211 343 1185 m 740 1218 q 794 1197 779 1218 q 811 1148 808 1175 q 812 1095 814 1121 q 815 1063 810 1069 q 812 1040 810 1056 q 808 1019 814 1025 q 805 971 808 986 q 797 949 801 956 q 787 941 792 943 q 779 931 782 939 q 770 923 776 928 q 756 915 764 918 q 742 912 749 913 q 732 917 735 911 q 711 917 721 917 q 690 924 701 918 q 666 956 672 933 q 658 1001 660 978 q 658 1046 657 1025 q 657 1074 660 1067 l 664 1136 q 667 1165 664 1154 q 675 1183 671 1175 q 683 1194 679 1190 q 690 1204 688 1199 q 702 1214 696 1210 q 718 1218 708 1218 l 740 1218 m 1082 1218 q 1099 1215 1093 1218 q 1104 1197 1104 1213 q 1103 1181 1101 1189 q 1106 1167 1104 1174 q 1110 1152 1108 1160 q 1110 1136 1111 1144 q 1116 1092 1110 1124 q 1131 1024 1122 1060 q 1145 958 1139 989 q 1151 917 1151 926 q 1134 917 1146 911 q 1115 917 1122 922 l 1110 917 l 1082 917 l 1082 924 l 1082 931 q 1077 951 1078 936 q 1076 978 1076 967 q 1060 975 1064 978 q 1056 968 1056 972 q 1057 958 1056 964 q 1056 944 1058 951 q 1052 933 1050 939 q 1049 917 1054 928 l 1042 917 q 1017 914 1036 911 q 993 917 999 917 q 986 918 989 917 q 979 924 979 921 q 966 921 975 918 q 946 924 957 924 q 924 922 931 921 q 915 928 917 924 q 911 940 913 932 q 904 958 910 947 q 894 994 893 974 q 883 1026 894 1015 q 886 988 883 1011 q 883 944 889 964 q 881 927 881 933 q 881 917 882 921 q 874 914 881 914 q 850 917 868 914 q 825 918 835 917 q 815 931 815 919 q 823 981 819 951 q 821 1026 826 1011 q 820 1042 821 1029 q 818 1071 819 1056 q 816 1099 817 1086 q 815 1115 815 1113 q 817 1150 815 1135 q 817 1176 817 1164 q 815 1190 818 1188 q 819 1197 819 1190 q 815 1204 819 1204 l 815 1211 q 825 1217 819 1217 q 835 1218 831 1218 l 850 1218 q 853 1215 850 1213 q 864 1218 857 1218 q 868 1213 864 1213 q 875 1218 872 1213 q 884 1202 881 1213 q 890 1181 888 1192 q 896 1162 893 1171 q 904 1151 899 1153 l 910 1129 q 917 1157 917 1140 q 910 1183 917 1174 q 913 1194 915 1189 q 911 1203 910 1199 q 922 1212 913 1208 q 960 1218 931 1215 q 965 1217 963 1218 q 969 1214 967 1215 q 974 1211 972 1213 q 976 1210 976 1211 q 978 1207 976 1208 q 979 1204 978 1206 q 974 1187 975 1193 q 974 1171 974 1181 q 976 1131 978 1150 q 974 1101 974 1113 q 976 1071 975 1096 q 977 1016 976 1046 q 980 961 978 986 q 986 931 982 936 q 990 965 986 946 q 1000 999 994 983 q 1005 1039 1003 1022 q 1010 1070 1007 1056 q 1015 1098 1013 1085 q 1021 1129 1018 1111 l 1013 1129 q 1017 1138 1015 1129 q 1021 1158 1019 1146 q 1024 1181 1022 1169 q 1028 1197 1025 1192 l 1028 1211 q 1038 1213 1031 1211 q 1055 1215 1046 1214 q 1072 1217 1064 1215 q 1082 1218 1079 1218 m 1514 1211 q 1522 1213 1517 1211 q 1531 1213 1526 1214 q 1537 1205 1535 1211 q 1536 1183 1539 1199 q 1532 1140 1533 1165 q 1530 1088 1531 1115 q 1529 1033 1529 1060 q 1529 985 1529 1006 q 1517 944 1529 960 q 1492 922 1506 929 q 1466 915 1478 915 q 1454 917 1454 914 q 1438 918 1443 917 q 1430 922 1433 919 q 1423 926 1426 924 q 1411 931 1419 928 q 1397 941 1401 933 q 1390 958 1392 949 q 1390 974 1389 967 q 1390 985 1390 982 q 1388 1010 1388 994 q 1388 1042 1388 1026 q 1387 1072 1388 1058 q 1385 1094 1386 1086 q 1382 1130 1385 1106 q 1379 1165 1379 1154 l 1385 1165 q 1382 1178 1385 1169 q 1379 1197 1379 1186 q 1388 1209 1383 1208 q 1399 1204 1392 1210 q 1411 1208 1403 1204 q 1425 1211 1419 1211 q 1441 1213 1436 1217 q 1447 1203 1446 1210 q 1447 1183 1449 1196 q 1445 1139 1447 1174 q 1443 1068 1443 1104 q 1447 1003 1443 1032 q 1460 978 1450 975 q 1469 1019 1471 1004 q 1468 1063 1468 1035 q 1469 1081 1468 1064 q 1470 1118 1469 1099 q 1470 1154 1471 1138 q 1468 1171 1469 1171 l 1468 1176 q 1470 1183 1471 1179 q 1469 1189 1469 1186 q 1468 1197 1468 1193 q 1466 1212 1461 1213 q 1482 1211 1471 1211 q 1499 1214 1490 1217 q 1514 1211 1508 1211 m 1611 1218 q 1628 1217 1622 1218 q 1646 1211 1635 1217 l 1651 1211 q 1676 1184 1668 1206 q 1694 1151 1683 1163 l 1694 1129 l 1688 1122 q 1667 1119 1676 1122 q 1651 1122 1658 1117 l 1632 1122 q 1628 1133 1629 1125 q 1624 1149 1626 1142 q 1617 1160 1621 1157 q 1604 1157 1613 1164 q 1606 1128 1597 1144 q 1631 1094 1615 1111 q 1665 1059 1647 1076 q 1694 1026 1683 1042 q 1698 988 1704 1006 q 1681 951 1692 971 q 1652 921 1672 932 q 1609 912 1632 910 q 1567 932 1586 914 q 1543 990 1549 950 l 1543 999 q 1535 1006 1532 999 q 1543 1013 1538 1013 q 1574 1014 1564 1007 q 1599 1026 1583 1021 q 1601 1019 1599 1021 q 1599 1013 1603 1018 q 1604 987 1599 1001 q 1625 978 1610 972 l 1632 978 q 1633 996 1632 983 q 1618 1019 1633 1008 q 1606 1032 1615 1022 q 1588 1053 1597 1042 q 1563 1082 1576 1067 q 1550 1101 1563 1089 q 1538 1135 1539 1113 q 1543 1165 1538 1158 q 1550 1174 1549 1165 q 1557 1183 1551 1183 q 1560 1190 1557 1189 q 1571 1197 1564 1192 q 1591 1208 1576 1197 q 1611 1218 1606 1218 m 1832 1218 q 1842 1215 1839 1215 q 1844 1213 1844 1215 q 1842 1205 1844 1211 q 1838 1183 1840 1199 q 1839 1174 1838 1179 q 1842 1165 1840 1169 q 1846 1157 1843 1160 q 1838 1151 1839 1153 q 1832 1143 1836 1150 q 1814 1150 1825 1150 q 1797 1143 1803 1150 l 1776 1143 q 1774 1136 1771 1138 q 1776 1129 1776 1135 q 1775 1106 1774 1111 q 1781 1100 1776 1100 q 1792 1102 1785 1100 q 1810 1101 1800 1104 q 1817 1103 1810 1107 q 1824 1094 1824 1100 q 1820 1072 1824 1085 q 1817 1047 1817 1058 q 1815 1030 1822 1032 q 1804 1033 1808 1028 q 1790 1036 1799 1039 q 1776 1033 1782 1033 q 1773 1008 1771 1028 q 1769 978 1775 988 l 1824 978 l 1838 978 l 1838 951 l 1838 924 q 1830 917 1838 918 q 1817 917 1822 917 l 1783 917 l 1763 917 q 1738 916 1747 917 q 1724 915 1729 915 q 1716 914 1719 914 q 1707 917 1713 914 q 1706 944 1707 926 q 1704 978 1706 961 q 1702 1013 1703 996 q 1701 1040 1701 1029 q 1704 1048 1703 1040 q 1706 1065 1706 1056 q 1707 1083 1707 1074 q 1707 1094 1707 1092 q 1703 1115 1704 1100 q 1702 1145 1703 1129 q 1701 1174 1701 1161 q 1701 1190 1701 1188 q 1703 1193 1703 1190 q 1701 1197 1701 1194 q 1701 1208 1699 1206 q 1709 1210 1704 1210 q 1719 1212 1714 1211 q 1728 1218 1725 1213 q 1739 1212 1733 1213 q 1749 1211 1744 1211 q 1785 1214 1768 1213 q 1813 1217 1800 1215 q 1832 1218 1825 1218 m 890 861 q 899 859 896 858 q 902 858 901 860 q 901 849 903 856 q 897 828 900 843 q 899 817 897 822 q 901 806 900 811 q 904 799 901 801 q 894 793 899 794 q 890 785 890 792 q 873 792 885 792 q 850 785 861 792 l 835 785 q 832 779 831 781 q 829 772 833 778 q 832 751 829 757 q 839 746 835 746 q 849 747 843 746 q 864 746 856 749 q 873 748 869 751 q 883 739 876 744 q 874 717 876 732 q 875 690 872 701 q 872 676 875 683 q 864 675 869 669 q 849 678 857 681 q 835 675 842 675 l 829 675 q 826 651 822 669 q 829 621 829 632 q 857 624 840 621 q 883 621 874 626 l 897 621 l 897 593 l 897 565 q 889 559 897 560 q 871 558 881 558 l 843 558 l 821 558 q 780 556 789 558 q 768 565 771 554 q 767 589 768 574 q 765 622 765 604 q 763 655 764 639 q 761 682 761 671 q 764 707 763 694 q 765 726 765 717 q 761 739 764 736 l 761 835 l 761 842 q 760 852 758 849 q 767 857 763 856 q 778 858 772 858 q 786 861 783 858 q 797 856 794 856 q 801 856 800 854 q 816 856 804 856 q 842 858 828 857 q 871 860 857 860 q 890 861 885 861 m 1049 861 l 1096 861 q 1106 858 1100 861 q 1110 856 1108 857 q 1107 811 1107 839 q 1108 753 1107 783 q 1109 692 1108 722 q 1110 642 1110 663 q 1112 623 1110 636 q 1115 595 1114 610 q 1113 569 1115 581 q 1104 558 1111 558 l 1096 558 l 1082 558 q 1053 564 1061 561 q 1045 574 1046 567 q 1047 597 1044 582 q 1049 642 1049 613 q 1047 626 1049 636 q 1042 603 1044 615 q 1037 581 1039 592 q 1035 565 1035 571 q 1036 560 1040 563 q 1024 557 1032 558 q 1008 556 1017 556 q 993 558 999 556 q 989 574 990 564 q 986 593 988 583 q 983 610 985 603 q 979 621 982 618 q 982 635 985 626 q 979 650 979 643 q 976 657 978 653 q 974 668 974 665 l 974 661 q 975 606 975 631 q 973 569 975 585 q 967 558 971 553 l 960 558 q 940 561 949 564 q 924 558 931 558 l 918 558 l 910 558 l 910 572 l 910 654 l 910 724 l 910 757 q 914 758 911 757 q 917 760 915 760 q 918 764 918 761 l 910 856 l 918 861 q 942 854 929 857 q 967 861 956 851 q 975 859 969 858 q 985 860 981 860 q 993 858 990 860 q 993 849 996 856 q 992 831 990 843 q 998 803 994 818 q 1006 774 1001 788 q 1013 753 1010 760 q 1017 781 1013 763 q 1026 817 1021 799 q 1042 861 1032 838 l 1049 861 m 1199 861 q 1256 840 1240 861 q 1276 790 1272 818 q 1276 737 1279 763 q 1276 704 1274 711 l 1276 661 q 1273 613 1276 628 q 1265 591 1269 597 q 1255 583 1260 585 q 1247 572 1250 581 q 1238 565 1244 569 q 1223 558 1231 561 q 1208 554 1215 554 q 1199 558 1201 554 q 1173 559 1183 558 q 1151 565 1163 560 q 1131 597 1136 575 q 1124 644 1125 619 q 1125 689 1124 668 q 1124 718 1126 710 l 1124 779 q 1128 808 1124 797 q 1138 824 1132 818 q 1147 835 1143 831 q 1151 849 1151 840 q 1169 858 1163 854 q 1185 861 1176 861 l 1199 861 m 1578 238 q 1608 216 1600 232 q 1618 181 1617 200 q 1617 145 1619 163 q 1618 121 1615 128 q 1615 104 1613 115 q 1618 92 1617 99 q 1615 55 1618 67 q 1608 38 1613 43 q 1601 31 1604 32 q 1599 25 1599 29 q 1590 19 1596 22 q 1577 13 1583 15 q 1565 9 1571 10 q 1557 11 1558 8 q 1519 26 1529 11 q 1506 61 1508 42 q 1505 100 1504 81 q 1501 126 1506 119 q 1504 144 1506 133 q 1507 160 1503 156 q 1510 194 1507 183 q 1516 211 1513 206 q 1523 219 1519 217 q 1529 229 1526 222 q 1540 233 1535 229 q 1550 238 1544 238 l 1578 238 m 657 861 q 669 857 660 858 q 690 853 679 856 q 710 847 701 851 q 718 835 718 843 q 733 820 725 835 q 746 799 742 806 q 750 767 749 793 q 751 710 751 740 q 750 653 751 679 q 746 621 749 626 q 743 606 743 610 q 742 600 743 603 q 740 593 742 597 q 732 579 738 589 q 717 571 726 575 q 695 565 708 568 q 664 558 682 561 l 651 558 l 624 558 q 610 561 617 564 l 601 558 l 594 558 q 592 607 594 585 q 594 654 589 629 l 588 654 q 594 672 593 665 q 594 690 594 679 l 594 731 l 594 849 q 599 860 589 858 q 615 861 610 861 l 624 861 q 640 859 628 857 q 657 861 653 861 m 1213 1218 q 1222 1199 1221 1210 q 1220 1177 1222 1189 q 1215 1155 1218 1165 q 1213 1136 1213 1144 q 1219 1058 1218 1096 q 1219 985 1219 1021 l 1226 985 l 1226 978 l 1233 978 q 1258 984 1249 983 q 1282 985 1267 985 q 1285 983 1283 985 q 1288 971 1288 981 q 1290 964 1293 971 l 1288 958 q 1290 926 1290 935 q 1288 917 1290 918 q 1278 917 1285 915 q 1263 917 1272 919 l 1240 917 q 1224 917 1235 917 q 1201 919 1213 918 q 1178 919 1189 919 q 1165 917 1168 919 q 1159 926 1160 922 q 1159 935 1158 931 q 1160 947 1160 940 q 1158 964 1161 954 q 1156 1003 1156 974 q 1156 1065 1156 1033 q 1158 1124 1157 1097 q 1158 1157 1158 1151 q 1156 1184 1153 1172 q 1158 1211 1158 1196 l 1158 1218 l 1179 1211 l 1213 1211 l 1213 1218 m 574 1218 q 591 1217 585 1218 q 608 1211 597 1217 q 632 1184 624 1206 q 651 1151 640 1163 q 652 1140 651 1144 q 657 1129 653 1135 q 651 1126 653 1129 q 643 1122 650 1122 q 626 1119 639 1122 q 608 1122 614 1117 l 588 1122 q 586 1133 588 1125 q 582 1149 585 1142 q 575 1160 579 1157 q 565 1157 571 1164 q 568 1128 558 1144 q 594 1094 578 1111 q 626 1059 610 1076 q 651 1026 643 1042 q 658 988 661 1006 q 643 951 654 971 q 615 921 636 932 q 572 912 594 910 q 528 932 549 914 q 499 990 507 950 l 499 999 q 494 1006 493 999 q 506 1013 494 1013 q 530 1014 521 1007 q 554 1026 539 1021 q 560 1019 560 1021 q 561 1013 561 1018 q 559 1000 558 1007 q 563 988 560 993 q 570 978 565 982 q 581 978 575 975 l 588 978 q 590 996 588 983 q 581 1019 592 1008 q 565 1032 574 1022 q 547 1053 556 1042 q 526 1082 538 1067 q 517 1091 521 1086 q 513 1101 513 1096 q 501 1135 501 1113 q 506 1165 500 1158 q 507 1174 506 1169 q 519 1183 510 1183 q 524 1190 519 1189 q 535 1197 528 1192 q 550 1207 543 1201 q 563 1215 557 1211 q 574 1218 568 1218 m 321 1218 q 329 1215 326 1215 q 333 1213 332 1215 q 332 1205 333 1211 q 328 1183 331 1199 q 329 1174 328 1179 q 331 1165 331 1169 q 335 1157 332 1160 q 328 1151 329 1153 q 321 1143 326 1150 q 303 1150 315 1150 q 285 1143 292 1150 l 265 1143 q 263 1136 260 1138 q 265 1129 265 1135 q 263 1106 263 1111 q 268 1100 264 1100 q 278 1102 272 1100 q 293 1101 285 1104 q 303 1103 299 1107 q 314 1094 308 1100 q 308 1072 314 1085 q 307 1047 301 1058 q 303 1035 307 1042 q 293 1033 299 1028 q 278 1036 286 1039 q 265 1033 269 1033 l 258 1033 q 256 1008 253 1028 q 258 978 258 988 l 314 978 l 328 978 l 328 951 l 328 924 q 319 917 328 918 q 300 917 311 917 l 271 917 l 251 917 q 212 914 221 917 q 196 917 203 911 q 195 944 196 926 q 193 978 194 961 q 191 1013 192 996 q 190 1040 190 1029 l 193 1065 q 195 1083 194 1075 q 196 1094 196 1092 q 192 1115 193 1100 q 191 1145 192 1129 q 190 1174 190 1161 q 190 1190 190 1188 l 190 1197 q 190 1208 188 1206 q 198 1210 193 1210 q 208 1212 203 1211 q 217 1218 214 1213 q 228 1212 224 1213 q 239 1211 233 1211 q 275 1214 258 1213 q 302 1217 289 1215 q 321 1218 315 1218 z "}}}
